# https://github.com/mikedh/trimesh
v -0.32168187 0.00452681 0.73536845
v -0.31831786 0.00007739 0.73528803
v -0.31505409 0.00452681 0.73520761
v -0.31504909 0.04077928 0.73516742
v -0.31505409 0.05887736 0.73514061
v -0.32122567 0.05887736 0.73514061
v -0.32637948 0.00452681 0.73413540
v -0.32637948 0.00007739 0.73413540
v -0.32637449 -0.00452223 0.73413540
v -0.32167688 -0.00452223 0.73535506
v -0.31505409 -0.04982374 0.73515400
v -0.31505409 -0.00452223 0.73520761
v -0.27724763 0.00007739 0.72641540
v -0.31502903 0.06794517 0.73510040
v -0.32107524 0.06794517 0.73510040
v -0.32623411 0.02878274 0.73400137
v -0.32844504 0.00452681 0.72944444
v -0.32740224 0.00007739 0.73183012
v -0.32844504 -0.00452223 0.72944444
v -0.32622909 -0.02864673 0.73400137
v -0.32121562 -0.05889155 0.73512721
v -0.31505409 -0.05889155 0.73512721
v -0.27724763 -0.00452223 0.72640201
v -0.27724264 0.00007739 0.69639320
v -0.27725768 0.09323366 0.71877582
v -0.27725768 0.09238884 0.71916451
v -0.27725768 0.08606202 0.72144298
v -0.27725768 0.00452681 0.72637519
v -0.27724264 -0.05119423 0.69639320
v -0.31474827 0.07701298 0.73477873
v -0.32560742 0.06794517 0.73357247
v -0.32616390 0.03484672 0.73394777
v -0.31964643 0.07701298 0.73477873
v -0.32796874 0.06794517 0.72904235
v -0.32806401 0.04982832 0.72122853
v -0.32810914 0.04077928 0.72118832
v -0.32824449 0.01359462 0.72108111
v -0.32827957 0.00452681 0.72104089
v -0.32845003 0.00007739 0.72944444
v -0.32796874 0.06794517 0.72133574
v -0.32827957 -0.00452223 0.72104089
v -0.32819937 -0.02265785 0.72112132
v -0.32810412 -0.04077470 0.72118832
v -0.32800887 -0.05889155 0.72126874
v -0.32795372 -0.06792181 0.72136256
v -0.32795372 -0.06792181 0.72901553
v -0.32800887 -0.05889155 0.72913617
v -0.32615388 -0.03469194 0.73394777
v -0.32104016 -0.06792181 0.73508700
v -0.31502903 -0.06792181 0.73508700
v -0.31469313 -0.07700840 0.73473852
v -0.27724763 -0.00870881 0.72621437
v -0.27725768 0.09608730 0.71133730
v -0.27725768 0.09586201 0.71222187
v -0.27724264 0.00007739 0.59844574
v -0.29450896 0.09507351 0.72038414
v -0.30355826 0.09295205 0.72752784
v -0.29450896 0.09197581 0.72618755
v -0.28899415 0.09105589 0.72524938
v -0.28845272 0.08606202 0.72545041
v -0.29450896 0.08606202 0.72754124
v -0.30355826 0.08606202 0.73065067
v -0.27724763 -0.08607621 0.72136256
v -0.27724763 -0.09304134 0.71866861
v -0.27724264 -0.08549421 0.67451987
v -0.31537996 0.08247619 0.73430964
v -0.32417857 0.07701298 0.73200436
v -0.32730696 0.07701298 0.72747421
v -0.31791677 0.08247619 0.73430964
v -0.30927358 0.00450804 0.64058405
v -0.32801386 0.05887736 0.72126874
v -0.32730696 0.07701298 0.72246158
v -0.30840626 0.02891415 0.64262127
v -0.30878226 0.02264366 0.64170989
v -0.30909310 0.01357585 0.64098614
v -0.30927358 0.00007739 0.64059746
v -0.30926356 -0.00452223 0.64059746
v -0.32725684 -0.07700840 0.72258222
v -0.30908308 -0.01359004 0.64101294
v -0.30876722 -0.02263907 0.64173669
v -0.30839622 -0.02885325 0.64264808
v -0.32557231 -0.06792181 0.73354568
v -0.32574779 -0.05889155 0.73366629
v -0.32725684 -0.07700840 0.72738039
v -0.31955618 -0.07700840 0.73473852
v -0.31530978 -0.08232142 0.73428283
v -0.30355826 -0.08607621 0.73062388
v -0.29450896 -0.08607621 0.72754124
v -0.28844770 -0.08607621 0.72545041
v -0.30355826 0.09552409 0.72038414
v -0.27725768 0.09214477 0.65696224
v -0.27725768 0.00450804 0.59848595
v -0.27725768 0.01100382 0.59888804
v -0.27725768 0.01357585 0.59918288
v -0.27725768 0.02114175 0.60017469
v -0.27725768 0.02264366 0.60040254
v -0.27725768 0.03079155 0.60223872
v -0.27725768 0.03167392 0.60246657
v -0.27725768 0.03296933 0.60308310
v -0.27725768 0.06912793 0.62081497
v -0.27725768 0.06931567 0.62092218
v -0.27725768 0.07678769 0.62716787
v -0.27725768 0.07727581 0.62758337
v -0.27725768 0.08266394 0.63264961
v -0.27725768 0.08895321 0.64766071
v -0.27724264 -0.00452223 0.59845913
v -0.30715790 0.00007739 0.63606731
v -0.30715790 0.00450804 0.63608072
v -0.31261755 0.09261412 0.72768866
v -0.31246214 0.08572409 0.73239302
v -0.28915460 -0.09095743 0.72519574
v -0.29450896 -0.09182103 0.72609374
v -0.30355826 -0.09279728 0.72742061
v -0.29450896 -0.09473099 0.72038414
v -0.27724763 -0.09570724 0.71132388
v -0.27724264 -0.09058195 0.66602251
v -0.27724264 -0.08558809 0.67441265
v -0.32111535 0.08529229 0.72906917
v -0.32651486 0.08206317 0.72561125
v -0.31827273 0.09152523 0.72649582
v -0.30697240 0.01357585 0.63646940
v -0.30715790 -0.00452223 0.63608072
v -0.32651486 0.08206317 0.72401630
v -0.29963271 0.06529804 0.64199134
v -0.30234500 0.04982832 0.63886850
v -0.30432028 0.04076051 0.63886850
v -0.30623042 0.03182412 0.63931078
v -0.30662648 0.02264366 0.63719315
v -0.32646471 -0.08196471 0.72413693
v -0.30429022 -0.04077470 0.63885509
v -0.30164812 -0.05070611 0.63795711
v -0.30053514 -0.05887277 0.64010155
v -0.29962270 -0.06523714 0.64203155
v -0.30696238 -0.01359004 0.63648280
v -0.30661144 -0.02263907 0.63721995
v -0.30621537 -0.03180076 0.63931078
v -0.32408332 -0.07700840 0.73191054
v -0.32646471 -0.08196471 0.72550401
v -0.31783154 -0.08232142 0.73428283
v -0.31241701 -0.08564441 0.73225902
v -0.31261755 0.09381565 0.72038414
v -0.28387542 0.08296432 0.63222073
v -0.28544464 0.08807083 0.64791537
v -0.30210435 0.02264366 0.63124231
v -0.30142252 0.03171147 0.63172482
v -0.30058026 0.04076051 0.63248877
v -0.29960765 0.04982832 0.63360120
v -0.29904612 0.05439039 0.63431156
v -0.29240832 0.06792640 0.63181864
v -0.29107475 0.07539842 0.63306509
v -0.28991664 0.08144363 0.63437856
v -0.27724264 -0.01359004 0.59916949
v -0.31261755 -0.09242180 0.72747421
v -0.30355826 -0.09516279 0.72038414
v -0.27724264 -0.09178348 0.65696224
v -0.31810729 0.09137504 0.72038414
v -0.29312524 0.07785781 0.63799732
v -0.31730012 0.09073673 0.71574678
v -0.29148084 0.08364018 0.64042322
v -0.29712599 0.06817046 0.63892211
v -0.29815375 0.06043560 0.63596010
v -0.30025938 0.05799498 0.63892211
v -0.29308514 -0.07783445 0.63799732
v -0.29145578 -0.08357928 0.64046343
v -0.31716976 -0.09061950 0.71584063
v -0.31788668 -0.09118272 0.72038414
v -0.31811229 -0.09137046 0.72628137
v -0.29977309 -0.04832182 0.63338677
v -0.29903111 -0.05434825 0.63433835
v -0.29836431 -0.05887277 0.63557142
v -0.29709089 -0.06814710 0.63894891
v -0.30208931 -0.02263907 0.63124231
v -0.30140747 -0.03168811 0.63173822
v -0.30056522 -0.04077470 0.63250218
v -0.32099504 -0.08517506 0.72892172
v -0.28631697 0.08459765 0.63799732
v -0.27724264 -0.02263907 0.60038915
v -0.31261755 -0.09345436 0.72038414
v -0.27724264 -0.09090111 0.65383939
v -0.28544464 -0.08782218 0.64791537
v -0.28988153 -0.08140150 0.63441877
v -0.28384034 -0.08292219 0.63226093
v -0.28629191 -0.08449920 0.63799732
v -0.27724264 -0.03163179 0.60246657
v -0.29238326 -0.06794058 0.63183204
v -0.29105469 -0.07533752 0.63307850
v -0.27724264 -0.08866701 0.64744627
v -0.27724264 -0.03296474 0.60308310
v -0.27724264 -0.06925476 0.62096239
v -0.27797460 -0.08292219 0.63226093
v -0.27724264 -0.07355399 0.62380378
v -0.27724264 -0.08335399 0.63398988
v -0.27724264 -0.08059422 0.63063920
f 1 2 3
f 1 3 4
f 1 4 5
f 1 5 6
f 1 6 7
f 1 7 8
f 1 8 9
f 1 9 10
f 1 10 11
f 1 11 2
f 2 11 12
f 2 12 3
f 3 13 4
f 3 12 13
f 4 13 5
f 5 14 15
f 5 15 6
f 5 13 14
f 6 15 16
f 6 16 7
f 7 17 18
f 7 18 8
f 7 16 17
f 8 18 9
f 9 19 20
f 9 20 21
f 9 21 10
f 9 18 19
f 10 21 22
f 10 22 11
f 11 23 13
f 11 13 12
f 11 22 23
f 13 24 25
f 13 25 26
f 13 26 27
f 13 27 28
f 13 28 14
f 13 23 29
f 13 29 24
f 14 30 33
f 14 33 15
f 14 28 30
f 15 31 32
f 15 32 16
f 15 33 31
f 16 32 34
f 16 34 17
f 17 35 36
f 17 36 37
f 17 37 38
f 17 38 39
f 17 39 18
f 17 34 40
f 17 40 35
f 18 39 19
f 19 41 42
f 19 42 43
f 19 43 44
f 19 44 45
f 19 45 46
f 19 46 47
f 19 47 20
f 19 39 41
f 20 47 46
f 20 46 48
f 20 48 49
f 20 49 21
f 21 49 50
f 21 50 22
f 22 50 23
f 23 50 51
f 23 51 52
f 23 52 29
f 24 53 54
f 24 54 25
f 24 29 65
f 24 65 117
f 24 117 116
f 24 116 155
f 24 155 179
f 24 179 187
f 24 187 192
f 24 192 193
f 24 193 191
f 24 191 189
f 24 189 188
f 24 188 184
f 24 184 177
f 24 177 152
f 24 152 106
f 24 106 55
f 24 55 53
f 25 54 56
f 25 56 57
f 25 57 58
f 25 58 59
f 25 59 26
f 26 59 27
f 27 59 60
f 27 60 28
f 28 60 61
f 28 61 62
f 28 62 30
f 29 52 63
f 29 63 64
f 29 64 65
f 30 62 66
f 30 66 69
f 30 69 33
f 31 33 67
f 31 67 68
f 31 68 34
f 31 34 32
f 33 69 67
f 34 68 72
f 34 72 40
f 35 70 36
f 35 40 71
f 35 71 70
f 36 70 37
f 37 70 38
f 38 70 41
f 38 41 39
f 40 72 73
f 40 73 74
f 40 74 75
f 40 75 70
f 40 70 71
f 41 76 77
f 41 77 42
f 41 70 76
f 42 77 43
f 43 77 44
f 44 77 45
f 45 78 84
f 45 84 46
f 45 77 79
f 45 79 80
f 45 80 81
f 45 81 78
f 46 82 83
f 46 83 48
f 46 84 82
f 48 83 49
f 49 83 82
f 49 82 85
f 49 85 51
f 49 51 50
f 51 85 139
f 51 139 86
f 51 86 87
f 51 87 52
f 52 87 88
f 52 88 89
f 52 89 63
f 53 90 56
f 53 56 54
f 53 55 91
f 53 91 90
f 55 92 93
f 55 93 94
f 55 94 95
f 55 95 96
f 55 96 97
f 55 97 98
f 55 98 99
f 55 99 100
f 55 100 101
f 55 101 102
f 55 102 103
f 55 103 104
f 55 104 105
f 55 105 91
f 55 106 122
f 55 122 107
f 55 107 108
f 55 108 92
f 56 90 57
f 57 109 110
f 57 110 62
f 57 62 58
f 57 90 109
f 58 62 59
f 59 62 61
f 59 61 60
f 62 110 66
f 63 89 111
f 63 111 64
f 64 111 112
f 64 112 113
f 64 113 114
f 64 114 115
f 64 115 116
f 64 116 117
f 64 117 65
f 66 110 69
f 67 69 118
f 67 118 119
f 67 119 68
f 68 119 123
f 68 123 72
f 69 110 109
f 69 109 120
f 69 120 118
f 70 75 121
f 70 121 108
f 70 108 107
f 70 107 122
f 70 122 76
f 72 123 124
f 72 124 125
f 72 125 73
f 73 125 126
f 73 126 127
f 73 127 128
f 73 128 74
f 74 128 121
f 74 121 75
f 76 122 77
f 77 122 79
f 78 129 138
f 78 138 84
f 78 81 130
f 78 130 131
f 78 131 132
f 78 132 133
f 78 133 129
f 79 122 134
f 79 134 80
f 80 134 135
f 80 135 81
f 81 135 136
f 81 136 130
f 82 84 137
f 82 137 85
f 84 138 137
f 85 137 139
f 86 139 140
f 86 140 87
f 87 140 113
f 87 113 112
f 87 112 111
f 87 111 88
f 88 111 89
f 90 141 109
f 90 91 141
f 91 105 142
f 91 142 143
f 91 143 141
f 92 108 93
f 93 108 121
f 93 121 144
f 93 144 94
f 94 144 95
f 95 144 145
f 95 145 96
f 96 145 146
f 96 146 97
f 97 146 147
f 97 147 98
f 98 147 148
f 98 148 149
f 98 149 150
f 98 150 151
f 98 151 99
f 99 151 100
f 100 151 101
f 101 151 142
f 101 142 102
f 102 142 103
f 103 142 104
f 104 142 105
f 106 152 134
f 106 134 122
f 109 141 120
f 113 153 154
f 113 154 114
f 113 140 153
f 114 154 115
f 115 155 116
f 115 154 155
f 118 120 119
f 119 120 123
f 120 141 156
f 120 156 123
f 121 128 144
f 123 157 124
f 123 156 158
f 123 158 159
f 123 159 157
f 124 160 161
f 124 161 162
f 124 162 125
f 124 157 160
f 125 162 148
f 125 148 126
f 126 148 147
f 126 147 127
f 127 147 146
f 127 146 128
f 128 146 145
f 128 145 144
f 129 133 163
f 129 163 164
f 129 164 165
f 129 165 166
f 129 166 167
f 129 167 138
f 130 168 169
f 130 169 131
f 130 136 168
f 131 169 132
f 132 170 133
f 132 169 170
f 133 170 171
f 133 171 163
f 134 152 172
f 134 172 135
f 135 172 173
f 135 173 174
f 135 174 168
f 135 168 136
f 137 138 175
f 137 175 139
f 138 167 175
f 139 175 167
f 139 167 153
f 139 153 140
f 141 143 158
f 141 158 156
f 142 151 159
f 142 159 176
f 142 176 143
f 143 176 159
f 143 159 158
f 148 162 161
f 148 161 150
f 148 150 149
f 150 161 151
f 151 161 160
f 151 160 157
f 151 157 159
f 152 177 172
f 153 167 178
f 153 178 154
f 154 178 155
f 155 178 180
f 155 180 179
f 163 181 164
f 163 171 181
f 164 182 183
f 164 183 180
f 164 180 165
f 164 181 182
f 165 180 178
f 165 178 166
f 166 178 167
f 168 174 184
f 168 184 169
f 169 184 185
f 169 185 186
f 169 186 170
f 170 186 181
f 170 181 171
f 172 177 173
f 173 177 174
f 174 177 184
f 179 180 183
f 179 183 182
f 179 182 187
f 181 186 184
f 181 184 188
f 181 188 189
f 181 189 182
f 182 190 187
f 182 189 191
f 182 191 190
f 184 186 185
f 187 190 192
f 190 191 193
f 190 193 192

