# https://github.com/mikedh/trimesh
v -0.23152017 -0.14505259 0.51016708
v -0.27723086 -0.09178370 0.65697962
v -0.23358719 -0.14168599 0.51016708
v -0.20822915 -0.14505259 0.51016708
v -0.23576228 -0.14505259 0.85169651
v -0.27723086 -0.09570429 0.71131831
v -0.27723086 -0.09091720 0.65388017
v -0.24577312 -0.12027900 0.51016708
v -0.24408437 -0.12390129 0.51016708
v -0.24365882 -0.12481041 0.51016708
v -0.23988956 -0.13138734 0.51016708
v -0.23918706 -0.13253794 0.51016708
v -0.23636348 -0.13715459 0.51016708
v -0.25391282 0.00006606 0.51016708
v -0.25391282 0.00006606 0.51640524
v -0.25393307 0.00006606 0.62979066
v -0.25395335 0.00006606 0.74294068
v -0.25398036 0.00006606 0.89253881
v -0.20839803 -0.14505259 0.87441285
v -0.23576903 -0.14505259 0.85628688
v -0.23564745 -0.14505259 0.86064182
v -0.23563395 -0.14505259 0.86091647
v -0.24309140 -0.13313455 0.85628688
v -0.24563801 -0.12860316 0.85628688
v -0.24357775 -0.12479620 0.90160180
v -0.24576637 -0.12026480 0.90160180
v -0.25394660 -0.10020729 0.90646682
v -0.25960048 -0.08607328 0.90160180
v -0.26303198 -0.07351603 0.90650603
v -0.27723086 -0.09303374 0.71865502
v -0.27723086 -0.08867280 0.64744584
v -0.25627706 -0.09513609 0.51016708
v -0.25583122 -0.09621567 0.51016708
v -0.25406143 -0.10049139 0.51016708
v -0.25150129 -0.10667058 0.51016708
v -0.24876556 -0.11326171 0.51016708
v -0.24817111 -0.11466802 0.51016708
v -0.27365075 0.00006606 0.51016708
v -0.25407493 0.00006606 0.90160180
v -0.20841828 -0.14505259 0.90160180
v -0.23150667 -0.14505259 0.90160180
v -0.23610679 -0.13674264 0.90678063
v -0.23980173 -0.13138734 0.90160180
v -0.24540160 -0.11944091 0.90709454
v -0.25500036 -0.09513609 0.90752609
v -0.25660129 -0.08607328 0.90850694
v -0.26370073 -0.06797607 0.90732992
v -0.27185393 -0.02732125 0.90615291
v -0.26881422 -0.04985044 0.90160180
v -0.27723086 -0.08607328 0.72136215
v -0.27035436 -0.04078763 0.90160180
v -0.27410334 -0.04078763 0.85628688
v -0.27494094 -0.03172481 0.85628688
v -0.27645404 -0.01359919 0.85628688
v -0.27720386 -0.00453638 0.85628688
v -0.27721061 0.00006606 0.85628688
v -0.27723086 -0.08337432 0.63398867
v -0.25974909 -0.08607328 0.51016708
v -0.25905332 -0.08789152 0.51016708
v -0.27365075 -0.00453638 0.51016708
v -0.27723086 0.00006606 0.59848217
v -0.25544620 0.00006606 0.90423048
v -0.25366288 -0.00831492 0.90623139
v -0.25751996 0.00006606 0.90819308
v -0.21306569 -0.14505259 0.90878159
v -0.22924376 -0.14505259 0.90795764
v -0.23767393 -0.13138734 0.90787922
v -0.24665801 -0.11326171 0.90807539
v -0.24919112 -0.09513609 0.90999781
v -0.25824950 -0.05891325 0.91078249
v -0.26478827 -0.05891325 0.90827156
v -0.26573396 -0.04985044 0.90862463
v -0.27239434 -0.01359919 0.90697680
v -0.27363725 -0.00453638 0.90160180
v -0.27723086 -0.00872686 0.72618788
v -0.27723086 0.00006606 0.72638405
v -0.27723086 -0.00453638 0.72638405
v -0.27363725 0.00006606 0.90160180
v -0.27723086 -0.08061854 0.63065381
v -0.27061102 -0.04078763 0.51016708
v -0.26896959 -0.04985044 0.51016708
v -0.26461940 -0.06797607 0.51016708
v -0.26228895 -0.07766390 0.51016708
v -0.26206602 -0.07857302 0.51016708
v -0.26160671 -0.08007875 0.51016708
v -0.27350889 -0.00635462 0.51016708
v -0.27723086 -0.07358706 0.62378791
v -0.27723086 -0.06928293 0.62096308
v -0.27723086 -0.03297486 0.60307251
v -0.27723086 -0.03165379 0.60244476
v -0.27723086 -0.02266200 0.60040462
v -0.27723086 -0.01359919 0.59914914
v -0.27723086 -0.00453638 0.59848217
v -0.26731462 0.00006606 0.90988012
v -0.22200922 -0.14045015 0.91070401
v -0.22236724 -0.14505259 0.90991934
v -0.23107436 -0.13138734 0.91035094
v -0.23116894 -0.14003820 0.90842846
v -0.24057855 -0.12240976 0.90870311
v -0.24013274 -0.11326171 0.91058632
v -0.24919112 -0.08607328 0.91082176
v -0.25824950 -0.04985044 0.91097866
v -0.26731462 -0.00453638 0.90988012
v -0.27274560 -0.00453638 0.90740840
v -0.27274560 0.00006606 0.90740840
v -0.27279964 -0.01541744 0.51016708
v -0.27223222 -0.02266200 0.51016708
v -0.27157698 -0.03100036 0.51016708
v -0.27150269 -0.03190948 0.51016708
v -0.26998956 0.00006606 0.90866390
f 1 2 3
f 1 3 13
f 1 13 12
f 1 12 11
f 1 11 10
f 1 10 9
f 1 9 8
f 1 8 37
f 1 37 36
f 1 36 35
f 1 35 34
f 1 34 33
f 1 33 32
f 1 32 59
f 1 59 58
f 1 58 85
f 1 85 84
f 1 84 83
f 1 83 82
f 1 82 81
f 1 81 80
f 1 80 109
f 1 109 108
f 1 108 107
f 1 107 106
f 1 106 86
f 1 86 60
f 1 60 38
f 1 38 14
f 1 14 4
f 1 4 19
f 1 19 40
f 1 40 65
f 1 65 96
f 1 96 66
f 1 66 41
f 1 41 22
f 1 22 21
f 1 21 20
f 1 20 5
f 1 5 6
f 1 6 2
f 2 7 8
f 2 8 9
f 2 9 10
f 2 10 11
f 2 11 12
f 2 12 13
f 2 13 3
f 2 6 30
f 2 30 50
f 2 50 75
f 2 75 77
f 2 77 76
f 2 76 61
f 2 61 93
f 2 93 92
f 2 92 91
f 2 91 90
f 2 90 89
f 2 89 88
f 2 88 87
f 2 87 79
f 2 79 57
f 2 57 31
f 2 31 7
f 4 14 15
f 4 15 16
f 4 16 17
f 4 17 18
f 4 18 19
f 5 20 6
f 6 20 21
f 6 21 22
f 6 22 23
f 6 23 24
f 6 24 25
f 6 25 26
f 6 26 27
f 6 27 28
f 6 28 29
f 6 29 30
f 7 31 32
f 7 32 33
f 7 33 34
f 7 34 35
f 7 35 36
f 7 36 37
f 7 37 8
f 14 38 61
f 14 61 76
f 14 76 56
f 14 56 78
f 14 78 105
f 14 105 110
f 14 110 94
f 14 94 64
f 14 64 62
f 14 62 39
f 14 39 18
f 14 18 17
f 14 17 16
f 14 16 15
f 18 39 40
f 18 40 19
f 22 41 42
f 22 42 43
f 22 43 23
f 23 43 25
f 23 25 24
f 25 43 42
f 25 42 44
f 25 44 26
f 26 44 27
f 27 44 45
f 27 45 29
f 27 29 28
f 29 45 46
f 29 46 47
f 29 47 48
f 29 48 49
f 29 49 30
f 30 49 51
f 30 51 52
f 30 52 53
f 30 53 54
f 30 54 55
f 30 55 56
f 30 56 50
f 31 57 58
f 31 58 59
f 31 59 32
f 38 60 93
f 38 93 61
f 39 62 63
f 39 63 40
f 40 63 64
f 40 64 65
f 41 66 42
f 42 66 67
f 42 67 44
f 44 67 68
f 44 68 45
f 45 68 46
f 46 69 70
f 46 70 71
f 46 71 47
f 46 68 69
f 47 71 48
f 48 51 49
f 48 71 72
f 48 72 73
f 48 73 74
f 48 74 55
f 48 55 54
f 48 54 53
f 48 53 52
f 48 52 51
f 50 56 75
f 55 74 56
f 56 76 77
f 56 77 75
f 56 74 78
f 57 79 80
f 57 80 81
f 57 81 82
f 57 82 83
f 57 83 84
f 57 84 85
f 57 85 58
f 60 86 79
f 60 79 87
f 60 87 88
f 60 88 89
f 60 89 90
f 60 90 91
f 60 91 92
f 60 92 93
f 62 64 63
f 64 94 95
f 64 95 65
f 65 95 96
f 66 96 97
f 66 97 98
f 66 98 67
f 67 98 97
f 67 97 99
f 67 99 68
f 68 99 100
f 68 100 69
f 69 100 101
f 69 101 70
f 70 101 102
f 70 102 103
f 70 103 72
f 70 72 71
f 72 103 104
f 72 104 73
f 73 104 74
f 74 104 105
f 74 105 78
f 79 86 106
f 79 106 107
f 79 107 108
f 79 108 109
f 79 109 80
f 94 110 103
f 94 103 102
f 94 102 95
f 95 102 101
f 95 101 100
f 95 100 97
f 95 97 96
f 97 100 99
f 103 110 104
f 104 110 105

