# https://github.com/mikedh/trimesh
v 0.15555191 -0.20066455 0.51016706
v 0.15555191 -0.22531538 0.51016706
v 0.15555191 -0.20065737 0.50299036
v 0.00012122 -0.25400167 0.51016706
v 0.15386295 -0.22643555 0.51016706
v 0.15555191 -0.22531538 0.11809653
v 0.00012122 -0.25399449 0.50291361
v 0.15555191 -0.20062866 0.43951300
v 0.00012122 -0.27382715 0.51016706
v 0.13741452 -0.23652422 0.51016706
v 0.15145882 -0.22791473 0.11809653
v 0.15386295 -0.22643555 0.11809653
v 0.15555191 -0.20049223 0.11809653
v 0.15555191 -0.20049941 0.14964331
v 0.15555191 -0.20049223 0.13152885
v 0.00012122 -0.25394423 0.22202439
v 0.00272314 -0.27383434 0.51016706
v 0.00012122 -0.27382715 0.11809653
v 0.00246447 -0.27383434 0.11809653
v 0.13138902 -0.24020785 0.51016706
v 0.13741452 -0.23652422 0.11809653
v 0.00012122 -0.25392986 0.11809653
v 0.00012122 -0.25392986 0.14047097
v 0.00453384 -0.27383434 0.51016706
v 0.00453384 -0.27383434 0.11809653
v 0.12512006 -0.24381964 0.51016706
v 0.13138902 -0.24020785 0.11809653
v 0.01360253 -0.27314502 0.51016706
v 0.00937251 -0.27346814 0.11809653
v 0.12060093 -0.24590918 0.51016706
v 0.12271593 -0.24493263 0.11809653
v 0.12512006 -0.24381964 0.11809653
v 0.02956404 -0.27188842 0.51016706
v 0.01360253 -0.27314502 0.11809653
v 0.02585135 -0.27218281 0.11809653
v 0.11912499 -0.24654108 0.51016706
v 0.12060093 -0.24590918 0.11809653
v 0.03318543 -0.27160118 0.51016706
v 0.03076610 -0.27179506 0.11809653
v 0.11326685 -0.24903992 0.51016706
v 0.11326685 -0.24903992 0.11809653
v 0.03925658 -0.27098367 0.51016706
v 0.03318543 -0.27160118 0.11809653
v 0.03723286 -0.27119191 0.11809653
v 0.11168439 -0.24970053 0.51016706
v 0.10956938 -0.25057654 0.11809653
v 0.04077818 -0.27082569 0.51016706
v 0.04077818 -0.27082569 0.11809653
v 0.09514468 -0.25655076 0.51016706
v 0.09514468 -0.25655076 0.11809653
v 0.04984687 -0.26920289 0.51016706
v 0.04561684 -0.26996402 0.11809653
v 0.08607599 -0.26000460 0.51016706
v 0.08607599 -0.26000460 0.11809653
v 0.05891556 -0.26702718 0.51016706
v 0.04984687 -0.26920289 0.11809653
v 0.05467032 -0.26804683 0.11809653
v 0.08467612 -0.26044263 0.51016706
v 0.08280456 -0.26102425 0.11809653
v 0.06615834 -0.26528950 0.51016706
v 0.06373901 -0.26587112 0.11809653
v 0.07906145 -0.26218749 0.51016706
v 0.07906145 -0.26218749 0.11809653
v 0.07545527 -0.26305635 0.51016706
f 1 2 6
f 1 6 13
f 1 13 15
f 1 15 14
f 1 14 8
f 1 8 3
f 1 3 4
f 1 4 9
f 1 9 17
f 1 17 24
f 1 24 28
f 1 28 33
f 1 33 38
f 1 38 42
f 1 42 47
f 1 47 51
f 1 51 55
f 1 55 60
f 1 60 64
f 1 64 62
f 1 62 58
f 1 58 53
f 1 53 49
f 1 49 45
f 1 45 40
f 1 40 36
f 1 36 30
f 1 30 26
f 1 26 20
f 1 20 10
f 1 10 5
f 1 5 2
f 2 5 12
f 2 12 6
f 3 7 4
f 3 8 7
f 4 7 16
f 4 16 23
f 4 23 22
f 4 22 18
f 4 18 9
f 5 10 11
f 5 11 12
f 6 12 11
f 6 11 21
f 6 21 27
f 6 27 32
f 6 32 31
f 6 31 37
f 6 37 41
f 6 41 46
f 6 46 50
f 6 50 54
f 6 54 59
f 6 59 63
f 6 63 61
f 6 61 57
f 6 57 56
f 6 56 52
f 6 52 48
f 6 48 44
f 6 44 43
f 6 43 39
f 6 39 35
f 6 35 34
f 6 34 29
f 6 29 25
f 6 25 19
f 6 19 18
f 6 18 22
f 6 22 13
f 7 8 14
f 7 14 15
f 7 15 16
f 9 18 19
f 9 19 17
f 10 20 27
f 10 27 21
f 10 21 11
f 13 22 23
f 13 23 15
f 15 23 16
f 17 19 25
f 17 25 24
f 20 26 32
f 20 32 27
f 24 25 29
f 24 29 28
f 26 30 31
f 26 31 32
f 28 29 34
f 28 34 35
f 28 35 33
f 30 36 37
f 30 37 31
f 33 35 39
f 33 39 38
f 36 40 41
f 36 41 37
f 38 39 43
f 38 43 44
f 38 44 42
f 40 45 41
f 41 45 46
f 42 44 48
f 42 48 47
f 45 49 46
f 46 49 50
f 47 48 52
f 47 52 51
f 49 53 54
f 49 54 50
f 51 52 56
f 51 56 57
f 51 57 61
f 51 61 55
f 53 58 54
f 54 58 59
f 55 61 60
f 58 62 63
f 58 63 59
f 60 61 64
f 61 63 64
f 62 64 63

