# https://github.com/mikedh/trimesh
v -0.27365280 0.00006606 0.51016708
v -0.27365280 0.00453192 0.51016708
v -0.25391660 0.00006606 0.51016708
v -0.27725530 0.00006606 0.59848206
v -0.27294901 0.01359271 0.51016708
v -0.27725530 0.00453192 0.59848206
v -0.27725530 0.01102420 0.59887440
v -0.27725530 0.01359271 0.59918826
v -0.27725530 0.02114337 0.60016910
v -0.27725530 0.02266642 0.60040451
v -0.27725530 0.03168849 0.60244466
v -0.27725530 0.03299211 0.60307239
v -0.27725530 0.06913203 0.62080600
v -0.27725530 0.06933854 0.62092372
v -0.27725530 0.07681176 0.62716186
v -0.27725530 0.07730223 0.62759343
v -0.27725530 0.08267159 0.63265458
v -0.21632892 0.13192514 0.51016708
v -0.25391660 0.00006606 0.53013701
v -0.27725530 0.00006606 0.72638380
v -0.27179189 0.02830682 0.51016708
v -0.27725530 0.08895735 0.64764183
v -0.25976767 0.08607907 0.51016708
v -0.26207590 0.07859294 0.51016708
v -0.26897671 0.04984880 0.51016708
v -0.27061690 0.04078800 0.51016708
v -0.27150561 0.03192082 0.51016708
v -0.23959009 0.13192514 0.51016708
v -0.21632892 0.13192514 0.52107403
v -0.25392254 0.00006606 0.56638891
v -0.27720758 0.00006606 0.85628645
v -0.27725530 0.00453192 0.72638380
v -0.27725530 0.09217123 0.65697945
v -0.25629042 0.09513987 0.51016708
v -0.25698825 0.09333287 0.51016708
v -0.23991813 0.13138305 0.51016708
v -0.27725530 0.09608208 0.71131807
v -0.24380692 0.13192514 0.85628645
v -0.21633489 0.13192514 0.53704213
v -0.25398219 0.00006606 0.89253838
v -0.25397623 0.00006606 0.86534945
v -0.27364086 0.00006606 0.90160135
v -0.27720758 0.00453192 0.85628645
v -0.27725530 0.08607907 0.72144036
v -0.24066964 0.13007943 0.51016708
v -0.24368166 0.12482623 0.51016708
v -0.24536960 0.12119933 0.51016708
v -0.24578711 0.12029584 0.51016708
v -0.24638952 0.11888895 0.51016708
v -0.24878123 0.11326146 0.51016708
v -0.24946714 0.11162225 0.51016708
v -0.25451302 0.09943793 0.51016708
v -0.27725530 0.09587557 0.71222044
v -0.24578114 0.12028293 0.90160135
v -0.24359219 0.12481332 0.90160135
v -0.24565589 0.12862092 0.85628645
v -0.23982272 0.13138305 0.90160135
v -0.23945887 0.13192514 0.90211140
v -0.21634681 0.13192514 0.56638891
v -0.21643628 0.13192514 0.78150710
v -0.21647803 0.13192514 0.88112135
v -0.21648400 0.13192514 0.89253838
v -0.21648995 0.13192514 0.89924734
v -0.21650786 0.13192514 0.90160135
v -0.25407166 0.00006606 0.90160135
v -0.21636470 0.13192514 0.60950672
v -0.27318757 0.00006606 0.90454386
v -0.27364086 0.00453192 0.90160135
v -0.27185752 0.02732588 0.90615245
v -0.27645607 0.01359271 0.85628645
v -0.27725530 0.09322961 0.71877247
v -0.27725530 0.09239065 0.71916481
v -0.26303617 0.07353336 0.90654481
v -0.25961855 0.08607907 0.90160135
v -0.25395238 0.10022527 0.90646634
v -0.24541732 0.11945687 0.90709406
v -0.23752640 0.13192514 0.90776104
v -0.21721762 0.13192514 0.90513236
v -0.25366609 0.00832661 0.90623090
v -0.25544347 0.00006606 0.90423000
v -0.27274622 0.00006606 0.90740792
v -0.27274622 0.00453192 0.90740792
v -0.27239431 0.01359271 0.90697637
v -0.26574400 0.04984880 0.90862414
v -0.26478970 0.05890960 0.90827107
v -0.26370418 0.06795748 0.90732949
v -0.26882759 0.04984880 0.90160135
v -0.27036046 0.04078800 0.90160135
v -0.27411206 0.04078800 0.85628645
v -0.27494707 0.03172721 0.85628645
v -0.25660652 0.08607907 0.90850645
v -0.25500809 0.09513987 0.90752566
v -0.24667581 0.11326146 0.90811411
v -0.23768149 0.13138305 0.90787873
v -0.23728186 0.13192514 0.90791795
v -0.22021771 0.13192514 0.90846724
v -0.25751910 0.00006606 0.90819259
v -0.26999064 0.00006606 0.90866341
v -0.26731263 0.00453192 0.90987964
v -0.25825271 0.05890960 0.91078200
v -0.24919279 0.09513987 0.90999733
v -0.24013285 0.11326146 0.91058584
v -0.24058614 0.12242551 0.90870262
v -0.23107293 0.13138305 0.91035045
v -0.23107887 0.13192514 0.91023276
v -0.22100502 0.13192514 0.90882031
v -0.22161934 0.13192514 0.90901648
v -0.23107293 0.12232225 0.91031124
v -0.25825271 0.02266642 0.90956578
v -0.26731263 0.00006606 0.90987964
v -0.25825271 0.04984880 0.91093896
v -0.24919279 0.08607907 0.91082127
v -0.24013285 0.10420066 0.91066431
v -0.23054208 0.13192514 0.91038967
f 1 2 5
f 1 5 21
f 1 21 27
f 1 27 26
f 1 26 25
f 1 25 24
f 1 24 23
f 1 23 35
f 1 35 34
f 1 34 52
f 1 52 51
f 1 51 50
f 1 50 49
f 1 49 48
f 1 48 47
f 1 47 46
f 1 46 45
f 1 45 36
f 1 36 28
f 1 28 18
f 1 18 3
f 1 3 19
f 1 19 30
f 1 30 41
f 1 41 40
f 1 40 65
f 1 65 80
f 1 80 97
f 1 97 110
f 1 110 98
f 1 98 81
f 1 81 67
f 1 67 42
f 1 42 31
f 1 31 20
f 1 20 4
f 1 4 6
f 1 6 2
f 2 6 7
f 2 7 8
f 2 8 9
f 2 9 10
f 2 10 11
f 2 11 12
f 2 12 13
f 2 13 14
f 2 14 15
f 2 15 16
f 2 16 17
f 2 17 5
f 3 18 29
f 3 29 19
f 4 20 32
f 4 32 44
f 4 44 72
f 4 72 71
f 4 71 53
f 4 53 37
f 4 37 33
f 4 33 22
f 4 22 17
f 4 17 16
f 4 16 15
f 4 15 14
f 4 14 13
f 4 13 12
f 4 12 11
f 4 11 10
f 4 10 9
f 4 9 8
f 4 8 7
f 4 7 6
f 5 17 21
f 17 22 23
f 17 23 24
f 17 24 25
f 17 25 26
f 17 26 27
f 17 27 21
f 18 28 38
f 18 38 58
f 18 58 77
f 18 77 95
f 18 95 105
f 18 105 114
f 18 114 107
f 18 107 106
f 18 106 96
f 18 96 78
f 18 78 64
f 18 64 63
f 18 63 62
f 18 62 61
f 18 61 60
f 18 60 66
f 18 66 59
f 18 59 39
f 18 39 29
f 19 29 30
f 20 31 43
f 20 43 32
f 22 33 34
f 22 34 35
f 22 35 23
f 28 36 33
f 28 33 37
f 28 37 38
f 29 39 40
f 29 40 41
f 29 41 30
f 31 42 68
f 31 68 43
f 32 43 44
f 33 36 45
f 33 45 46
f 33 46 47
f 33 47 48
f 33 48 49
f 33 49 50
f 33 50 51
f 33 51 52
f 33 52 34
f 37 53 54
f 37 54 55
f 37 55 56
f 37 56 38
f 38 56 55
f 38 55 57
f 38 57 58
f 39 59 40
f 40 60 61
f 40 61 62
f 40 62 63
f 40 63 64
f 40 64 65
f 40 59 66
f 40 66 60
f 42 67 68
f 43 68 69
f 43 69 70
f 43 70 71
f 43 71 72
f 43 72 44
f 53 71 73
f 53 73 74
f 53 74 75
f 53 75 54
f 54 75 76
f 54 76 55
f 55 76 58
f 55 58 57
f 58 76 77
f 64 78 65
f 65 78 79
f 65 79 80
f 67 81 82
f 67 82 68
f 68 82 83
f 68 83 69
f 69 83 84
f 69 84 85
f 69 85 86
f 69 86 73
f 69 73 87
f 69 87 88
f 69 88 89
f 69 89 90
f 69 90 70
f 70 90 71
f 71 90 89
f 71 89 88
f 71 88 87
f 71 87 73
f 73 86 91
f 73 91 92
f 73 92 75
f 73 75 74
f 75 92 76
f 76 92 93
f 76 93 94
f 76 94 77
f 77 94 95
f 78 96 97
f 78 97 79
f 79 97 80
f 81 98 82
f 82 98 99
f 82 99 84
f 82 84 83
f 84 99 100
f 84 100 85
f 85 100 91
f 85 91 86
f 91 100 101
f 91 101 93
f 91 93 92
f 93 101 102
f 93 102 103
f 93 103 94
f 94 103 95
f 95 103 104
f 95 104 105
f 96 106 97
f 97 106 107
f 97 107 108
f 97 108 109
f 97 109 110
f 98 110 99
f 99 110 111
f 99 111 100
f 100 111 112
f 100 112 101
f 101 112 102
f 102 112 113
f 102 113 114
f 102 114 104
f 102 104 103
f 104 114 105
f 107 114 108
f 108 114 113
f 108 113 111
f 108 111 110
f 108 110 109
f 111 113 112

