# https://github.com/mikedh/trimesh
v 0.15556271 -0.22531468 0.11810228
v 0.15859460 -0.22327146 0.11810228
v 0.15556271 -0.22531468 0.51016706
v 0.15556271 -0.20046591 0.11810228
v 0.18015233 -0.20788440 0.08546830
v 0.16480944 -0.21885494 0.11810228
v 0.15859460 -0.22327146 0.51016706
v 0.15556271 -0.20063880 0.51016706
v 0.18015233 -0.15537352 0.08546830
v 0.15556271 -0.20046591 0.13152998
v 0.18533136 -0.20349931 0.08546830
v 0.16934110 -0.21501996 0.51016706
v 0.16480944 -0.21885494 0.51016706
v 0.15556271 -0.20062309 0.49387087
v 0.24538657 -0.06476436 0.51016706
v 0.22249093 -0.08389208 0.08546830
v 0.21575819 -0.09516126 0.08546830
v 0.15556271 -0.20056022 0.36695179
v 0.19482626 -0.19479204 0.08546830
v 0.18901064 -0.19823408 0.51016706
v 0.17358144 -0.21140503 0.51016706
v 0.26577904 -0.06476436 0.51016706
v 0.24537579 -0.06476436 0.48593063
v 0.26247741 -0.08389208 0.08546830
v 0.24535422 -0.06476436 0.43151298
v 0.24531106 -0.06476436 0.31365659
v 0.24526791 -0.06476436 0.19575860
v 0.24524633 -0.06476436 0.13227828
v 0.24524633 -0.06476436 0.11810228
v 0.20353351 -0.18533034 0.08546830
v 0.19826816 -0.18899243 0.51016706
v 0.19373651 -0.19369184 0.51016706
v 0.26544455 -0.06617889 0.51016706
v 0.26577904 -0.06476436 0.11810228
v 0.26162500 -0.08672116 0.08546830
v 0.26501297 -0.06798636 0.51016706
v 0.26335136 -0.07491761 0.51016706
v 0.26226160 -0.07944414 0.51016706
v 0.22004168 -0.16606116 0.08546830
v 0.20136479 -0.18537748 0.51016706
v 0.25852837 -0.09520841 0.08546830
v 0.26014682 -0.08610819 0.51016706
v 0.22047327 -0.16549534 0.08546830
v 0.21889798 -0.16478807 0.51016706
v 0.21505687 -0.16933032 0.51016706
v 0.20976993 -0.17553857 0.51016706
v 0.25125614 -0.11251295 0.08546830
v 0.25667256 -0.09516126 0.51016706
v 0.25425569 -0.10100803 0.51016706
v 0.24981034 -0.11174281 0.51016706
v 0.22499413 -0.15941281 0.08546830
v 0.22335410 -0.15856409 0.51016706
v 0.24695109 -0.12257191 0.08546830
v 0.24916296 -0.11328309 0.51016706
v 0.22649389 -0.15703953 0.08546830
v 0.22647231 -0.15392754 0.51016706
v 0.22397990 -0.15763678 0.51016706
v 0.24233312 -0.13127918 0.08546830
v 0.24596922 -0.12073299 0.51016706
v 0.24385446 -0.12525952 0.51016706
v 0.22867341 -0.15358176 0.08546830
v 0.23599959 -0.13841475 0.51016706
v 0.23070186 -0.15031260 0.08546830
v 0.23768277 -0.13896485 0.08546830
v 0.24028307 -0.13140492 0.51016706
f 1 2 7
f 1 7 3
f 1 3 8
f 1 8 14
f 1 14 18
f 1 18 10
f 1 10 4
f 1 4 9
f 1 9 5
f 1 5 2
f 2 6 13
f 2 13 7
f 2 5 6
f 3 7 13
f 3 13 12
f 3 12 21
f 3 21 20
f 3 20 32
f 3 32 31
f 3 31 40
f 3 40 46
f 3 46 45
f 3 45 44
f 3 44 52
f 3 52 57
f 3 57 56
f 3 56 62
f 3 62 65
f 3 65 60
f 3 60 59
f 3 59 54
f 3 54 50
f 3 50 49
f 3 49 48
f 3 48 42
f 3 42 38
f 3 38 37
f 3 37 36
f 3 36 33
f 3 33 22
f 3 22 15
f 3 15 8
f 4 10 9
f 5 9 17
f 5 17 16
f 5 16 24
f 5 24 35
f 5 35 41
f 5 41 47
f 5 47 53
f 5 53 58
f 5 58 64
f 5 64 63
f 5 63 61
f 5 61 55
f 5 55 51
f 5 51 43
f 5 43 39
f 5 39 30
f 5 30 19
f 5 19 11
f 5 11 12
f 5 12 13
f 5 13 6
f 8 15 16
f 8 16 17
f 8 17 9
f 8 9 14
f 9 10 18
f 9 18 14
f 11 19 20
f 11 20 21
f 11 21 12
f 15 22 34
f 15 34 29
f 15 29 28
f 15 28 27
f 15 27 26
f 15 26 25
f 15 25 23
f 15 23 16
f 16 23 25
f 16 25 26
f 16 26 27
f 16 27 28
f 16 28 29
f 16 29 34
f 16 34 24
f 19 30 31
f 19 31 32
f 19 32 20
f 22 33 24
f 22 24 34
f 24 33 36
f 24 36 37
f 24 37 38
f 24 38 35
f 30 39 31
f 31 39 40
f 35 38 42
f 35 42 41
f 39 43 44
f 39 44 45
f 39 45 46
f 39 46 40
f 41 42 48
f 41 48 49
f 41 49 50
f 41 50 47
f 43 51 44
f 44 51 52
f 47 50 54
f 47 54 53
f 51 55 56
f 51 56 57
f 51 57 52
f 53 54 59
f 53 59 60
f 53 60 58
f 55 61 56
f 56 61 63
f 56 63 64
f 56 64 62
f 58 60 65
f 58 65 64
f 62 64 65

