# https://github.com/mikedh/trimesh
v 0.24505940 -0.13036828 0.85629466
v 0.24329968 -0.13351043 0.85629466
v 0.24088011 -0.13036828 0.51016708
v 0.24078013 -0.13036828 0.90156627
v 0.24018023 -0.13141097 0.90156627
v 0.23654084 -0.13749801 0.90156627
v 0.23574098 -0.14527588 0.86115919
v 0.23906041 -0.14045698 0.85629466
v 0.24028020 -0.13141097 0.51016708
v 0.21764408 -0.13036828 0.51016708
v 0.23882047 -0.13036828 0.90686235
v 0.23622090 -0.13697666 0.90690156
v 0.22924209 -0.14941844 0.90156627
v 0.22586267 -0.16201523 0.85629466
v 0.23600094 -0.13841388 0.51016708
v 0.04077436 -0.25064357 0.51020632
v 0.21764408 -0.13036828 0.54237504
v 0.04079436 -0.25064357 0.51016708
v 0.23784062 -0.13141097 0.90792156
v 0.23818057 -0.13036828 0.90803920
v 0.22834224 -0.14795305 0.90772539
v 0.21840395 -0.16425559 0.90709773
v 0.22644258 -0.15394145 0.90156627
v 0.22332310 -0.15859127 0.90156627
v 0.21888387 -0.16481921 0.90156627
v 0.21742412 -0.17213210 0.85876617
v 0.22056358 -0.16852497 0.85594159
v 0.21888387 -0.16483329 0.51016708
v 0.22334311 -0.15859127 0.51016708
v 0.22398300 -0.15766130 0.51016708
v 0.22646256 -0.15395555 0.51016708
v 0.04077436 -0.25064357 0.53919739
v 0.04077436 -0.27082096 0.51016708
v 0.21780406 -0.13036828 0.89548559
v 0.23124176 -0.14018927 0.90854923
v 0.23218158 -0.13036828 0.91023611
v 0.23106179 -0.13141097 0.91043228
v 0.22038361 -0.15859127 0.90811768
v 0.21286490 -0.16742592 0.90847075
v 0.20980542 -0.17383704 0.90741153
v 0.19822740 -0.18901236 0.90156627
v 0.20664596 -0.17919137 0.90156627
v 0.21504452 -0.16934222 0.90156627
v 0.20060700 -0.19177407 0.85629466
v 0.21748411 -0.17221665 0.85272473
v 0.21748411 -0.17221665 0.85170472
v 0.21504452 -0.16935631 0.51016708
v 0.04077436 -0.25078449 0.89254332
v 0.04079436 -0.27082096 0.51016708
v 0.04077436 -0.27431539 0.85625545
v 0.04077436 -0.25079858 0.90156627
v 0.21784405 -0.13036828 0.90156627
v 0.21292489 -0.15859127 0.91054997
v 0.23106179 -0.13036828 0.91039301
v 0.22200333 -0.14045698 0.91062840
v 0.20406641 -0.17679601 0.90878461
v 0.20118690 -0.18340439 0.90764692
v 0.19370818 -0.19369035 0.90156627
v 0.19626774 -0.19629707 0.85629466
v 0.19254838 -0.19256312 0.90776461
v 0.19824740 -0.18901236 0.51016708
v 0.20212674 -0.18448935 0.51016708
v 0.21052530 -0.17465429 0.51016708
v 0.04985281 -0.26920057 0.51016708
v 0.05067267 -0.27266680 0.85633390
v 0.04079436 -0.27431539 0.85625545
v 0.04077436 -0.27059552 0.90156627
v 0.04077436 -0.25226396 0.90792156
v 0.21812399 -0.13036828 0.90313546
v 0.20386643 -0.16765138 0.91062840
v 0.19526791 -0.18616610 0.90901999
v 0.22260324 -0.13036828 0.90894151
v 0.04079436 -0.25823829 0.91035380
v 0.04985281 -0.25823829 0.91094226
v 0.18898898 -0.19821336 0.90156627
v 0.19174851 -0.20060872 0.85629466
v 0.18898898 -0.19825563 0.51016708
v 0.19372818 -0.19371853 0.51016708
v 0.18336995 -0.20120052 0.90764692
v 0.18614947 -0.19528257 0.90901999
v 0.07546842 -0.26305719 0.51016708
v 0.05453201 -0.27186365 0.85166551
v 0.05423206 -0.27180732 0.85935462
v 0.04079436 -0.27059552 0.90156627
v 0.05453201 -0.27186365 0.85331318
v 0.04077436 -0.26657978 0.90862771
v 0.04077436 -0.25825236 0.91035380
v 0.22194335 -0.13036828 0.90866692
v 0.19482798 -0.17671147 0.91062840
v 0.14045729 -0.22201197 0.91070687
v 0.05891125 -0.25823829 0.91082457
v 0.08610660 -0.24919228 0.91082457
v 0.04079436 -0.26657978 0.90862771
v 0.17381158 -0.20980973 0.90741153
v 0.16423322 -0.21839075 0.90709773
v 0.18444976 -0.20210229 0.90156627
v 0.17209188 -0.21741852 0.85833464
v 0.17217187 -0.21748898 0.85229318
v 0.17217187 -0.21748898 0.85170472
v 0.16933235 -0.21503724 0.51016708
v 0.17677108 -0.20407495 0.90878461
v 0.16741268 -0.21286734 0.90847075
v 0.16763264 -0.20387769 0.91062840
v 0.15857420 -0.21293778 0.91054997
v 0.07908781 -0.26218358 0.51016708
v 0.06796971 -0.26858060 0.85625545
v 0.05891125 -0.26698840 0.90156627
v 0.04985281 -0.26903151 0.90156627
v 0.05809140 -0.27097598 0.85633390
v 0.07386870 -0.26309945 0.90662697
v 0.06796971 -0.26380397 0.90745080
v 0.05891125 -0.26487486 0.90831385
v 0.04985281 -0.26583299 0.90862771
v 0.11326195 -0.24013218 0.91066766
v 0.06796971 -0.25823829 0.90996152
v 0.09514505 -0.24919228 0.91011842
v 0.15857420 -0.22034931 0.90807847
v 0.14789602 -0.22831037 0.90768618
v 0.13691790 -0.23621506 0.90690156
v 0.15385501 -0.22637999 0.90156627
v 0.15857420 -0.22325193 0.90156627
v 0.16477313 -0.21885574 0.90156627
v 0.16931235 -0.21502316 0.90156627
v 0.17915067 -0.20663940 0.90156627
v 0.16191362 -0.22580228 0.85629466
v 0.16849250 -0.22053249 0.85570621
v 0.16479313 -0.21886983 0.51016708
v 0.13139885 -0.23107207 0.91043228
v 0.14015734 -0.23122706 0.90854923
v 0.08610660 -0.25999958 0.51016708
v 0.09000593 -0.26259220 0.85625545
v 0.08546671 -0.26393079 0.85625545
v 0.07704815 -0.26625571 0.85625545
v 0.10044415 -0.25402527 0.90654849
v 0.09514505 -0.25512432 0.90760770
v 0.08610660 -0.25673062 0.90854923
v 0.07906781 -0.26204269 0.90156627
v 0.08610660 -0.25985869 0.90156627
v 0.11326195 -0.24676874 0.90815695
v 0.12256037 -0.24062533 0.90870613
v 0.14555642 -0.22919807 0.90796078
v 0.13139885 -0.23780726 0.90796078
v 0.11968086 -0.24548651 0.90713694
v 0.12511992 -0.24372523 0.90156627
v 0.13139885 -0.24010399 0.90156627
v 0.13741782 -0.23651096 0.90156627
v 0.14933577 -0.22919807 0.90156627
v 0.14519649 -0.23573598 0.86111998
v 0.14045729 -0.23897677 0.85625545
v 0.15387499 -0.22642226 0.51016708
v 0.15857420 -0.22328010 0.51016708
v 0.09334536 -0.25723787 0.51016708
v 0.09514505 -0.26050685 0.85625545
v 0.09514505 -0.25653334 0.90156627
v 0.09514505 -0.25653334 0.51016708
v 0.11460173 -0.25247534 0.85625545
v 0.12060070 -0.24589514 0.90156627
v 0.12234039 -0.24905137 0.85625545
v 0.12887927 -0.24578241 0.85625545
v 0.13341849 -0.24326025 0.85625545
v 0.13139885 -0.24020264 0.51016708
v 0.14555642 -0.23152296 0.51016708
v 0.09968428 -0.25465934 0.51016708
v 0.11326195 -0.24903727 0.51016708
v 0.12060070 -0.24590923 0.51016708
v 0.12513992 -0.24380976 0.51016708
f 1 2 3
f 1 3 10
f 1 10 17
f 1 17 34
f 1 34 52
f 1 52 69
f 1 69 88
f 1 88 72
f 1 72 54
f 1 54 36
f 1 36 20
f 1 20 11
f 1 11 4
f 1 4 2
f 2 4 5
f 2 5 6
f 2 6 7
f 2 7 8
f 2 8 9
f 2 9 3
f 3 9 15
f 3 15 31
f 3 31 30
f 3 30 29
f 3 29 28
f 3 28 47
f 3 47 63
f 3 63 62
f 3 62 61
f 3 61 78
f 3 78 77
f 3 77 100
f 3 100 127
f 3 127 151
f 3 151 150
f 3 150 162
f 3 162 161
f 3 161 166
f 3 166 165
f 3 165 164
f 3 164 163
f 3 163 155
f 3 155 152
f 3 152 130
f 3 130 105
f 3 105 81
f 3 81 64
f 3 64 49
f 3 49 33
f 3 33 18
f 3 18 10
f 4 11 12
f 4 12 5
f 5 12 6
f 6 13 7
f 6 12 13
f 7 14 8
f 7 13 14
f 8 14 15
f 8 15 9
f 10 16 32
f 10 32 17
f 10 18 16
f 11 19 12
f 11 20 19
f 12 19 21
f 12 21 22
f 12 22 23
f 12 23 13
f 13 23 14
f 14 23 24
f 14 24 25
f 14 25 26
f 14 26 27
f 14 27 28
f 14 28 29
f 14 29 30
f 14 30 31
f 14 31 15
f 16 18 33
f 16 33 50
f 16 50 67
f 16 67 86
f 16 86 87
f 16 87 68
f 16 68 51
f 16 51 48
f 16 48 32
f 17 32 34
f 19 20 35
f 19 35 21
f 20 36 37
f 20 37 35
f 21 35 38
f 21 38 22
f 22 38 39
f 22 39 40
f 22 40 41
f 22 41 42
f 22 42 43
f 22 43 25
f 22 25 24
f 22 24 23
f 25 43 26
f 26 44 45
f 26 45 27
f 26 43 42
f 26 42 41
f 26 41 44
f 27 45 46
f 27 46 28
f 28 46 47
f 32 48 34
f 33 49 66
f 33 66 50
f 34 48 51
f 34 51 52
f 35 37 53
f 35 53 38
f 36 54 37
f 37 55 53
f 37 54 55
f 38 53 39
f 39 53 56
f 39 56 57
f 39 57 40
f 40 57 41
f 41 58 59
f 41 59 44
f 41 57 60
f 41 60 58
f 44 59 61
f 44 61 46
f 44 46 45
f 46 61 62
f 46 62 63
f 46 63 47
f 49 64 65
f 49 65 66
f 50 66 84
f 50 84 67
f 51 68 69
f 51 69 52
f 53 55 70
f 53 70 71
f 53 71 56
f 54 72 73
f 54 73 74
f 54 74 55
f 55 74 70
f 56 71 57
f 57 71 60
f 58 75 59
f 58 60 75
f 59 76 77
f 59 77 78
f 59 78 61
f 59 75 76
f 60 79 75
f 60 71 80
f 60 80 79
f 64 81 82
f 64 82 65
f 65 83 84
f 65 84 66
f 65 82 85
f 65 85 83
f 67 84 93
f 67 93 86
f 68 87 73
f 68 73 72
f 68 72 88
f 68 88 69
f 70 89 71
f 70 74 90
f 70 90 89
f 71 89 80
f 73 87 74
f 74 91 92
f 74 92 90
f 74 87 86
f 74 86 93
f 74 93 91
f 75 79 94
f 75 94 95
f 75 95 96
f 75 96 97
f 75 97 76
f 76 97 98
f 76 98 99
f 76 99 77
f 77 99 100
f 79 80 101
f 79 101 102
f 79 102 94
f 80 89 103
f 80 103 104
f 80 104 101
f 81 105 82
f 82 105 106
f 82 106 85
f 83 107 108
f 83 108 84
f 83 85 109
f 83 109 106
f 83 106 110
f 83 110 107
f 84 108 110
f 84 110 111
f 84 111 112
f 84 112 113
f 84 113 93
f 85 106 109
f 89 90 103
f 90 92 114
f 90 114 104
f 90 104 103
f 91 115 116
f 91 116 92
f 91 93 113
f 91 113 112
f 91 112 115
f 92 116 114
f 94 102 95
f 95 102 117
f 95 117 118
f 95 118 119
f 95 119 120
f 95 120 121
f 95 121 122
f 95 122 123
f 95 123 124
f 95 124 96
f 96 124 97
f 97 125 126
f 97 126 98
f 97 124 123
f 97 123 122
f 97 122 125
f 98 126 99
f 99 127 100
f 99 126 127
f 101 104 102
f 102 104 117
f 104 114 128
f 104 128 129
f 104 129 117
f 105 130 131
f 105 131 132
f 105 132 133
f 105 133 106
f 106 133 110
f 107 110 108
f 110 134 135
f 110 135 136
f 110 136 111
f 110 133 132
f 110 132 137
f 110 137 138
f 110 138 134
f 111 136 112
f 112 136 115
f 114 116 139
f 114 139 140
f 114 140 128
f 115 136 116
f 116 136 139
f 117 129 141
f 117 141 118
f 118 141 142
f 118 142 119
f 119 142 143
f 119 143 144
f 119 144 145
f 119 145 146
f 119 146 147
f 119 147 120
f 120 147 125
f 120 125 121
f 121 125 122
f 125 148 149
f 125 149 150
f 125 150 151
f 125 151 127
f 125 127 126
f 125 147 148
f 128 140 142
f 128 142 129
f 129 142 141
f 130 152 131
f 131 153 134
f 131 134 154
f 131 154 138
f 131 138 137
f 131 137 132
f 131 152 155
f 131 155 153
f 134 143 135
f 134 138 154
f 134 153 156
f 134 156 157
f 134 157 143
f 135 143 139
f 135 139 136
f 139 142 140
f 139 143 142
f 143 157 144
f 144 157 158
f 144 158 159
f 144 159 160
f 144 160 145
f 145 160 146
f 146 160 148
f 146 148 147
f 148 160 149
f 149 160 161
f 149 161 162
f 149 162 150
f 153 155 156
f 155 163 156
f 156 163 164
f 156 164 165
f 156 165 158
f 156 158 157
f 158 165 166
f 158 166 159
f 159 166 160
f 160 166 161

