# https://github.com/mikedh/trimesh
v -0.16772995 -0.21811378 0.08581592
v -0.17051068 -0.21574366 0.08581592
v -0.16772995 -0.17564358 0.08581592
v -0.16772995 -0.21606394 0.51016706
v -0.16823553 -0.21563688 0.51016706
v -0.18604700 -0.20235561 0.08581592
v -0.18428797 -0.20192855 0.51016706
v -0.18880667 -0.19804240 0.51016706
v -0.16890965 -0.16887483 0.08581592
v -0.16772995 -0.18994978 0.51016706
v -0.18992318 -0.19900326 0.08581592
v -0.19354657 -0.19351567 0.51016706
v -0.19437868 -0.19475411 0.08581592
v -0.24100870 0.00002374 0.08581592
v -0.25391174 0.00000238 0.51016706
v -0.19807580 -0.18875404 0.51016706
v -0.19903431 -0.18988573 0.08581592
v -0.19477893 -0.19434841 0.08581592
v -0.27531500 0.00002374 0.08581592
v -0.25382748 0.00002374 0.10637717
v -0.27364024 0.00000238 0.51016706
v -0.19885525 -0.18785724 0.51016706
v -0.20231010 -0.18608498 0.08581592
v -0.27531500 -0.00006167 0.08581592
v -0.27365078 0.00002374 0.10637717
v -0.27364024 -0.00456706 0.51016706
v -0.21563447 -0.16819156 0.51016706
v -0.21603473 -0.17013463 0.08581592
v -0.21576087 -0.17045492 0.08581592
v -0.27530447 -0.00454571 0.08581592
v -0.27279759 -0.01543550 0.51016706
v -0.27529394 -0.00482329 0.08581592
v -0.21869960 -0.16456162 0.51016706
v -0.21975291 -0.16575736 0.08581592
v -0.27150202 -0.03194101 0.51016706
v -0.27456716 -0.01362053 0.08581592
v -0.22294444 -0.15856155 0.51016706
v -0.22468241 -0.15900995 0.08581592
v -0.27059616 -0.04080231 0.51016706
v -0.27376663 -0.02295159 0.08581592
v -0.27301879 -0.03159937 0.08581592
v -0.22626237 -0.15358641 0.51016706
v -0.22494572 -0.15860426 0.08581592
v -0.26895300 -0.04987714 0.51016706
v -0.27199708 -0.04080231 0.08581592
v -0.27161790 -0.04336462 0.08581592
v -0.27046978 -0.04977038 0.08581592
v -0.22682062 -0.15271096 0.51016706
v -0.22718927 -0.15508109 0.08581592
v -0.26461338 -0.06798409 0.51016706
v -0.26836315 -0.05918685 0.08581592
v -0.26623548 -0.06826168 0.08581592
v -0.23413060 -0.14077489 0.51016706
v -0.23737479 -0.13855423 0.08581592
v -0.22973829 -0.15098141 0.08581592
v -0.26206437 -0.07857496 0.51016706
v -0.26402352 -0.07675999 0.08581592
v -0.23987114 -0.13137978 0.51016706
v -0.24196721 -0.13086732 0.08581592
v -0.25973654 -0.08611240 0.51016706
v -0.26277008 -0.08128672 0.08581592
v -0.26131653 -0.08602699 0.08581592
v -0.24290466 -0.12610571 0.51016706
v -0.24445303 -0.12640463 0.08581592
v -0.24364197 -0.12480319 0.51016706
v -0.25626064 -0.09516588 0.51016706
v -0.26126384 -0.08617646 0.08581592
v -0.25799859 -0.09516588 0.08581592
v -0.24641218 -0.12245442 0.08581592
v -0.24407384 -0.12388503 0.51016706
v -0.24646484 -0.12234765 0.08581592
v -0.25581823 -0.09623350 0.51016706
v -0.25035155 -0.11350770 0.08581592
v -0.24877159 -0.11323012 0.51016706
v -0.24575913 -0.12025510 0.51016706
f 1 2 6
f 1 6 11
f 1 11 13
f 1 13 18
f 1 18 17
f 1 17 23
f 1 23 29
f 1 29 28
f 1 28 34
f 1 34 38
f 1 38 43
f 1 43 49
f 1 49 55
f 1 55 54
f 1 54 59
f 1 59 64
f 1 64 69
f 1 69 71
f 1 71 73
f 1 73 68
f 1 68 67
f 1 67 62
f 1 62 61
f 1 61 57
f 1 57 52
f 1 52 51
f 1 51 47
f 1 47 46
f 1 46 45
f 1 45 41
f 1 41 40
f 1 40 36
f 1 36 32
f 1 32 30
f 1 30 24
f 1 24 19
f 1 19 14
f 1 14 9
f 1 9 3
f 1 3 10
f 1 10 4
f 1 4 5
f 1 5 2
f 2 5 7
f 2 7 8
f 2 8 6
f 3 9 10
f 4 10 15
f 4 15 21
f 4 21 26
f 4 26 31
f 4 31 35
f 4 35 39
f 4 39 44
f 4 44 50
f 4 50 56
f 4 56 60
f 4 60 66
f 4 66 72
f 4 72 74
f 4 74 75
f 4 75 70
f 4 70 65
f 4 65 63
f 4 63 58
f 4 58 53
f 4 53 48
f 4 48 42
f 4 42 37
f 4 37 33
f 4 33 27
f 4 27 22
f 4 22 16
f 4 16 12
f 4 12 8
f 4 8 7
f 4 7 5
f 6 8 11
f 8 12 13
f 8 13 11
f 9 14 10
f 10 14 15
f 12 16 17
f 12 17 18
f 12 18 13
f 14 19 25
f 14 25 20
f 14 20 15
f 15 20 25
f 15 25 21
f 16 22 17
f 17 22 23
f 19 24 26
f 19 26 21
f 19 21 25
f 22 27 28
f 22 28 29
f 22 29 23
f 24 30 26
f 26 30 32
f 26 32 31
f 27 33 34
f 27 34 28
f 31 32 35
f 32 36 35
f 33 37 38
f 33 38 34
f 35 36 40
f 35 40 41
f 35 41 39
f 37 42 38
f 38 42 43
f 39 41 45
f 39 45 46
f 39 46 47
f 39 47 44
f 42 48 43
f 43 48 49
f 44 47 51
f 44 51 52
f 44 52 50
f 48 53 54
f 48 54 55
f 48 55 49
f 50 52 56
f 52 57 56
f 53 58 54
f 54 58 59
f 56 57 61
f 56 61 62
f 56 62 60
f 58 63 59
f 59 63 65
f 59 65 64
f 60 62 67
f 60 67 68
f 60 68 66
f 64 65 69
f 65 70 71
f 65 71 69
f 66 68 72
f 68 73 74
f 68 74 72
f 70 75 71
f 71 75 73
f 73 75 74

