# https://github.com/mikedh/trimesh
v 0.24883484 0.04977088 0.11809653
v 0.20154442 0.15425737 0.11809653
v 0.26939156 0.04977088 0.11809653
v 0.24883484 0.04977088 0.13141372
v 0.22629218 0.15425737 0.11809653
v 0.24885475 0.04977088 0.18579547
v 0.24888132 0.04977088 0.25829168
v 0.24896766 0.04977088 0.49385638
v 0.24897430 0.04977088 0.51016706
v 0.20171710 0.15425737 0.51016706
v 0.26938492 0.04984248 0.11809653
v 0.26939156 0.04977088 0.51016706
v 0.22649143 0.15396077 0.11809653
v 0.22629218 0.15425737 0.51016706
v 0.26836869 0.05407676 0.11809653
v 0.26938492 0.04984248 0.51016706
v 0.23509935 0.13991809 0.11809653
v 0.22649143 0.15396077 0.51016706
v 0.23289423 0.14351826 0.51016706
v 0.26503446 0.06796601 0.11809653
v 0.26503446 0.06796601 0.51016706
v 0.24031326 0.13138818 0.11809653
v 0.23956936 0.13261550 0.51016706
v 0.26227805 0.07944153 0.11809653
v 0.26227805 0.07944153 0.51016706
v 0.24221284 0.12812553 0.11809653
v 0.24031326 0.13138818 0.51016706
v 0.26129504 0.08255076 0.11809653
v 0.26017258 0.08608955 0.51016706
v 0.24387333 0.12526176 0.11809653
v 0.24316263 0.12648909 0.51016706
v 0.26017258 0.08608955 0.11809653
v 0.25669884 0.09515132 0.51016706
v 0.24486296 0.12314461 0.11809653
v 0.24387333 0.12526176 0.51016706
v 0.25669884 0.09515132 0.11809653
v 0.25621398 0.09632751 0.51016706
v 0.24598545 0.12073087 0.11809653
v 0.24429840 0.12435150 0.51016706
v 0.24598545 0.12073087 0.51016706
v 0.25556309 0.09789235 0.11809653
v 0.24918686 0.11326463 0.51016706
v 0.25239489 0.10553247 0.11809653
v 0.24769242 0.11675229 0.11809653
v 0.24854923 0.11475788 0.51016706
v 0.24918686 0.11326463 0.11809653
f 1 2 5
f 1 5 13
f 1 13 17
f 1 17 22
f 1 22 26
f 1 26 30
f 1 30 34
f 1 34 38
f 1 38 44
f 1 44 46
f 1 46 43
f 1 43 41
f 1 41 36
f 1 36 32
f 1 32 28
f 1 28 24
f 1 24 20
f 1 20 15
f 1 15 11
f 1 11 3
f 1 3 12
f 1 12 9
f 1 9 8
f 1 8 7
f 1 7 6
f 1 6 4
f 1 4 2
f 2 4 6
f 2 6 7
f 2 7 8
f 2 8 9
f 2 9 10
f 2 10 14
f 2 14 5
f 3 11 16
f 3 16 12
f 5 14 18
f 5 18 13
f 9 12 16
f 9 16 21
f 9 21 25
f 9 25 29
f 9 29 33
f 9 33 37
f 9 37 42
f 9 42 45
f 9 45 40
f 9 40 39
f 9 39 35
f 9 35 31
f 9 31 27
f 9 27 23
f 9 23 19
f 9 19 18
f 9 18 14
f 9 14 10
f 11 15 16
f 13 18 19
f 13 19 17
f 15 20 21
f 15 21 16
f 17 19 23
f 17 23 22
f 20 24 25
f 20 25 21
f 22 23 27
f 22 27 26
f 24 28 25
f 25 28 29
f 26 27 31
f 26 31 30
f 28 32 29
f 29 32 36
f 29 36 33
f 30 31 35
f 30 35 34
f 33 36 37
f 34 35 39
f 34 39 40
f 34 40 38
f 36 41 37
f 37 41 43
f 37 43 46
f 37 46 42
f 38 40 45
f 38 45 44
f 42 46 45
f 44 45 46

