# https://github.com/mikedh/trimesh
v 0.04077437 -0.25825795 0.91040960
v -0.09114037 -0.24055536 0.90860497
v -0.08607864 -0.24919671 0.91084115
v -0.04983308 -0.25825396 0.91091963
v 0.00452881 -0.26731517 0.91001731
v 0.04077437 -0.26659139 0.90864418
v 0.04077437 -0.25227177 0.90789877
v -0.09114037 -0.24919671 0.91040960
v -0.09114037 -0.23683649 0.90162168
v -0.05889770 -0.25825396 0.91080193
v -0.00453581 -0.26731517 0.90997805
v -0.00453581 -0.27283348 0.90750643
v 0.00452881 -0.27284147 0.90750643
v 0.01358051 -0.27249359 0.90707488
v 0.02264513 -0.27213771 0.90660412
v 0.02814588 -0.27192177 0.90625105
v 0.04077437 -0.27059817 0.90162168
v 0.04077437 -0.25080822 0.90162168
v -0.08607864 -0.25667042 0.90852649
v -0.06794941 -0.25825396 0.90989957
v -0.09114037 -0.25577070 0.90797725
v -0.09114037 -0.23680851 0.90001320
v -0.05889770 -0.26484793 0.90833032
v -0.04983308 -0.26579564 0.90864418
v -0.01360043 -0.27248160 0.90707488
v -0.00453581 -0.27381319 0.90162168
v 0.00452881 -0.27382918 0.90162168
v 0.00452881 -0.27741607 0.85630900
v 0.01358051 -0.27666831 0.85630900
v 0.03170975 -0.27514878 0.85630900
v 0.04077437 -0.27432103 0.85630900
v 0.04077437 -0.25079224 0.89255917
v -0.09114037 -0.23671253 0.89255917
v -0.07370841 -0.26308046 0.90660412
v -0.06794941 -0.26377227 0.90738880
v -0.09114037 -0.25785808 0.90162168
v -0.02801085 -0.27191378 0.90625105
v -0.02266505 -0.27212172 0.90656491
v -0.00453581 -0.27739609 0.85630900
v -0.00453581 -0.27382518 0.51016708
v 0.00452881 -0.27384117 0.51016708
v 0.01177275 -0.27328534 0.51016708
v 0.01358051 -0.27314540 0.51016708
v 0.02264513 -0.27243361 0.51016708
v 0.03316887 -0.27160586 0.51016708
v 0.04077437 -0.27082610 0.51016708
v 0.04077437 -0.25078824 0.88349661
v -0.09114037 -0.23669655 0.85630900
v -0.05889770 -0.26690730 0.90162168
v -0.04983308 -0.26894669 0.90162168
v -0.08607864 -0.25973349 0.90162168
v -0.07883469 -0.26200080 0.90162168
v -0.08520058 -0.26389223 0.85630900
v -0.07701402 -0.26615952 0.85630900
v -0.06794941 -0.26848681 0.85630900
v -0.05409422 -0.27178580 0.85795673
v -0.09114037 -0.26195282 0.85630900
v -0.08973290 -0.26251264 0.85630900
v -0.04076846 -0.27053019 0.90162168
v -0.04076846 -0.27425706 0.85630900
v -0.03170384 -0.27511678 0.85630900
v -0.03296927 -0.27158987 0.51016708
v -0.02266505 -0.27240161 0.51016708
v 0.03351751 -0.25158399 0.51016708
v 0.04077437 -0.25065626 0.51020630
v 0.04077437 -0.25076823 0.82912139
v -0.09114037 -0.23656859 0.51966116
v -0.09114037 -0.23661655 0.64645825
v -0.09114037 -0.23662055 0.65697236
v -0.05058201 -0.27261754 0.85548514
v -0.07886052 -0.26214075 0.51016708
v -0.05437830 -0.27184980 0.85175811
v -0.05437830 -0.27184980 0.85191504
v -0.05799382 -0.27093406 0.85548514
v -0.09114037 -0.25792605 0.51016708
v -0.08607864 -0.25987746 0.51016708
v -0.04076846 -0.27076212 0.51016708
v -0.09114037 -0.23656859 0.51016708
v 0.04077437 -0.25065626 0.51201097
v 0.04077437 -0.25066026 0.53013604
v -0.04983308 -0.26910662 0.51016708
v -0.04258913 -0.27043022 0.51016708
v -0.07432821 -0.26322843 0.51016708
f 1 2 3
f 1 3 4
f 1 4 5
f 1 5 6
f 1 6 17
f 1 17 31
f 1 31 46
f 1 46 65
f 1 65 79
f 1 79 80
f 1 80 66
f 1 66 47
f 1 47 32
f 1 32 18
f 1 18 7
f 1 7 2
f 2 8 3
f 2 7 9
f 2 9 22
f 2 22 33
f 2 33 48
f 2 48 69
f 2 69 68
f 2 68 67
f 2 67 78
f 2 78 75
f 2 75 57
f 2 57 36
f 2 36 21
f 2 21 8
f 3 8 10
f 3 10 4
f 4 10 11
f 4 11 5
f 5 11 12
f 5 12 13
f 5 13 6
f 6 13 14
f 6 14 15
f 6 15 16
f 6 16 17
f 7 18 9
f 8 19 20
f 8 20 10
f 8 21 19
f 9 18 22
f 10 20 23
f 10 23 24
f 10 24 11
f 11 24 12
f 12 24 25
f 12 25 26
f 12 26 27
f 12 27 13
f 13 27 14
f 14 27 15
f 15 27 16
f 16 27 28
f 16 28 29
f 16 29 30
f 16 30 31
f 16 31 17
f 18 32 33
f 18 33 22
f 19 21 34
f 19 34 35
f 19 35 23
f 19 23 20
f 21 36 34
f 23 35 37
f 23 37 24
f 24 37 38
f 24 38 25
f 25 38 37
f 25 37 26
f 26 37 39
f 26 39 28
f 26 28 27
f 28 39 40
f 28 40 41
f 28 41 42
f 28 42 43
f 28 43 44
f 28 44 45
f 28 45 29
f 29 45 30
f 30 45 31
f 31 45 46
f 32 47 48
f 32 48 33
f 34 49 50
f 34 50 37
f 34 37 35
f 34 36 51
f 34 51 52
f 34 52 53
f 34 53 54
f 34 54 55
f 34 55 56
f 34 56 49
f 36 57 58
f 36 58 51
f 37 50 59
f 37 59 60
f 37 60 61
f 37 61 39
f 39 61 62
f 39 62 63
f 39 63 40
f 40 63 62
f 40 62 77
f 40 77 82
f 40 82 81
f 40 81 83
f 40 83 71
f 40 71 76
f 40 76 75
f 40 75 78
f 40 78 64
f 40 64 46
f 40 46 45
f 40 45 44
f 40 44 43
f 40 43 42
f 40 42 41
f 46 64 65
f 47 66 67
f 47 67 68
f 47 68 69
f 47 69 48
f 49 56 50
f 50 56 70
f 50 70 59
f 51 58 52
f 52 58 53
f 53 58 71
f 53 71 54
f 54 71 55
f 55 72 73
f 55 73 74
f 55 74 56
f 55 71 72
f 56 74 73
f 56 73 70
f 57 75 58
f 58 75 76
f 58 76 71
f 59 70 60
f 60 70 77
f 60 77 62
f 60 62 61
f 64 78 65
f 65 78 67
f 65 67 79
f 66 80 67
f 67 80 79
f 70 73 72
f 70 72 81
f 70 81 82
f 70 82 77
f 71 83 72
f 72 83 81

