# https://github.com/mikedh/trimesh
v -0.27532100 0.00004510 0.08581392
v -0.24102096 0.00004510 0.08581392
v -0.27364427 0.00004510 0.51016706
v -0.27532100 0.00452067 0.08581392
v -0.17630741 0.16747657 0.08581392
v -0.17630741 0.18240886 0.51016706
v -0.25391133 0.00004510 0.51016706
v -0.27364427 0.00454129 0.51016706
v -0.27457472 0.01359554 0.08581392
v -0.27294647 0.01359554 0.51016706
v -0.27150234 0.03193092 0.51016706
v -0.17630741 0.21074723 0.08581392
v -0.17630741 0.20876725 0.51016706
v -0.27379936 0.02267042 0.08581392
v -0.27061069 0.04077892 0.51016706
v -0.27308214 0.03096156 0.08581392
v -0.27314029 0.03034282 0.08581392
v -0.18606725 0.20239421 0.08581392
v -0.18430331 0.20194046 0.51016706
v -0.26930227 0.04803882 0.51016706
v -0.27047499 0.04977130 0.08581392
v -0.27200632 0.04077892 0.08581392
v -0.19460592 0.19457745 0.08581392
v -0.18881979 0.19806302 0.51016706
v -0.26897272 0.04985380 0.51016706
v -0.26843965 0.05890805 0.08581392
v -0.20239830 0.18601819 0.08581392
v -0.19808536 0.18878190 0.51016706
v -0.19446054 0.19259747 0.51016706
v -0.19354950 0.19354621 0.51016706
v -0.19260936 0.19445371 0.51016706
v -0.26207201 0.07860466 0.51016706
v -0.26632681 0.06796229 0.08581392
v -0.21591866 0.17032278 0.08581392
v -0.20196216 0.18426509 0.51016706
v -0.25976532 0.08609143 0.51016706
v -0.26129665 0.08609143 0.08581392
v -0.26402979 0.07676905 0.08581392
v -0.21976639 0.16578534 0.08581392
v -0.21489130 0.16910592 0.51016706
v -0.25698371 0.09333071 0.51016706
v -0.25802076 0.09516630 0.08581392
v -0.21995053 0.16553785 0.08581392
v -0.21870995 0.16458911 0.51016706
v -0.25628589 0.09514568 0.51016706
v -0.25047067 0.11327481 0.08581392
v -0.25404704 0.10056998 0.51016706
v -0.24946271 0.11162483 0.51016706
v -0.22471900 0.15902043 0.08581392
v -0.22298413 0.15856668 0.51016706
v -0.24646787 0.12241156 0.08581392
v -0.24877458 0.11327481 0.51016706
v -0.24577974 0.12030783 0.51016706
v -0.23022406 0.15021368 0.08581392
v -0.22626972 0.15363738 0.51016706
v -0.24199016 0.13088832 0.08581392
v -0.24366689 0.12482465 0.51016706
v -0.23738645 0.13860196 0.08581392
v -0.22849889 0.15000742 0.51016706
v -0.23990638 0.13138332 0.51016706
f 1 2 7
f 1 7 3
f 1 3 8
f 1 8 4
f 1 4 9
f 1 9 14
f 1 14 17
f 1 17 16
f 1 16 22
f 1 22 21
f 1 21 26
f 1 26 33
f 1 33 38
f 1 38 37
f 1 37 42
f 1 42 46
f 1 46 51
f 1 51 56
f 1 56 58
f 1 58 54
f 1 54 49
f 1 49 43
f 1 43 39
f 1 39 34
f 1 34 27
f 1 27 23
f 1 23 18
f 1 18 12
f 1 12 5
f 1 5 2
f 2 5 6
f 2 6 7
f 3 7 6
f 3 6 13
f 3 13 19
f 3 19 24
f 3 24 31
f 3 31 30
f 3 30 29
f 3 29 28
f 3 28 35
f 3 35 40
f 3 40 44
f 3 44 50
f 3 50 55
f 3 55 59
f 3 59 60
f 3 60 57
f 3 57 53
f 3 53 52
f 3 52 48
f 3 48 47
f 3 47 45
f 3 45 41
f 3 41 36
f 3 36 32
f 3 32 25
f 3 25 20
f 3 20 15
f 3 15 11
f 3 11 10
f 3 10 8
f 4 8 10
f 4 10 11
f 4 11 9
f 5 12 13
f 5 13 6
f 9 11 14
f 11 15 16
f 11 16 17
f 11 17 14
f 12 18 19
f 12 19 13
f 15 20 21
f 15 21 22
f 15 22 16
f 18 23 24
f 18 24 19
f 20 25 21
f 21 25 26
f 23 27 28
f 23 28 29
f 23 29 30
f 23 30 31
f 23 31 24
f 25 32 33
f 25 33 26
f 27 34 28
f 28 34 35
f 32 36 37
f 32 37 38
f 32 38 33
f 34 39 40
f 34 40 35
f 36 41 42
f 36 42 37
f 39 43 44
f 39 44 40
f 41 45 42
f 42 45 47
f 42 47 48
f 42 48 46
f 43 49 44
f 44 49 50
f 46 48 52
f 46 52 53
f 46 53 51
f 49 54 55
f 49 55 50
f 51 53 57
f 51 57 56
f 54 58 55
f 55 58 59
f 56 57 60
f 56 60 58
f 58 60 59

