# https://github.com/mikedh/trimesh
v 0.00030008 0.26730434 0.90997151
v -0.00455069 0.26730434 0.90997151
v -0.04985636 0.25824561 0.91091293
v -0.22197491 0.14046810 0.91067755
v -0.23052947 0.13195064 0.91036374
v 0.00030008 0.26324501 0.90934384
v 0.00030008 0.27284496 0.90750017
v -0.05891272 0.25824561 0.91079524
v -0.00455069 0.27284496 0.90750017
v -0.04985636 0.26579456 0.90859854
v -0.08608179 0.24918691 0.91079524
v -0.16763679 0.20389334 0.91063833
v -0.20386221 0.16765849 0.91063833
v -0.21294246 0.15858553 0.91052064
v -0.23105516 0.13195064 0.91024605
v -0.22161649 0.13195064 0.90899077
v 0.00030008 0.25855899 0.90859854
v 0.00030008 0.27385624 0.90157685
v -0.05891272 0.26485449 0.90828474
v -0.06796908 0.25824561 0.90989303
v -0.09516204 0.24918691 0.91004993
v -0.00455069 0.27384198 0.90157685
v -0.01360705 0.27248889 0.90706867
v -0.02820713 0.27191915 0.90624489
v -0.14044382 0.22199652 0.91067755
v -0.11327475 0.24012818 0.91063833
v -0.15858042 0.21293781 0.91055991
v -0.18606014 0.19523344 0.90899077
v -0.19521208 0.18608927 0.90899077
v -0.20400558 0.17671721 0.90875544
v -0.21279909 0.16733089 0.90840237
v -0.22015886 0.15858553 0.90804935
v -0.22276348 0.15026746 0.90903004
v -0.23115076 0.14006930 0.90844159
v -0.23726798 0.13195064 0.90789245
v -0.22099520 0.13195064 0.90879466
v -0.22020666 0.13195064 0.90848085
v 0.00030008 0.25655068 0.90534266
v 0.00030008 0.27744554 0.85626933
v -0.08608179 0.25667885 0.90848085
v -0.06796908 0.26378626 0.90738248
v -0.11327475 0.24672283 0.90808857
v -0.00455069 0.27743130 0.85626933
v -0.07377567 0.26308832 0.90655870
v -0.03174365 0.27515238 0.85626933
v -0.04080001 0.27428352 0.85626933
v -0.04080001 0.27056603 0.90157685
v -0.04985636 0.26897081 0.90157685
v -0.13138747 0.23105522 0.91036374
v -0.12245059 0.24059822 0.90867697
v -0.12613048 0.23668131 0.90938306
v -0.14008539 0.23116919 0.90848085
v -0.15028872 0.22277990 0.90906925
v -0.15858042 0.22020187 0.90804935
v -0.16732614 0.21280962 0.90840237
v -0.17671704 0.20402153 0.90875544
v -0.18326438 0.20110167 0.90761786
v -0.19244021 0.19247025 0.90777476
v -0.20106645 0.18326911 0.90761786
v -0.20969268 0.17369764 0.90734326
v -0.21827114 0.16411192 0.90702940
v -0.22821163 0.14773217 0.90765707
v -0.23750693 0.13195064 0.90773555
v -0.23609710 0.13677910 0.90679408
v -0.21719584 0.13195064 0.90510730
v 0.00030008 0.25422903 0.90157685
v 0.00030008 0.27385624 0.51016709
v -0.00455069 0.27385624 0.51016709
v -0.09516204 0.25506937 0.90753938
v -0.13138747 0.23770683 0.90789245
v -0.12610658 0.23941602 0.90836316
v -0.11955924 0.24545519 0.90710788
v -0.02961697 0.27189066 0.51016709
v -0.03324907 0.27160580 0.51016709
v -0.10034734 0.25398687 0.90648022
v -0.05891272 0.26693401 0.90157685
v -0.05418144 0.27179095 0.85850529
v -0.06796908 0.26851500 0.85626933
v -0.07702543 0.26619335 0.85626933
v -0.08526935 0.26390019 0.85626933
v -0.07893707 0.26200583 0.90157685
v -0.08608179 0.25976965 0.90157685
v -0.03929460 0.27096485 0.51016709
v -0.04080001 0.27079393 0.51016709
v -0.05064492 0.27263132 0.85579862
v -0.14777971 0.22823507 0.90769628
v -0.16410026 0.21830752 0.90702940
v -0.17368232 0.20970459 0.90734326
v -0.18878421 0.19808210 0.90157685
v -0.19351550 0.19355273 0.90157685
v -0.19805563 0.18879548 0.90157685
v -0.20646680 0.17896763 0.90157685
v -0.21485408 0.16912555 0.90157685
v -0.21870126 0.16459619 0.90157685
v -0.22290685 0.15858553 0.90157685
v -0.22620441 0.15364312 0.90157685
v -0.23944248 0.13195064 0.90212604
v -0.22902407 0.14909952 0.90157685
v -0.23561918 0.14506868 0.86089816
v -0.21650287 0.13195064 0.90157685
v 0.00030008 0.25410084 0.89251534
v 0.00030008 0.25401536 0.51016709
v -0.13681172 0.23612583 0.90679408
v -0.12041948 0.24583975 0.90157685
v -0.12491181 0.24363203 0.90157685
v -0.09516204 0.25640823 0.90157685
v -0.08980947 0.26251861 0.85626933
v -0.09516204 0.26036788 0.85626933
v -0.11444562 0.25239165 0.85626933
v -0.05446818 0.27184794 0.85246429
v -0.05805249 0.27095059 0.85579862
v -0.05446818 0.27184794 0.85171898
v -0.07896096 0.26214826 0.51016709
v -0.04985636 0.26914170 0.51016709
v -0.15368187 0.22625526 0.90157685
v -0.15858042 0.22297931 0.90157685
v -0.16460207 0.21872057 0.90157685
v -0.17444697 0.21034553 0.90157685
v -0.18426797 0.20195626 0.90157685
v -0.18154391 0.20866483 0.86125120
v -0.19155608 0.20044647 0.85626933
v -0.19607232 0.19608804 0.85626933
v -0.20042128 0.19155867 0.85626933
v -0.20866518 0.18154567 0.86125120
v -0.21729143 0.17197420 0.85626933
v -0.22111469 0.16744484 0.85626933
v -0.22563091 0.16167632 0.85626933
v -0.24309845 0.13317556 0.85626933
v -0.24376754 0.13195064 0.85626933
v -0.23867778 0.14046810 0.85626933
v -0.21647899 0.13195064 0.89922320
v -0.21645509 0.13195064 0.88345383
v 0.00030008 0.25401536 0.72983983
v -0.21631171 0.13195064 0.51016709
v -0.12613048 0.24293413 0.90157685
v -0.13138747 0.23988605 0.90157685
v -0.13724184 0.23638223 0.90157685
v -0.14510342 0.23565580 0.86093737
v -0.14914175 0.22908967 0.90157685
v -0.12230722 0.24890203 0.85626933
v -0.12613048 0.24700769 0.85626933
v -0.12871118 0.24569732 0.85626933
v -0.13322741 0.24314777 0.85626933
v -0.08608179 0.25991208 0.51016709
v -0.09516204 0.25640823 0.51016709
v -0.10068188 0.25412933 0.51016709
v -0.11327475 0.24890203 0.51016709
v -0.12041948 0.24583975 0.51016709
v -0.05712057 0.26740404 0.51016709
v -0.16173462 0.22568552 0.85626933
v -0.16744563 0.22115617 0.85626933
v -0.17196186 0.21731050 0.85626933
v -0.18880811 0.19809634 0.51016709
v -0.19353940 0.19356698 0.51016709
v -0.19805563 0.18880973 0.51016709
v -0.20283470 0.18322637 0.51016709
v -0.21124588 0.17338428 0.51016709
v -0.21485408 0.16913978 0.51016709
v -0.21870126 0.16461043 0.51016709
v -0.22295462 0.15858553 0.51016709
v -0.22362370 0.15760274 0.51016709
v -0.22627609 0.15364312 0.51016709
v -0.23958582 0.13195064 0.51016709
v -0.22849837 0.15002533 0.51016709
v -0.21643119 0.13195064 0.82912407
v -0.21635950 0.13195064 0.66609551
v -0.21631171 0.13195064 0.52801549
v -0.14044382 0.23876083 0.85626933
v -0.12493571 0.24371748 0.51016709
v -0.13138747 0.23998575 0.51016709
v -0.14768412 0.23000125 0.51016709
v -0.15368187 0.22631223 0.51016709
v -0.15858042 0.22303628 0.51016709
v -0.16460207 0.21872057 0.51016709
v -0.16914219 0.21488914 0.51016709
v -0.18429187 0.20197051 0.51016709
v -0.13814986 0.23585521 0.51016709
f 1 2 3
f 1 3 4
f 1 4 5
f 1 5 6
f 1 6 17
f 1 17 38
f 1 38 66
f 1 66 101
f 1 101 133
f 1 133 102
f 1 102 67
f 1 67 39
f 1 39 18
f 1 18 7
f 1 7 9
f 1 9 2
f 2 8 3
f 2 9 10
f 2 10 8
f 3 8 11
f 3 11 12
f 3 12 13
f 3 13 4
f 4 13 14
f 4 14 5
f 5 14 15
f 5 15 35
f 5 35 63
f 5 63 97
f 5 97 129
f 5 129 163
f 5 163 134
f 5 134 167
f 5 167 166
f 5 166 165
f 5 165 132
f 5 132 131
f 5 131 100
f 5 100 65
f 5 65 37
f 5 37 36
f 5 36 16
f 5 16 17
f 5 17 6
f 7 18 9
f 8 10 19
f 8 19 20
f 8 20 21
f 8 21 11
f 9 18 22
f 9 22 23
f 9 23 10
f 10 23 24
f 10 24 19
f 11 25 12
f 11 21 26
f 11 26 25
f 12 25 27
f 12 27 28
f 12 28 29
f 12 29 13
f 13 29 14
f 14 29 30
f 14 30 31
f 14 31 32
f 14 32 33
f 14 33 34
f 14 34 15
f 15 34 35
f 16 36 17
f 17 36 37
f 17 37 38
f 18 39 43
f 18 43 22
f 19 40 20
f 19 24 41
f 19 41 40
f 20 40 21
f 21 40 42
f 21 42 26
f 22 24 23
f 22 43 24
f 24 44 41
f 24 43 45
f 24 45 46
f 24 46 47
f 24 47 48
f 24 48 44
f 25 26 27
f 26 49 27
f 26 42 50
f 26 50 51
f 26 51 49
f 27 49 52
f 27 52 53
f 27 53 54
f 27 54 55
f 27 55 56
f 27 56 28
f 28 56 57
f 28 57 58
f 28 58 29
f 29 58 59
f 29 59 30
f 30 59 31
f 31 59 60
f 31 60 61
f 31 61 32
f 32 34 33
f 32 61 62
f 32 62 34
f 34 62 35
f 35 62 64
f 35 64 63
f 37 65 66
f 37 66 38
f 39 67 68
f 39 68 43
f 40 41 44
f 40 44 69
f 40 69 42
f 42 70 71
f 42 71 50
f 42 69 72
f 42 72 70
f 43 68 73
f 43 73 74
f 43 74 45
f 44 75 69
f 44 48 76
f 44 76 77
f 44 77 78
f 44 78 79
f 44 79 80
f 44 80 81
f 44 81 82
f 44 82 75
f 45 74 46
f 46 74 83
f 46 83 84
f 46 84 85
f 46 85 47
f 47 85 77
f 47 77 48
f 48 77 76
f 49 51 70
f 49 70 52
f 50 71 51
f 51 71 70
f 52 70 86
f 52 86 54
f 52 54 53
f 54 86 87
f 54 87 55
f 55 87 88
f 55 88 57
f 55 57 56
f 57 88 89
f 57 89 58
f 58 89 90
f 58 90 91
f 58 91 59
f 59 91 60
f 60 91 61
f 61 64 62
f 61 91 92
f 61 92 93
f 61 93 94
f 61 94 95
f 61 95 96
f 61 96 64
f 63 64 97
f 64 96 98
f 64 98 99
f 64 99 97
f 65 100 66
f 66 100 101
f 67 102 134
f 67 134 163
f 67 163 164
f 67 164 162
f 67 162 161
f 67 161 160
f 67 160 159
f 67 159 158
f 67 158 157
f 67 157 156
f 67 156 155
f 67 155 154
f 67 154 153
f 67 153 176
f 67 176 175
f 67 175 174
f 67 174 173
f 67 173 172
f 67 172 171
f 67 171 177
f 67 177 170
f 67 170 169
f 67 169 148
f 67 148 147
f 67 147 146
f 67 146 145
f 67 145 144
f 67 144 113
f 67 113 149
f 67 149 114
f 67 114 84
f 67 84 83
f 67 83 74
f 67 74 73
f 67 73 68
f 69 75 72
f 70 72 103
f 70 103 86
f 72 75 104
f 72 104 105
f 72 105 103
f 75 82 106
f 75 106 107
f 75 107 108
f 75 108 109
f 75 109 104
f 77 85 110
f 77 110 111
f 77 111 78
f 78 111 110
f 78 110 112
f 78 112 113
f 78 113 79
f 79 113 80
f 80 113 107
f 80 107 81
f 81 107 82
f 82 107 106
f 84 114 85
f 85 112 110
f 85 114 112
f 86 103 87
f 87 103 115
f 87 115 116
f 87 116 117
f 87 117 118
f 87 118 119
f 87 119 89
f 87 89 88
f 89 119 120
f 89 120 121
f 89 121 90
f 90 121 122
f 90 122 123
f 90 123 91
f 91 123 124
f 91 124 92
f 92 124 93
f 93 124 94
f 94 124 125
f 94 125 126
f 94 126 127
f 94 127 95
f 95 127 96
f 96 127 99
f 96 99 98
f 97 99 128
f 97 128 129
f 99 127 130
f 99 130 128
f 100 131 101
f 101 131 132
f 101 132 133
f 102 133 167
f 102 167 134
f 103 105 135
f 103 135 136
f 103 136 137
f 103 137 138
f 103 138 139
f 103 139 115
f 104 109 140
f 104 140 105
f 105 140 141
f 105 141 142
f 105 142 143
f 105 143 135
f 107 113 144
f 107 144 145
f 107 145 108
f 108 145 146
f 108 146 109
f 109 146 147
f 109 147 148
f 109 148 140
f 112 114 149
f 112 149 113
f 115 139 138
f 115 138 150
f 115 150 116
f 116 150 117
f 117 150 151
f 117 151 120
f 117 120 118
f 118 120 119
f 120 151 152
f 120 152 121
f 121 152 153
f 121 153 154
f 121 154 122
f 122 154 123
f 123 125 124
f 123 154 155
f 123 155 125
f 125 155 156
f 125 156 157
f 125 157 158
f 125 158 159
f 125 159 126
f 126 159 127
f 127 159 160
f 127 160 161
f 127 161 162
f 127 162 130
f 128 130 163
f 128 163 129
f 130 162 164
f 130 164 163
f 132 165 133
f 133 166 167
f 133 165 166
f 135 143 136
f 136 143 138
f 136 138 137
f 138 143 168
f 138 168 150
f 140 148 169
f 140 169 141
f 141 169 142
f 142 169 143
f 143 169 170
f 143 170 168
f 150 168 171
f 150 171 172
f 150 172 173
f 150 173 174
f 150 174 151
f 151 174 175
f 151 175 152
f 152 175 176
f 152 176 153
f 168 170 177
f 168 177 171

