# https://github.com/mikedh/trimesh
v 0.25415963 0.00006606 0.51016708
v 0.21672642 0.13192894 0.51016708
v 0.27405555 0.00006606 0.51016708
v 0.25417157 0.00006606 0.54378465
v 0.23999605 0.13192894 0.51016708
v 0.25423128 0.00006606 0.71132336
v 0.25424921 0.00006606 0.76122017
v 0.25428502 0.00006606 0.86089610
v 0.25429698 0.00006606 0.89255231
v 0.21680404 0.13192894 0.69614250
v 0.27405555 0.00453204 0.51016708
v 0.27772184 0.00006606 0.59893789
v 0.27772184 0.09185119 0.65699391
v 0.24032444 0.13138683 0.51016708
v 0.24421766 0.13192894 0.85630652
v 0.27772184 0.09604613 0.71132336
v 0.25447014 0.00006606 0.90161374
v 0.21691152 0.13192894 0.90161374
v 0.21688763 0.13192894 0.89255231
v 0.21686375 0.13192894 0.83818363
v 0.21684584 0.13192894 0.79581841
v 0.27391822 0.00635200 0.51016708
v 0.27772184 0.08251908 0.63192783
v 0.27772184 0.07375490 0.62376860
v 0.27772184 0.06848864 0.62074811
v 0.27772184 0.03833675 0.60513574
v 0.27772184 0.03216697 0.60250754
v 0.27772184 0.02265416 0.60062463
v 0.27772184 0.01359310 0.59956551
v 0.27772184 0.00453204 0.59893789
v 0.27772184 0.00006606 0.72603351
v 0.27772184 0.09101221 0.65405187
v 0.24599109 0.12072524 0.51016708
v 0.24430721 0.12435224 0.51016708
v 0.24388327 0.12525577 0.51016708
v 0.24317270 0.12648198 0.51016708
v 0.23990050 0.13192894 0.90161374
v 0.24022295 0.13138683 0.90161374
v 0.24378773 0.12524286 0.90161374
v 0.24598512 0.12071234 0.90161374
v 0.25408799 0.10055083 0.90667406
v 0.25668545 0.09514260 0.90161374
v 0.26004122 0.08608155 0.90161374
v 0.26214904 0.07940838 0.90161374
v 0.26317013 0.07410340 0.90671328
v 0.27772184 0.09324520 0.71889419
v 0.25661974 0.00006606 0.90518340
v 0.22056587 0.13192894 0.90847847
v 0.27252692 0.02412561 0.51016708
v 0.27772184 0.08309992 0.63283004
v 0.27178053 0.03359971 0.51016708
v 0.27170889 0.03450323 0.51016708
v 0.27102219 0.04078918 0.51016708
v 0.26938014 0.04985023 0.51016708
v 0.27772184 0.00453204 0.72603351
v 0.27765019 0.00006606 0.85630652
v 0.27772184 0.08868886 0.64699101
v 0.25669738 0.09514260 0.51016708
v 0.25621371 0.09631718 0.51016708
v 0.25427308 0.10100260 0.51016708
v 0.24919161 0.11326471 0.51016708
v 0.23772104 0.13192894 0.90789008
v 0.24554922 0.11974428 0.90722320
v 0.25521056 0.09514260 0.90769396
v 0.25682277 0.08608155 0.90855695
v 0.26391054 0.06795943 0.90753706
v 0.27198953 0.02904336 0.90636020
v 0.26919501 0.04985023 0.90161374
v 0.26715887 0.05891129 0.90161374
v 0.27772184 0.08608155 0.72160086
v 0.27082516 0.04078918 0.90161374
v 0.27450935 0.04078918 0.85630652
v 0.27536921 0.03172812 0.85630652
v 0.27689184 0.01359310 0.85630652
v 0.27765019 0.00453204 0.85630652
v 0.25870966 0.00006606 0.90863538
v 0.22167651 0.13192894 0.90894918
v 0.26895021 0.05165728 0.51016708
v 0.26249536 0.07853067 0.51016708
v 0.26227443 0.07943419 0.51016708
v 0.26185646 0.08076366 0.51016708
v 0.26017261 0.08608155 0.51016708
v 0.27772184 0.00938526 0.72583737
v 0.27404361 0.00006606 0.90161374
v 0.23787627 0.13138683 0.90796855
v 0.23108707 0.13192894 0.91036136
v 0.24684496 0.11326471 0.90820388
v 0.24919161 0.09514260 0.91020446
v 0.25824988 0.06795943 0.91004756
v 0.26495550 0.05891129 0.90836078
v 0.26591088 0.04985023 0.90863538
v 0.27224031 0.02265416 0.90675249
v 0.27404361 0.00453204 0.90161374
v 0.26731409 0.00006606 0.91012604
v 0.23107513 0.12232578 0.91020446
v 0.23107513 0.13138683 0.91047905
v 0.27295088 0.00006606 0.90761548
v 0.24065882 0.12259683 0.90879233
v 0.24013337 0.11326471 0.91067522
v 0.24919161 0.08608155 0.91083213
v 0.25824988 0.05891129 0.91087134
v 0.26731409 0.01359310 0.90973375
v 0.27295088 0.00453204 0.90761548
v 0.27259859 0.01359310 0.90722320
v 0.26731409 0.00453204 0.91012604
v 0.25824988 0.04985023 0.91087134
v 0.27017429 0.00006606 0.90887076
f 1 2 5
f 1 5 14
f 1 14 36
f 1 36 35
f 1 35 34
f 1 34 33
f 1 33 61
f 1 61 60
f 1 60 59
f 1 59 58
f 1 58 82
f 1 82 81
f 1 81 80
f 1 80 79
f 1 79 78
f 1 78 54
f 1 54 53
f 1 53 52
f 1 52 51
f 1 51 49
f 1 49 22
f 1 22 11
f 1 11 3
f 1 3 12
f 1 12 31
f 1 31 56
f 1 56 84
f 1 84 97
f 1 97 107
f 1 107 94
f 1 94 76
f 1 76 47
f 1 47 17
f 1 17 9
f 1 9 8
f 1 8 7
f 1 7 6
f 1 6 4
f 1 4 2
f 2 4 6
f 2 6 7
f 2 7 8
f 2 8 9
f 2 9 10
f 2 10 21
f 2 21 20
f 2 20 19
f 2 19 18
f 2 18 48
f 2 48 77
f 2 77 86
f 2 86 62
f 2 62 37
f 2 37 15
f 2 15 5
f 3 11 30
f 3 30 12
f 5 13 14
f 5 15 16
f 5 16 13
f 9 17 18
f 9 18 19
f 9 19 20
f 9 20 21
f 9 21 10
f 11 22 23
f 11 23 24
f 11 24 25
f 11 25 26
f 11 26 27
f 11 27 28
f 11 28 29
f 11 29 30
f 12 30 29
f 12 29 28
f 12 28 27
f 12 27 26
f 12 26 25
f 12 25 24
f 12 24 23
f 12 23 50
f 12 50 57
f 12 57 32
f 12 32 13
f 12 13 16
f 12 16 46
f 12 46 70
f 12 70 83
f 12 83 55
f 12 55 31
f 13 32 33
f 13 33 34
f 13 34 35
f 13 35 36
f 13 36 14
f 15 37 38
f 15 38 39
f 15 39 16
f 16 39 40
f 16 40 41
f 16 41 42
f 16 42 43
f 16 43 44
f 16 44 45
f 16 45 46
f 17 47 48
f 17 48 18
f 22 49 23
f 23 49 51
f 23 51 52
f 23 52 53
f 23 53 54
f 23 54 50
f 31 55 75
f 31 75 56
f 32 57 58
f 32 58 59
f 32 59 60
f 32 60 61
f 32 61 33
f 37 62 63
f 37 63 38
f 38 63 39
f 39 63 40
f 40 63 41
f 41 63 64
f 41 64 45
f 41 45 43
f 41 43 42
f 43 45 44
f 45 64 65
f 45 65 66
f 45 66 67
f 45 67 68
f 45 68 69
f 45 69 46
f 46 69 68
f 46 68 71
f 46 71 72
f 46 72 73
f 46 73 74
f 46 74 75
f 46 75 70
f 47 76 48
f 48 76 77
f 50 54 78
f 50 78 79
f 50 79 80
f 50 80 81
f 50 81 82
f 50 82 57
f 55 83 75
f 56 75 93
f 56 93 84
f 57 82 58
f 62 85 63
f 62 86 85
f 63 85 87
f 63 87 64
f 64 87 65
f 65 88 89
f 65 89 90
f 65 90 66
f 65 87 88
f 66 90 67
f 67 71 68
f 67 90 91
f 67 91 92
f 67 92 93
f 67 93 75
f 67 75 74
f 67 74 73
f 67 73 72
f 67 72 71
f 70 75 83
f 76 94 95
f 76 95 77
f 77 95 96
f 77 96 86
f 84 93 103
f 84 103 97
f 85 86 98
f 85 98 87
f 86 96 98
f 87 98 99
f 87 99 88
f 88 99 100
f 88 100 101
f 88 101 89
f 89 101 90
f 90 101 91
f 91 101 102
f 91 102 103
f 91 103 104
f 91 104 92
f 92 104 93
f 93 104 103
f 94 105 101
f 94 101 106
f 94 106 95
f 94 107 105
f 95 106 96
f 96 106 100
f 96 100 99
f 96 99 98
f 97 103 107
f 100 106 101
f 101 105 102
f 102 105 103
f 103 105 107

