# https://github.com/mikedh/trimesh
v 0.22249829 -0.08386458 0.08546830
v 0.26247822 -0.08386458 0.08546830
v 0.23954670 -0.08386458 0.11810228
v 0.24540366 -0.06472708 0.51016706
v 0.24898264 0.04977089 0.51016706
v 0.22323498 -0.07701014 0.08546830
v 0.26086376 -0.08386458 0.11810228
v 0.26452633 -0.07706246 0.08546830
v 0.26579594 -0.06472708 0.51016706
v 0.26939580 0.04977089 0.51016706
v 0.24897219 0.04977089 0.48472505
v 0.23421222 0.01358885 0.08546830
v 0.26471442 -0.07634302 0.08546830
v 0.26936968 -0.04982783 0.51016706
v 0.26685135 -0.06795810 0.08546830
v 0.27102070 0.04075809 0.51016706
v 0.26939580 0.04977089 0.11810228
v 0.24885723 0.04977089 0.16765601
v 0.27513783 0.01358885 0.08546830
v 0.24884157 0.04977089 0.11810228
v 0.26970407 -0.04800957 0.51016706
v 0.26892558 -0.05889296 0.08546830
v 0.27080649 -0.05041647 0.08546830
v 0.27098414 -0.04957929 0.08546830
v 0.27102070 0.04075809 0.11810228
v 0.27170516 0.03449229 0.51016706
v 0.27587451 0.00453680 0.08546830
v 0.27101025 -0.04076270 0.51016706
v 0.27255679 -0.04076270 0.08546830
v 0.27206566 0.02995318 0.51016706
v 0.27586930 -0.00455449 0.08546830
v 0.27335094 0.01358885 0.51016706
v 0.27405630 0.00451064 0.51016706
v 0.27405630 -0.00454141 0.51016706
v 0.27115133 -0.03950692 0.51016706
v 0.27359129 -0.03189378 0.08546830
v 0.27518484 -0.01304406 0.08546830
v 0.27349202 -0.01177520 0.51016706
v 0.27199250 -0.03084730 0.51016706
v 0.27170516 -0.03445766 0.51016706
v 0.27370102 -0.03066417 0.08546830
f 1 2 7
f 1 7 3
f 1 3 4
f 1 4 5
f 1 5 6
f 1 6 12
f 1 12 19
f 1 19 27
f 1 27 31
f 1 31 37
f 1 37 41
f 1 41 36
f 1 36 29
f 1 29 24
f 1 24 23
f 1 23 22
f 1 22 15
f 1 15 13
f 1 13 8
f 1 8 2
f 2 8 9
f 2 9 7
f 3 7 9
f 3 9 4
f 4 9 14
f 4 14 21
f 4 21 28
f 4 28 35
f 4 35 40
f 4 40 39
f 4 39 38
f 4 38 34
f 4 34 33
f 4 33 32
f 4 32 30
f 4 30 26
f 4 26 16
f 4 16 10
f 4 10 5
f 5 10 17
f 5 17 20
f 5 20 18
f 5 18 11
f 5 11 12
f 5 12 6
f 8 13 9
f 9 13 15
f 9 15 14
f 10 16 25
f 10 25 17
f 11 18 12
f 12 18 20
f 12 20 17
f 12 17 19
f 14 15 22
f 14 22 23
f 14 23 24
f 14 24 21
f 16 26 19
f 16 19 25
f 17 25 19
f 19 26 27
f 21 24 28
f 24 29 28
f 26 30 27
f 27 30 32
f 27 32 33
f 27 33 34
f 27 34 31
f 28 29 36
f 28 36 35
f 31 34 38
f 31 38 39
f 31 39 40
f 31 40 37
f 35 36 40
f 36 41 40
f 37 40 41

