# https://github.com/mikedh/trimesh
v 0.00010600 0.27387123 0.51016706
v -0.00453918 0.27386067 0.51016706
v 0.00010600 0.25400729 0.51016706
v 0.00010600 0.27555301 0.08581392
v -0.02961282 0.27189331 0.51016706
v -0.00453918 0.27553186 0.08581392
v -0.17630739 0.18243154 0.51016706
v -0.17630739 0.16749657 0.08581392
v 0.00010600 0.24105026 0.08581392
v -0.03323917 0.27159713 0.51016706
v -0.01360507 0.27479145 0.08581392
v -0.17630739 0.20877928 0.51016706
v -0.17630739 0.21076779 0.08581392
v -0.04078544 0.27079328 0.51016706
v -0.03144326 0.27327891 0.08581392
v -0.17338904 0.21128607 0.51016706
v -0.17031528 0.21592945 0.08581392
v -0.17556486 0.21141300 0.08581392
v -0.04985131 0.26914324 0.51016706
v -0.04078544 0.27221062 0.08581392
v -0.04986858 0.27060289 0.08581392
v -0.16912376 0.21490347 0.51016706
v -0.16580824 0.21980070 0.08581392
v -0.05893446 0.26696434 0.51016706
v -0.04992039 0.27059231 0.08581392
v -0.05893446 0.26858265 0.08581392
v -0.06796581 0.26649895 0.08581392
v -0.16549741 0.21797085 0.51016706
v -0.16556648 0.21999109 0.08581392
v -0.16458219 0.21874299 0.51016706
v -0.07898301 0.26215171 0.51016706
v -0.07665178 0.26425659 0.08581392
v -0.15905632 0.22476140 0.08581392
v -0.15857281 0.22305848 0.51016706
v -0.08611483 0.25990935 0.51016706
v -0.08625298 0.26141132 0.08581392
v -0.15024946 0.23030384 0.08581392
v -0.15368586 0.22632683 0.51016706
v -0.09512891 0.25641889 0.51016706
v -0.09516345 0.25815355 0.08581392
v -0.13864514 0.23742230 0.08581392
v -0.13139244 0.23999253 0.51016706
v -0.11326067 0.24890910 0.51016706
v -0.11326067 0.25058030 0.08581392
v -0.13840338 0.23757037 0.08581392
v -0.12493407 0.24371570 0.51016706
v -0.13092619 0.24205509 0.08581392
v -0.12040977 0.24584172 0.51016706
v -0.12243016 0.24657155 0.08581392
f 1 2 5
f 1 5 10
f 1 10 14
f 1 14 19
f 1 19 24
f 1 24 31
f 1 31 35
f 1 35 39
f 1 39 43
f 1 43 48
f 1 48 46
f 1 46 42
f 1 42 38
f 1 38 34
f 1 34 30
f 1 30 28
f 1 28 22
f 1 22 16
f 1 16 12
f 1 12 7
f 1 7 3
f 1 3 9
f 1 9 4
f 1 4 2
f 2 4 6
f 2 6 5
f 3 7 8
f 3 8 9
f 4 9 8
f 4 8 13
f 4 13 18
f 4 18 17
f 4 17 23
f 4 23 29
f 4 29 33
f 4 33 37
f 4 37 41
f 4 41 45
f 4 45 47
f 4 47 49
f 4 49 44
f 4 44 40
f 4 40 36
f 4 36 32
f 4 32 27
f 4 27 26
f 4 26 25
f 4 25 21
f 4 21 20
f 4 20 15
f 4 15 11
f 4 11 6
f 5 6 11
f 5 11 10
f 7 12 13
f 7 13 8
f 10 11 15
f 10 15 14
f 12 16 17
f 12 17 18
f 12 18 13
f 14 15 20
f 14 20 21
f 14 21 19
f 16 22 23
f 16 23 17
f 19 21 25
f 19 25 26
f 19 26 27
f 19 27 24
f 22 28 23
f 23 28 30
f 23 30 29
f 24 27 31
f 27 32 31
f 29 30 33
f 30 34 33
f 31 32 36
f 31 36 35
f 33 34 38
f 33 38 37
f 35 36 40
f 35 40 39
f 37 38 41
f 38 42 41
f 39 40 43
f 40 44 43
f 41 42 45
f 42 46 47
f 42 47 45
f 43 44 48
f 44 49 48
f 46 48 49
f 46 49 47

