# https://github.com/mikedh/trimesh
v 0.00010600 -0.25399551 0.51016706
v -0.16771940 -0.19000099 0.51016706
v 0.00010600 -0.27382219 0.51016706
v 0.00010600 -0.24103830 0.08581392
v -0.15971912 -0.17787437 0.08581392
v -0.16771940 -0.21608151 0.51016706
v -0.16771940 -0.17567575 0.08581392
v -0.00454304 -0.27381241 0.51016706
v -0.00452660 -0.27550291 0.08581392
v 0.00010600 -0.27550291 0.08581392
v -0.16458171 -0.21872963 0.51016706
v -0.16771940 -0.21814334 0.08581392
v -0.16578093 -0.21978497 0.08581392
v -0.00635008 -0.27367563 0.51016706
v -0.01387397 -0.27472118 0.08581392
v -0.02266279 -0.27239553 0.51016706
v -0.03297939 -0.27158447 0.51016706
v -0.15855274 -0.22302915 0.51016706
v -0.15906200 -0.22474897 0.08581392
v -0.02266279 -0.27397852 0.08581392
v -0.04078255 -0.27075388 0.51016706
v -0.03209229 -0.27315771 0.08581392
v -0.03135304 -0.27322612 0.08581392
v -0.15365729 -0.22631243 0.51016706
v -0.15863488 -0.22502257 0.08581392
v -0.04260602 -0.27043143 0.51016706
v -0.04365740 -0.27172128 0.08581392
v -0.04078255 -0.27216101 0.08581392
v -0.03884408 -0.27238575 0.08581392
v -0.13138133 -0.23995364 0.51016706
v -0.15513578 -0.22724073 0.08581392
v -0.15102886 -0.22978137 0.08581392
v -0.13860951 -0.23741303 0.08581392
v -0.04985064 -0.26910249 0.51016706
v -0.04986707 -0.27055847 0.08581392
v -0.12489239 -0.24369620 0.51016706
v -0.13092135 -0.24201547 0.08581392
v -0.06072578 -0.26649344 0.51016706
v -0.06797039 -0.26644459 0.08581392
v -0.05891873 -0.26855527 0.08581392
v -0.12035834 -0.24582641 0.51016706
v -0.12648587 -0.24450723 0.08581392
v -0.12242823 -0.24651043 0.08581392
v -0.07436077 -0.26321995 0.51016706
v -0.06824966 -0.26637618 0.08581392
v -0.07797486 -0.26235026 0.51016706
v -0.11326157 -0.24887516 0.51016706
v -0.11350799 -0.25045818 0.08581392
v -0.07687421 -0.26413849 0.08581392
v -0.07887839 -0.26212552 0.51016706
v -0.10424276 -0.25260793 0.51016706
v -0.09547037 -0.25797258 0.08581392
v -0.08152325 -0.26283884 0.08581392
v -0.08034045 -0.26167603 0.51016706
v -0.09514182 -0.25637001 0.51016706
v -0.09515824 -0.25809959 0.08581392
v -0.08607372 -0.26142196 0.08581392
v -0.08607372 -0.25986827 0.51016706
v -0.08788077 -0.25917450 0.51016706
v -0.08632014 -0.26133401 0.08581392
f 1 2 6
f 1 6 11
f 1 11 18
f 1 18 24
f 1 24 30
f 1 30 36
f 1 36 41
f 1 41 47
f 1 47 51
f 1 51 55
f 1 55 59
f 1 59 58
f 1 58 54
f 1 54 50
f 1 50 46
f 1 46 44
f 1 44 38
f 1 38 34
f 1 34 26
f 1 26 21
f 1 21 17
f 1 17 16
f 1 16 14
f 1 14 8
f 1 8 3
f 1 3 10
f 1 10 4
f 1 4 5
f 1 5 2
f 2 5 7
f 2 7 12
f 2 12 6
f 3 8 9
f 3 9 10
f 4 10 9
f 4 9 15
f 4 15 20
f 4 20 23
f 4 23 22
f 4 22 29
f 4 29 28
f 4 28 27
f 4 27 35
f 4 35 40
f 4 40 39
f 4 39 45
f 4 45 49
f 4 49 53
f 4 53 57
f 4 57 60
f 4 60 56
f 4 56 52
f 4 52 48
f 4 48 43
f 4 43 42
f 4 42 37
f 4 37 33
f 4 33 32
f 4 32 31
f 4 31 25
f 4 25 19
f 4 19 13
f 4 13 12
f 4 12 7
f 4 7 5
f 6 12 13
f 6 13 11
f 8 14 9
f 9 14 16
f 9 16 17
f 9 17 15
f 11 13 19
f 11 19 18
f 15 17 20
f 17 21 22
f 17 22 23
f 17 23 20
f 18 19 24
f 19 25 24
f 21 26 27
f 21 27 28
f 21 28 29
f 21 29 22
f 24 25 31
f 24 31 32
f 24 32 33
f 24 33 30
f 26 34 27
f 27 34 35
f 30 33 37
f 30 37 36
f 34 38 39
f 34 39 40
f 34 40 35
f 36 37 42
f 36 42 43
f 36 43 41
f 38 44 39
f 39 44 46
f 39 46 45
f 41 43 48
f 41 48 47
f 45 46 50
f 45 50 49
f 47 48 52
f 47 52 51
f 49 50 53
f 50 54 53
f 51 52 55
f 52 56 55
f 53 54 57
f 54 58 57
f 55 56 59
f 56 60 58
f 56 58 59
f 57 58 60

