# https://github.com/mikedh/trimesh
v 0.00006093 0.28099087 0.07271242
v 0.00006093 0.28099087 0.07142330
v -0.00103927 0.28099087 0.07271242
v 0.00006093 0.27554488 0.08580838
v 0.00446175 0.27559989 0.08544694
v 0.00099610 0.28093586 0.07270037
v 0.00006093 0.28033074 0.01364202
v -0.00103927 0.28099087 0.07142330
v 0.00099610 0.28093586 0.07142330
v 0.00446175 0.28027573 0.01362998
v -0.00450492 0.27548987 0.08580838
v -0.03167998 0.27818536 0.04982157
v -0.04075666 0.27719517 0.06792944
v -0.04075666 0.27548987 0.07698939
v -0.03063478 0.27334448 0.08580838
v 0.17284807 0.18571362 0.11809650
v 0.20106832 0.18571362 0.11809650
v 0.03147177 0.27334448 0.08544694
v 0.02256011 0.27411463 0.08544694
v 0.04071349 0.27548987 0.07700143
v 0.04071349 0.27708515 0.06794149
v 0.04071349 0.27730519 0.04983362
v 0.00006093 0.28016571 0.00455796
v -0.00450492 0.28033074 0.01364202
v -0.02265830 0.27890049 0.01364202
v -0.03167998 0.27818536 0.01364202
v 0.04071349 0.27730519 0.01362998
v 0.03163680 0.27813035 0.01362998
v 0.00446175 0.28011070 0.00454592
v -0.04075666 0.27719517 0.00455796
v -0.04983335 0.27576492 0.06792944
v -0.05885503 0.27295941 0.07501354
v -0.04988836 0.27378457 0.07755564
v -0.04075666 0.27213425 0.08580838
v 0.25327304 0.01353245 0.11809650
v -0.04988836 0.27059398 0.08580838
v -0.05885503 0.26855862 0.08580838
v -0.06793172 0.26646824 0.08580838
v -0.07684337 0.26410282 0.08580838
v -0.08625012 0.26140733 0.08580838
v -0.09516179 0.25810672 0.08580838
v -0.11326016 0.25057036 0.08580838
v -0.12250187 0.24649963 0.08580838
v -0.13097345 0.24198879 0.08580838
v -0.13867488 0.23742297 0.08580838
v -0.15017202 0.23027168 0.08580838
v -0.15754339 0.22565085 0.08580838
v -0.15902866 0.22466067 0.08580838
v -0.16579492 0.21970976 0.08580838
v -0.18598369 0.20232662 0.08580838
v -0.19456528 0.19457022 0.08580838
v -0.20215669 0.18615369 0.08580838
v -0.21585424 0.17031083 0.08580838
v -0.21992499 0.16552496 0.08580838
v -0.22465587 0.15897878 0.08580838
v -0.23021191 0.15017718 0.08580838
v -0.23736323 0.13851507 0.08580838
v -0.24198409 0.13075867 0.08580838
v -0.24643992 0.12234214 0.08580838
v -0.25040068 0.11326550 0.08580838
v -0.25799208 0.09505721 0.08580838
v -0.25810210 0.09478216 0.08580838
v 0.00011594 -0.25387096 0.11808445
v 0.00011594 -0.27378457 0.11808445
v 0.21889164 0.16475482 0.11809650
v 0.22730822 0.16414971 0.07412200
v 0.21889164 0.17372144 0.07492920
v 0.20249859 0.19391010 0.06794149
v 0.19848284 0.19842091 0.06794149
v 0.19397200 0.20243664 0.06794149
v 0.17372824 0.21877460 0.07491716
v 0.16410145 0.22713611 0.07409792
v 0.13632128 0.24490432 0.07314613
v 0.13093027 0.24242888 0.08544694
v 0.12680451 0.24457426 0.08544694
v 0.12245870 0.24671965 0.08544694
v 0.11239183 0.25112046 0.08544694
v 0.09511861 0.25838177 0.08544694
v 0.08615195 0.26157236 0.08544694
v 0.08191616 0.26289259 0.08544694
v 0.07691023 0.26426782 0.08544694
v 0.06788855 0.26657827 0.08544694
v 0.05941697 0.26861363 0.08544694
v 0.04990020 0.27075901 0.08544694
v 0.04417914 0.27169417 0.08544694
v 0.04071349 0.27224427 0.08544694
v 0.03257198 0.27323446 0.08544694
v 0.04990020 0.27372956 0.07759177
v 0.05881186 0.27290440 0.07509788
v 0.04979018 0.27581993 0.06794149
v 0.00006093 0.27592995 -0.00245384
v -0.00450492 0.28016571 0.00455796
v 0.04979018 0.27581993 0.00454592
v 0.04071349 0.27719517 0.00454592
v 0.04071349 0.27438966 -0.00246589
v 0.00446175 0.27587494 -0.00246589
v -0.04075666 0.27438966 -0.00245384
v -0.04983335 0.27378457 -0.00210450
v -0.05885503 0.27268436 -0.00112862
v -0.04983335 0.27576492 0.00455796
v -0.06963704 0.27114409 0.06792944
v -0.06507118 0.27213425 0.07344732
v 0.27329677 0.01353245 0.11809650
v -0.07700841 0.26751342 0.07698939
v -0.09301639 0.26377275 0.07461597
v -0.11848612 0.25398098 0.07313408
v -0.13097345 0.24616957 0.07641109
v -0.13630944 0.24479430 0.07300157
v -0.16403460 0.22713611 0.07395333
v -0.17366139 0.21871959 0.07477260
v -0.19252990 0.20122642 0.07698939
v -0.19704074 0.19704567 0.07698939
v -0.20122151 0.19247984 0.07698939
v -0.21013317 0.18323817 0.07535087
v -0.21876978 0.17361142 0.07474848
v -0.22718636 0.16398468 0.07392924
v -0.24484464 0.13625966 0.07294132
v -0.25392132 0.11827141 0.07303770
v -0.26371315 0.09291182 0.07453163
v -0.26134769 0.08581553 0.08580838
v -0.26404321 0.07657386 0.08580838
v -0.26624361 0.06788229 0.08580838
v -0.26838902 0.05886065 0.08580838
v -0.27042438 0.04967399 0.08580838
v -0.27196468 0.04076238 0.08580838
v -0.27300988 0.03086058 0.08580838
v -0.27378002 0.02238905 0.08580838
v -0.27526528 0.00451082 0.08580838
v -0.27526528 -0.00440080 0.08580838
v -0.27455017 -0.01347744 0.08580838
v -0.27372501 -0.02277412 0.08580838
v -0.27295487 -0.03141069 0.08580838
v -0.27223973 -0.03823192 0.08580838
v -0.27196468 -0.04059735 0.08580838
v -0.27157960 -0.04323783 0.08580838
v -0.27042438 -0.04956397 0.08580838
v -0.26833401 -0.05908070 0.08580838
v -0.26618860 -0.06815734 0.08580838
v -0.26393319 -0.07673889 0.08580838
v -0.26272296 -0.08113968 0.08580838
v -0.26129268 -0.08587054 0.08580838
v -0.26123767 -0.08603558 0.08580838
v -0.25793707 -0.09500219 0.08580838
v -0.25040068 -0.11315548 0.08580838
v -0.24643992 -0.12217711 0.08580838
v -0.24440455 -0.12630286 0.08580838
v -0.24192908 -0.13075867 0.08580838
v -0.23736323 -0.13840505 0.08580838
v -0.22718636 -0.15490804 0.08580838
v -0.22493093 -0.15842867 0.08580838
v -0.21970495 -0.16563499 0.08580838
v -0.20232172 -0.18587865 0.08580838
v -0.19896609 -0.18972934 0.08580838
v -0.19473031 -0.19424016 0.08580838
v -0.18983440 -0.19886099 0.08580838
v -0.18609371 -0.20216160 0.08580838
v -0.17014073 -0.21591409 0.08580838
v -0.16573991 -0.21965477 0.08580838
v -0.15902866 -0.22460566 0.08580838
v -0.13867488 -0.23736796 0.08580838
v -0.13097345 -0.24182376 0.08580838
v -0.12651762 -0.24435422 0.08580838
v -0.12250187 -0.24644462 0.08580838
v -0.11353521 -0.25040533 0.08580838
v -0.09516179 -0.25805171 0.08580838
v -0.08603009 -0.26129731 0.08580838
v -0.08151924 -0.26278256 0.08580838
v -0.06501618 -0.27202423 0.07341119
v -0.05885503 -0.27290440 0.07497741
v -0.04075666 -0.27537985 0.07698939
v -0.04075666 -0.27703013 0.06792944
v -0.00103927 -0.28088085 0.07266421
v 0.00006093 -0.28099087 0.07270037
v 0.00451676 -0.27378457 0.11808445
v 0.22334747 0.15848368 0.11809650
v 0.23126895 0.15842867 0.06794149
v 0.22747325 0.16436976 0.06794149
v 0.22389758 0.16882556 0.06794149
v 0.21933173 0.17432656 0.06794149
v 0.21091515 0.18417334 0.06794149
v 0.22642805 0.15391786 0.11809650
v 0.24496650 0.13636968 0.07323047
v 0.20249859 0.19385509 0.00454592
v 0.19842783 0.19836591 0.00454592
v 0.19386198 0.20238163 0.00454592
v 0.18412518 0.21085317 0.00454592
v 0.18418019 0.21090818 0.06794149
v 0.17433335 0.21926969 0.06794149
v 0.16883233 0.22378050 0.06794149
v 0.16432149 0.22746617 0.06794149
v 0.13615625 0.24468428 0.00454592
v 0.13131535 0.24759981 0.00454592
v 0.13131535 0.24759981 0.06794149
v 0.11855298 0.25398098 0.07324251
v 0.15849040 0.23115185 0.06794149
v 0.15849040 0.23109684 0.01362998
v 0.14803846 0.23747798 0.00454592
v 0.09308324 0.26377275 0.07471235
v 0.07696523 0.26762344 0.07700143
v 0.06508303 0.27213425 0.07350757
v 0.05881186 0.27372956 0.06794149
v -0.03167998 0.26718335 -0.00498390
v -0.04075666 0.26718335 -0.00495981
v -0.00450492 0.27587494 -0.00245384
v 0.03163680 0.26718335 -0.00498390
v 0.04979018 0.27378457 -0.00212859
v 0.06948385 0.27108908 0.01362998
v 0.07696523 0.26910872 0.00454592
v 0.06442290 0.27191421 -0.00036960
v 0.05881186 0.27268436 -0.00117680
v 0.04071349 0.26718335 -0.00497185
v 0.04979018 0.26718335 -0.00462245
v -0.04983335 0.26718335 -0.00458632
v -0.08608510 0.25821674 -0.00446582
v -0.08608510 0.26459789 -0.00200809
v -0.06435605 0.27191421 -0.00033347
v -0.07700841 0.26905371 0.00455796
v -0.07700841 0.26910872 0.01364202
v -0.08608510 0.26663325 0.00455796
v -0.08608510 0.26663325 0.06792944
v 0.25123765 -0.11238534 0.08544694
v 0.25844400 -0.09505721 0.08544694
v 0.26157957 -0.08664069 0.08544694
v 0.26471518 -0.07629881 0.08544694
v 0.26680555 -0.06788229 0.08544694
v 0.27225157 -0.06524181 0.07360395
v 0.27302172 -0.05880564 0.07521835
v 0.27560718 -0.04070737 0.07700143
v 0.28105320 -0.00170531 0.07285698
v 0.28105320 0.00181533 0.07285698
v 0.27296670 0.01782323 0.11809650
v 0.00935766 -0.27345450 0.11808445
v 0.01359345 -0.27312444 0.11808445
v 0.03317709 -0.27158417 0.11808445
v 0.04076850 -0.27081402 0.11808445
v 0.04979018 -0.26916371 0.11808445
v 0.07663518 -0.26272755 0.11808445
v 0.07905563 -0.26212244 0.11808445
v 0.08279633 -0.26102225 0.11808445
v 0.08604193 -0.25997705 0.11808445
v 0.09088283 -0.25816173 0.11808445
v 0.09511861 -0.25651144 0.11808445
v 0.09764909 -0.25546624 0.11808445
v 0.11321698 -0.24903009 0.11808445
v 0.12058836 -0.24589451 0.11808445
v 0.12509920 -0.24380414 0.11808445
v 0.13137036 -0.24017347 0.11808445
v 0.15381453 -0.22642098 0.11808445
v 0.15854541 -0.22328542 0.11808445
v 0.16184603 -0.22091999 0.11808445
v 0.16476157 -0.21882961 0.11808445
v 0.16927241 -0.21503392 0.11808445
v 0.18010942 -0.20579226 0.11808445
v -0.09378653 0.26404781 0.06792944
v -0.09362150 0.26399280 0.00455796
v -0.11326016 0.25585132 0.00455796
v -0.11815607 0.25381595 0.00455796
v -0.12266691 0.25178056 0.00455796
v -0.13141353 0.24743478 0.00455796
v -0.12288695 0.25178056 0.06792944
v -0.13630944 0.24479430 0.06995346
v -0.15853357 0.23093181 0.06792944
v -0.16419963 0.22735615 0.06792944
v -0.16876548 0.22367048 0.06792944
v -0.17415648 0.21915967 0.06792944
v -0.18400332 0.21079816 0.06792944
v -0.19379513 0.20232662 0.06792944
v -0.19836098 0.19836591 0.06792944
v -0.18323317 0.21008302 0.07537499
v -0.20237673 0.19374507 0.06792944
v -0.21915486 0.17416153 0.06792944
v -0.22366570 0.16860551 0.06792944
v -0.22724137 0.16414971 0.06792944
v -0.23087204 0.15848368 0.06792944
v -0.24484464 0.13625966 0.07026670
v -0.25183092 0.12250717 0.04982157
v -0.25392132 0.11827141 0.06978479
v -0.26398820 0.09357193 0.06792944
v -0.26734382 0.07701394 0.07698939
v -0.26464833 0.08598057 0.07731467
v -0.26651866 0.08603558 0.06792944
v -0.27212971 0.06474672 0.07331480
v -0.27284485 0.05886065 0.07484487
v -0.27367000 0.04967399 0.07748335
v -0.27532029 0.04076238 0.07698939
v -0.28093134 0.00027505 0.07251965
v -0.28093134 -0.00016503 0.07251965
v -0.27532029 -0.04059735 0.07698939
v -0.27367000 -0.04956397 0.07748335
v -0.27284485 -0.05880564 0.07483282
v -0.27212971 -0.06474672 0.07331480
v -0.26464833 -0.08587054 0.07730262
v -0.26371315 -0.09285681 0.07453163
v -0.25392132 -0.11827141 0.07303770
v -0.24478963 -0.13609463 0.07291723
v -0.22718636 -0.16392967 0.07389310
v -0.21871477 -0.17350140 0.07473644
v -0.21013317 -0.18312815 0.07533883
v -0.20122151 -0.19236982 0.07698939
v -0.19704074 -0.19693565 0.07698939
v -0.19252990 -0.20111640 0.07698939
v -0.17366139 -0.21860956 0.07473644
v -0.16397959 -0.22708110 0.07394128
v -0.13630944 -0.24468428 0.07296541
v -0.13091843 -0.24187877 0.08578427
v -0.11848612 -0.25387096 0.07312204
v -0.09301639 -0.26366273 0.07460392
v -0.08608510 -0.26657827 0.06792944
v -0.07700841 -0.26905371 0.06792944
v -0.06952702 -0.27097906 0.06792944
v -0.05885503 -0.27356452 0.06792944
v -0.04983335 -0.27570991 0.06792944
v -0.04075666 -0.27714016 0.04982157
v 0.00099610 -0.28099087 0.07270037
v -0.03167998 -0.27807534 0.01364202
v 0.00006093 -0.28099087 0.07147148
v 0.23754010 0.14814182 0.00454592
v 0.23115893 0.15842867 0.01362998
v 0.22747325 0.16431475 0.00454592
v 0.22384257 0.16877055 0.00454592
v 0.21927672 0.17427155 0.00454592
v 0.24029063 0.13136378 0.11809650
v 0.25398817 0.11854645 0.07333889
v 0.25200779 0.12311229 0.06794149
v 0.24777201 0.13130877 0.06794149
v 0.24766199 0.13130877 0.00454592
v 0.24485648 0.13614964 0.00454592
v 0.24386629 0.12520266 0.11809650
v 0.22714319 0.16387466 -0.00076718
v 0.21861659 0.17344639 -0.00117680
v 0.21003500 0.18312815 -0.00142979
v 0.20139838 0.19258986 -0.00162255
v 0.19265176 0.20133644 -0.00162255
v 0.17350820 0.21855455 -0.00116475
v 0.17422333 0.21921468 0.00454592
v 0.16382639 0.22702608 -0.00074309
v 0.16877732 0.22372549 0.00454592
v 0.16426648 0.22735615 0.00454592
v 0.13604623 0.24457426 -0.00016479
v 0.11811290 0.25381595 -0.00022501
v 0.12278877 0.25189058 0.00454592
v 0.12300881 0.25178056 0.06794149
v 0.11833294 0.25387096 0.00454592
v 0.09379837 0.26404781 0.00454592
v 0.09390839 0.26410282 0.06794149
v 0.15849040 0.23098682 0.00454592
v 0.08604193 0.26674327 0.06794149
v 0.07696523 0.26921872 0.06794149
v 0.06975890 0.27108908 0.06794149
v -0.07700841 0.25821674 -0.00498390
v 0.07696523 0.25816173 -0.00498390
v 0.08604193 0.26459789 -0.00203218
v 0.08604193 0.25816173 -0.00453814
v 0.07696523 0.26921872 0.01362998
v 0.08604193 0.26663325 0.00454592
v 0.09269816 0.26360772 -0.00105630
v -0.10418346 0.24908510 -0.00480317
v -0.11326016 0.24908510 -0.00365862
v -0.10418346 0.25656645 -0.00230931
v -0.09257630 0.26360772 -0.00100812
v 0.24689184 -0.12245216 0.08544694
v 0.25398817 -0.11854645 0.07332685
v 0.26378000 -0.09313186 0.07474848
v 0.26488021 -0.08609058 0.07747130
v 0.26768572 -0.07695893 0.07700143
v 0.27390188 -0.05880564 0.06794149
v 0.27593725 -0.04967399 0.06794149
v 0.26691557 -0.08598057 0.06794149
v 0.26950107 -0.07695893 0.06794149
v 0.27736752 -0.04070737 0.06794149
v 0.27835771 -0.03163073 0.04983362
v 0.28105320 -0.00170531 0.07062815
v 0.28105320 0.00181533 0.07062815
v 0.27835771 0.03163073 0.04983362
v 0.27736752 0.04070737 0.06794149
v 0.27137140 0.03735176 0.11809650
v 0.27164645 0.03449124 0.11809650
v 0.04071349 -0.27714016 0.06794149
v 0.04979018 -0.27581993 0.06794149
v 0.06502802 -0.27207924 0.07347141
v 0.09308324 -0.26377275 0.07468826
v 0.11849797 -0.25398098 0.07321842
v 0.13632128 -0.24490432 0.07313408
v 0.16404644 -0.22719112 0.07408587
v 0.18869103 -0.20700247 0.06794149
v 0.19848284 -0.19842091 0.06794149
v 0.21889164 -0.17366643 0.07491716
v 0.22730822 -0.16414971 0.07412200
v 0.22862844 -0.15347778 0.08544694
v 0.23798018 -0.13829504 0.08544694
v 0.24232599 -0.13114373 0.08544694
v -0.11804605 0.25381595 -0.00012866
v -0.13603439 0.24457426 -0.00004429
v -0.15853357 0.23087680 0.01364202
v -0.16414462 0.22730114 0.00455796
v -0.17410147 0.21904965 0.00455796
v -0.18845915 0.20683744 0.00455796
v -0.20226671 0.19369006 0.00455796
v -0.19374012 0.20221660 0.00455796
v -0.19825097 0.19825589 0.00455796
v -0.21909985 0.17405151 0.00455796
v -0.22724137 0.16409470 0.00455796
v -0.24462459 0.13587459 0.00000389
v -0.24732008 0.13136378 0.00455796
v -0.25183092 0.12250717 0.00455796
v -0.25375629 0.11799636 0.00455796
v -0.26393319 0.09346192 0.00455796
v -0.26651866 0.08603558 0.00455796
v -0.26904914 0.07701394 0.04982157
v -0.26899413 0.07701394 0.06792944
v -0.27102950 0.06920252 0.06792944
v -0.26904914 0.07701394 0.01364202
v -0.27339495 0.05886065 0.00455796
v -0.27554034 0.04978401 0.00455796
v -0.27565036 0.04978401 0.06792944
v -0.27708063 0.04076238 0.06792944
v -0.28093134 0.00027505 0.07220641
v -0.27713564 0.04076238 0.04982157
v -0.27713564 -0.04059735 0.04982157
v -0.27708063 -0.04059735 0.06792944
v -0.28093134 -0.00016503 0.07220641
v -0.27565036 -0.04967399 0.06792944
v -0.27554034 -0.04967399 0.00455796
v -0.27339495 -0.05880564 0.00455796
v -0.26904914 -0.07684891 0.01364202
v -0.27102950 -0.06914752 0.06792944
v -0.26899413 -0.07684891 0.06792944
v -0.26651866 -0.08598057 0.06792944
v -0.26398820 -0.09351693 0.06792944
v -0.25392132 -0.11827141 0.06985708
v -0.24478963 -0.13609463 0.07035104
v -0.23081703 -0.15842867 0.06792944
v -0.22724137 -0.16403969 0.06792944
v -0.22366570 -0.16855050 0.06792944
v -0.21915486 -0.17405151 0.06792944
v -0.20688757 -0.18835410 0.06792944
v -0.20232172 -0.19363504 0.06792944
v -0.19830597 -0.19825589 0.06792944
v -0.18323317 -0.20997300 0.07533883
v -0.19379513 -0.20221660 0.06792944
v -0.18400332 -0.21068814 0.06792944
v -0.16871047 -0.22356046 0.06792944
v -0.16414462 -0.22719112 0.06792944
v -0.15853357 -0.23082179 0.06792944
v -0.13630944 -0.24468428 0.07011010
v -0.12283194 -0.25172555 0.06792944
v -0.09373152 -0.26399280 0.06792944
v -0.12266691 -0.25172555 0.00455796
v -0.11810106 -0.25376094 0.00455796
v -0.11326016 -0.25579631 0.00455796
v -0.09356649 -0.26388278 0.00455796
v -0.07700841 -0.26910872 0.04982157
v -0.08608510 -0.26657827 0.00455796
v -0.07700841 -0.26910872 0.01364202
v -0.04983335 -0.27559989 0.00455796
v -0.04075666 -0.27714016 0.01364202
v 0.03163680 -0.27818536 0.01362998
v 0.04071349 -0.27725018 0.04983362
v 0.00099610 -0.28099087 0.07147148
v -0.04075666 -0.27703013 0.00455796
v -0.00450492 -0.27994567 0.00455796
v -0.00450492 -0.28022072 0.01364202
v 0.00006093 -0.28022072 0.00919638
v 0.24474645 0.13603962 -0.00020092
v 0.25398817 0.11854645 0.06794149
v 0.24595669 0.12069185 0.11809650
v 0.24766199 0.11673113 0.11809650
v 0.24914727 0.11321049 0.11809650
v 0.25668366 0.09505721 0.11809650
v 0.26378000 0.09313186 0.07477260
v 0.26422008 0.09401202 0.06794149
v 0.26234972 0.09852284 0.06794149
v 0.25200779 0.12294726 0.00454592
v 0.22180719 0.16712024 -0.00216472
v 0.23688000 0.14704162 -0.00130934
v 0.22873847 0.15842867 -0.00181532
v 0.21295053 0.17658196 -0.00257434
v 0.19529225 0.19528535 -0.00294783
v 0.20414890 0.18587865 -0.00281529
v 0.18594051 0.20414195 -0.00281529
v 0.17653376 0.21294355 -0.00256230
v 0.18307998 0.20991799 -0.00141774
v 0.16712701 0.22174514 -0.00214063
v 0.15849040 0.22867640 -0.00179123
v 0.14699326 0.23670783 -0.00130934
v 0.13131535 0.24605955 -0.00135752
v 0.11316197 0.25469609 -0.00123702
v 0.08604193 0.26674327 0.01362998
v -0.11326016 0.24011846 -0.00498390
v -0.12233684 0.24011846 -0.00495981
v 0.10414029 0.24908510 -0.00481522
v 0.12223866 0.24006345 -0.00498390
v 0.10414029 0.25656645 -0.00233340
v 0.11316197 0.24908510 -0.00375503
v -0.13141353 0.24011846 -0.00374299
v -0.12162171 0.24930511 -0.00204422
v -0.11326016 0.25469609 -0.00117680
v 0.24634176 -0.13092369 0.07653156
v 0.24496650 -0.13636968 0.07321842
v 0.25200779 -0.12311229 0.06794149
v 0.25200779 -0.12294726 0.00454592
v 0.25398817 -0.11832641 0.00454592
v 0.25613356 -0.11321049 0.00454592
v 0.26411006 -0.09401202 0.06794149
v 0.26944606 -0.07695893 0.01362998
v 0.27225157 -0.06524181 0.00454592
v 0.27593725 -0.04967399 0.00454592
v 0.27747754 -0.04070737 0.04983362
v 0.26691557 -0.08598057 0.00454592
v 0.27835771 -0.03163073 0.01362998
v 0.28050310 -0.00445581 0.01362998
v 0.28050310 0.00445581 0.01362998
v 0.27835771 0.03163073 0.01362998
v 0.27747754 0.04070737 0.04983362
v 0.27593725 0.04967399 0.06794149
v 0.27098632 0.04076238 0.11809650
v 0.06964888 -0.27108908 0.06794149
v 0.04979018 -0.27581993 0.00454592
v 0.07696523 -0.26916371 0.06794149
v 0.08604193 -0.26657827 0.06794149
v 0.09385338 -0.26410282 0.06794149
v 0.12295380 -0.25183557 0.06794149
v 0.13131535 -0.24759981 0.06794149
v 0.11316197 -0.25601635 0.00454592
v 0.12278877 -0.25183557 0.00454592
v 0.15849040 -0.23115185 0.06794149
v 0.13131535 -0.24759981 0.00454592
v 0.14803846 -0.23747798 0.00454592
v 0.15849040 -0.23104183 0.01362998
v 0.16426648 -0.22746617 0.06794149
v 0.17433335 -0.21926969 0.06794149
v 0.18863602 -0.20694746 0.00454592
v 0.19837283 -0.19836591 0.00454592
v 0.20249859 -0.19391010 0.06794149
v 0.21933173 -0.17432656 0.06794149
v 0.22389758 -0.16882556 0.06794149
v 0.22747325 -0.16436976 0.06794149
v 0.23126895 -0.15842867 0.06794149
v -0.13141353 0.24600454 -0.00123702
v -0.14692641 0.23670783 -0.00123702
v -0.16381456 0.22691606 -0.00064668
v -0.17344135 0.21849954 -0.00108039
v -0.21849473 0.17333638 -0.00106834
v -0.22702133 0.16370963 -0.00061054
v -0.18301313 0.20986298 -0.00136957
v -0.19258491 0.20122642 -0.00157438
v -0.20127652 0.19253485 -0.00157438
v -0.20991314 0.18296312 -0.00135752
v -0.24594485 0.13136378 -0.00121293
v -0.25375629 0.11788634 -0.00006838
v -0.23670313 0.14687659 -0.00122498
v -0.26354812 0.09241673 -0.00098403
v -0.26888411 0.07701394 0.00455796
v -0.27196468 0.06408660 -0.00023706
v -0.27201969 0.06447167 0.00455796
v -0.27702562 0.04076238 0.00455796
v -0.27713564 0.04076238 0.01364202
v -0.27796080 0.03168574 0.01364202
v -0.27939105 0.01353245 0.01364202
v -0.28005117 0.00451082 0.01364202
v -0.27713564 -0.04059735 0.01364202
v -0.28005117 -0.00440080 0.01364202
v -0.27939105 -0.01347744 0.01364202
v -0.27796080 -0.03163073 0.01364202
v -0.27702562 -0.04059735 0.00455796
v -0.27196468 -0.06403159 -0.00023706
v -0.27201969 -0.06436165 0.00455796
v -0.26651866 -0.08598057 0.00455796
v -0.26904914 -0.07684891 0.04982157
v -0.26393319 -0.09335190 0.00455796
v -0.25375629 -0.11788634 0.00455796
v -0.25183092 -0.12234214 0.00455796
v -0.24726507 -0.13125376 0.00455796
v -0.24462459 -0.13576458 0.00000389
v -0.23076202 -0.15842867 0.01364202
v -0.22724137 -0.16398468 0.00455796
v -0.22355568 -0.16849549 0.00455796
v -0.21904484 -0.17394148 0.00455796
v -0.20226671 -0.19358003 0.00455796
v -0.19825097 -0.19814587 0.00455796
v -0.19368511 -0.20216160 0.00455796
v -0.17855730 -0.21508893 0.00455796
v -0.17404646 -0.21893963 0.00455796
v -0.16865546 -0.22345044 0.00455796
v -0.16414462 -0.22713611 0.00455796
v -0.15853357 -0.23071176 0.01364202
v -0.13603439 -0.24451925 0.00455796
v -0.13141353 -0.24721474 0.00455796
v -0.11804605 -0.25365092 -0.00010451
v -0.13597938 -0.24451925 -0.00002020
v -0.09257630 -0.26355271 -0.00099608
v -0.06430104 -0.27185920 -0.00029728
v -0.07700841 -0.26894369 0.00455796
v -0.06474113 -0.27196922 0.00455796
v -0.05885503 -0.27257433 -0.00110448
v 0.00446175 -0.28022072 0.01362998
v 0.00446175 -0.28011070 0.00454592
v 0.04071349 -0.27714016 0.00454592
v 0.04071349 -0.27725018 0.01362998
v -0.04075666 -0.27427963 -0.00244180
v -0.04983335 -0.27367455 -0.00208035
v -0.00450492 -0.27581993 -0.00245384
v 0.00006093 -0.28011070 0.00454592
v 0.25387815 0.11816139 -0.00026114
v 0.24617673 0.13130877 -0.00138161
v 0.25398817 0.11838142 0.00454592
v 0.26014933 0.08603558 0.11809650
v 0.26223970 0.07943438 0.11809650
v 0.26691557 0.08598057 0.06794149
v 0.26411006 0.09390200 0.00454592
v 0.26691557 0.08598057 0.00454592
v 0.22191720 0.15842867 -0.00430924
v 0.23996056 0.13956027 -0.00189969
v 0.24007058 0.13130877 -0.00386343
v 0.21284051 0.16750532 -0.00461041
v 0.20376382 0.17663697 -0.00480317
v 0.19474215 0.18565861 -0.00494776
v 0.18566546 0.19468023 -0.00494776
v 0.17664378 0.20375688 -0.00480317
v 0.16756710 0.21288854 -0.00461041
v 0.15849040 0.22191017 -0.00428515
v 0.14979878 0.23148191 -0.00277915
v 0.13131535 0.24006345 -0.00385139
v 0.13962190 0.23995343 -0.00187554
v 0.12157853 0.24919509 -0.00212859
v -0.13141353 0.23104183 -0.00498390
v -0.14945688 0.22196518 -0.00498390
v -0.14038020 0.23104183 -0.00467063
v 0.14039203 0.23098682 -0.00471886
v 0.14941371 0.22191017 -0.00498390
v -0.15853357 0.22196518 -0.00421283
v -0.14973194 0.23148191 -0.00274302
v -0.15853357 0.22862139 -0.00173101
v -0.13961005 0.23989842 -0.00179123
v 0.24766199 -0.13130877 0.06794149
v 0.23115893 -0.15842867 0.01362998
v 0.23754010 -0.14808681 0.00454592
v 0.24485648 -0.13614964 0.00454592
v 0.24766199 -0.13130877 0.00454592
v 0.25387815 -0.11816139 -0.00026114
v 0.24474645 -0.13603962 -0.00018888
v 0.26411006 -0.09379198 0.00454592
v 0.26928102 -0.07695893 0.00454592
v 0.27214155 -0.06458169 -0.00042982
v 0.27736752 -0.04070737 0.00454592
v 0.27747754 -0.04070737 0.01362998
v 0.26366998 -0.09274679 -0.00108039
v 0.28039308 -0.00445581 0.00454592
v 0.28039308 0.00445581 0.00454592
v 0.27747754 0.04070737 0.01362998
v 0.27736752 0.04070737 0.00454592
v 0.27593725 0.04967399 0.00454592
v 0.27390188 0.05880564 0.06794149
v 0.27225157 0.06524181 0.07361600
v 0.26933604 0.04983902 0.11809650
v 0.07696523 -0.26916371 0.01362998
v 0.04979018 -0.27378457 -0.00212859
v 0.05881186 -0.27268436 -0.00115271
v 0.06436789 -0.27196922 -0.00035756
v 0.06491800 -0.27207924 0.00454592
v 0.08604193 -0.26668826 0.04983362
v 0.09374336 -0.26399280 0.00454592
v 0.08604193 -0.26668826 0.01362998
v 0.11805789 -0.25376094 -0.00020092
v 0.13604623 -0.24462927 -0.00014070
v 0.16421147 -0.22735615 0.00454592
v 0.17873417 -0.21536398 0.00454592
v 0.17416832 -0.21921468 0.00454592
v 0.16382639 -0.22697107 -0.00071900
v 0.17350820 -0.21849954 -0.00115271
v 0.20134337 -0.19253485 -0.00162255
v 0.21003500 -0.18307314 -0.00141774
v 0.21861659 -0.17344639 -0.00116475
v 0.20244358 -0.19374507 0.00454592
v 0.18307998 -0.20986298 -0.00141774
v 0.19265176 -0.20122642 -0.00161051
v 0.21927672 -0.17421654 0.00454592
v 0.22747325 -0.16431475 0.00454592
v -0.16711517 0.22174514 -0.00202013
v -0.17652192 0.21294355 -0.00245384
v -0.22174034 0.16706525 -0.00202013
v -0.22856159 0.15848368 -0.00171896
v -0.18592867 0.20414195 -0.00276711
v -0.19528041 0.19528535 -0.00287551
v -0.20413706 0.18587865 -0.00276711
v -0.21293869 0.17652695 -0.00244180
v -0.23989371 0.13956027 -0.00175510
v -0.24005875 0.13136378 -0.00369481
v -0.24930046 0.12146199 -0.00200809
v -0.25469147 0.11326550 -0.00108039
v -0.26459332 0.08603558 -0.00197195
v -0.27256979 0.05886065 -0.00103221
v -0.27988614 0.00451082 0.00455796
v -0.27367000 0.04978401 -0.00202013
v -0.27438514 0.04076238 -0.00244180
v -0.27988614 -0.00440080 0.00455796
v -0.27438514 -0.04059735 -0.00244180
v -0.27367000 -0.04967399 -0.00202013
v -0.27256979 -0.05880564 -0.00100812
v -0.26459332 -0.08598057 -0.00197195
v -0.26349311 -0.09236172 -0.00097199
v -0.25370128 -0.11783133 -0.00005633
v -0.24594485 -0.13125376 -0.00121293
v -0.23670313 -0.14676657 -0.00122498
v -0.22696632 -0.16359961 -0.00061054
v -0.21849473 -0.17333638 -0.00106834
v -0.20991314 -0.18290811 -0.00135752
v -0.20127652 -0.19242483 -0.00155029
v -0.19252990 -0.20117141 -0.00157438
v -0.18301313 -0.20975296 -0.00135752
v -0.17338634 -0.21838954 -0.00106834
v -0.16375954 -0.22686105 -0.00063463
v -0.11326016 -0.25458607 -0.00115271
v -0.13141353 -0.24589451 -0.00122498
v -0.14692641 -0.23659781 -0.00123702
v -0.08608510 -0.26454287 -0.00199604
v -0.10418346 -0.25645643 -0.00228517
v 0.00446175 -0.27581993 -0.00246589
v 0.04071349 -0.27433464 -0.00246589
v -0.04983335 -0.26712834 -0.00458632
v -0.04075666 -0.26712834 -0.00495981
v -0.08608510 -0.25816173 -0.00446582
v 0.00006093 -0.27581993 -0.00246589
v -0.03167998 -0.26712834 -0.00498390
v 0.26366998 0.09274679 -0.00108039
v 0.25486834 0.11321049 -0.00130934
v 0.24942232 0.12162702 -0.00215268
v 0.26950107 0.07695893 0.06794149
v 0.26944606 0.07695893 0.01362998
v 0.26928102 0.07695893 0.00454592
v 0.27214155 0.06463670 -0.00042982
v 0.23104891 0.14038541 -0.00473091
v 0.24007058 0.12217711 -0.00498390
v 0.24909226 0.11321049 -0.00380321
v 0.22191720 0.14940705 -0.00498390
v 0.19474215 0.17663697 -0.00498390
v 0.15849040 0.21288854 -0.00498390
v -0.18570863 0.19473524 -0.00491163
v -0.17668696 0.20381189 -0.00476704
v -0.16761027 0.21288854 -0.00453814
v -0.22196037 0.14946206 -0.00498390
v -0.19478532 0.18571362 -0.00491163
v 0.24617673 -0.13130877 -0.00138161
v 0.25486834 -0.11321049 -0.00130934
v 0.22714319 -0.16387466 -0.00075513
v 0.23688000 -0.14704162 -0.00130934
v 0.27280167 -0.05880564 -0.00123702
v 0.26482520 -0.08598057 -0.00205627
v 0.27390188 -0.04967399 -0.00216472
v 0.27456201 -0.04070737 -0.00246589
v 0.27604727 -0.00445581 -0.00246589
v 0.27604727 0.00445581 -0.00246589
v 0.27456201 0.04070737 -0.00246589
v 0.27390188 0.04967399 -0.00216472
v 0.27280167 0.05880564 -0.00124907
v 0.27225157 0.06524181 0.00454592
v 0.07696523 -0.26905371 0.00454592
v 0.04979018 -0.26712834 -0.00461041
v 0.08604193 -0.25816173 -0.00452610
v 0.08604193 -0.26465290 -0.00202013
v 0.09269816 -0.26355271 -0.00103221
v 0.08604193 -0.26657827 0.00454592
v 0.11316197 -0.25475110 -0.00122498
v 0.13131535 -0.24611456 -0.00135752
v 0.14699326 -0.23676284 -0.00128520
v 0.15849040 -0.22867640 -0.00179123
v 0.16712701 -0.22174514 -0.00212859
v 0.17653376 -0.21294355 -0.00255025
v 0.19529225 -0.19528535 -0.00293579
v 0.20414890 -0.18587865 -0.00281529
v 0.21295053 -0.17658196 -0.00256230
v 0.22180719 -0.16712024 -0.00215268
v 0.18594051 -0.20414195 -0.00281529
v -0.22196037 0.15848368 -0.00420079
v -0.23142214 0.14968209 -0.00273098
v -0.20380700 0.17663697 -0.00474295
v -0.21288368 0.16756033 -0.00453814
v -0.23103707 0.14044042 -0.00465859
v -0.24005875 0.12223212 -0.00494776
v -0.24913543 0.11326550 -0.00358635
v -0.25645178 0.10418886 -0.00227312
v -0.25821212 0.08603558 -0.00445378
v -0.26574851 0.07701394 -0.00245384
v -0.27570537 0.00451082 -0.00245384
v -0.26728881 0.04978401 -0.00453814
v -0.26728881 0.04076238 -0.00494776
v -0.27570537 -0.00440080 -0.00245384
v -0.26728881 -0.04059735 -0.00494776
v -0.26728881 -0.04967399 -0.00452610
v -0.26574851 -0.07684891 -0.00245384
v -0.25821212 -0.08598057 -0.00445378
v -0.25645178 -0.10407884 -0.00227312
v -0.25469147 -0.11315548 -0.00108039
v -0.24930046 -0.12140698 -0.00200809
v -0.24005875 -0.13125376 -0.00369481
v -0.23142214 -0.14957208 -0.00273098
v -0.22856159 -0.15842867 -0.00169482
v -0.22168533 -0.16701024 -0.00200809
v -0.21293869 -0.17636192 -0.00244180
v -0.20413706 -0.18582364 -0.00274302
v -0.19528041 -0.19512032 -0.00286347
v -0.18587366 -0.20397692 -0.00274302
v -0.17652192 -0.21277851 -0.00244180
v -0.16711517 -0.22163512 -0.00202013
v -0.15853357 -0.22856638 -0.00171896
v -0.12156670 -0.24919509 -0.00202013
v -0.13141353 -0.24006345 -0.00374299
v -0.11326016 -0.24908510 -0.00363453
v 0.03163680 -0.26712834 -0.00498390
v 0.04071349 -0.26712834 -0.00497185
v -0.07700841 -0.25816173 -0.00498390
v -0.10418346 -0.24908510 -0.00477909
v 0.26482520 0.08598057 -0.00205627
v 0.25668366 0.10413385 -0.00234544
v 0.24909226 0.10413385 -0.00482726
v 0.25822396 0.07695893 -0.00498390
v 0.25822396 0.08598057 -0.00456223
v -0.25821212 0.07701394 -0.00498390
v 0.24931230 -0.12162702 -0.00215268
v 0.23996056 -0.13956027 -0.00189969
v 0.24007058 -0.13130877 -0.00385139
v 0.25668366 -0.10413385 -0.00234544
v 0.22873847 -0.15842867 -0.00181532
v 0.25822396 -0.08598057 -0.00456223
v 0.26724563 -0.04967399 -0.00464654
v 0.26724563 -0.04070737 -0.00498390
v 0.26724563 0.04070737 -0.00498390
v 0.26724563 0.04967399 -0.00464654
v 0.07696523 -0.25816173 -0.00498390
v 0.10414029 -0.24908510 -0.00480317
v 0.11316197 -0.24908510 -0.00373094
v 0.10414029 -0.25656645 -0.00233340
v 0.12157853 -0.24925010 -0.00210450
v 0.13131535 -0.24006345 -0.00382730
v 0.13962190 -0.23995343 -0.00185145
v 0.15849040 -0.22191017 -0.00428515
v 0.19474215 -0.18565861 -0.00494776
v 0.20376382 -0.17663697 -0.00480317
v 0.21284051 -0.16745031 -0.00461041
v 0.16756710 -0.21288854 -0.00461041
v 0.17664378 -0.20370187 -0.00480317
v 0.18566546 -0.19468023 -0.00494776
v 0.22191720 -0.15842867 -0.00428515
v -0.24913543 0.10418886 -0.00477909
v -0.26728881 0.03168574 -0.00498390
v -0.26728881 -0.03163073 -0.00498390
v -0.25821212 -0.07684891 -0.00498390
v -0.24913543 -0.10407884 -0.00476704
v -0.24913543 -0.11315548 -0.00358635
v -0.24005875 -0.12217711 -0.00494776
v -0.23103707 -0.14033040 -0.00462245
v -0.22196037 -0.15842867 -0.00418874
v -0.21288368 -0.16745031 -0.00453814
v -0.20380700 -0.17658196 -0.00474295
v -0.19478532 -0.18565861 -0.00491163
v -0.18570863 -0.19462523 -0.00491163
v -0.17668696 -0.20370187 -0.00474295
v -0.16761027 -0.21277851 -0.00453814
v -0.15853357 -0.22185516 -0.00420079
v -0.14973194 -0.23137189 -0.00273098
v -0.14038020 -0.23093181 -0.00465859
v -0.12233684 -0.24006345 -0.00494776
v -0.13141353 -0.23093181 -0.00498390
v 0.24909226 -0.11321049 -0.00379116
v 0.23104891 -0.14038541 -0.00473091
v 0.24007058 -0.12217711 -0.00498390
v 0.25822396 -0.07695893 -0.00498390
v 0.24909226 -0.10413385 -0.00482726
v 0.12223866 -0.24006345 -0.00498390
v 0.14039203 -0.23104183 -0.00470682
v 0.19474215 -0.17663697 -0.00498390
v 0.22191720 -0.14940705 -0.00498390
v 0.15849040 -0.21288854 -0.00498390
v 0.14941371 -0.22191017 -0.00498390
v -0.22196037 -0.14935204 -0.00498390
v -0.14945688 -0.22185516 -0.00498390
f 1 2 8
f 1 8 3
f 1 3 4
f 1 4 5
f 1 5 6
f 1 6 9
f 1 9 2
f 2 7 24
f 2 24 8
f 2 9 10
f 2 10 7
f 3 11 4
f 3 8 26
f 3 26 12
f 3 12 13
f 3 13 14
f 3 14 15
f 3 15 11
f 4 11 16
f 4 16 17
f 4 17 18
f 4 18 19
f 4 19 5
f 5 19 6
f 6 19 18
f 6 18 20
f 6 20 21
f 6 21 22
f 6 22 27
f 6 27 9
f 7 23 92
f 7 92 24
f 7 10 29
f 7 29 23
f 8 24 25
f 8 25 26
f 9 27 28
f 9 28 10
f 10 28 29
f 11 15 16
f 12 26 30
f 12 30 13
f 13 30 100
f 13 100 31
f 13 31 14
f 14 31 32
f 14 32 33
f 14 33 34
f 14 34 15
f 15 34 16
f 16 35 103
f 16 103 231
f 16 231 377
f 16 377 376
f 16 376 516
f 16 516 655
f 16 655 608
f 16 608 607
f 16 607 469
f 16 469 468
f 16 468 467
f 16 467 466
f 16 466 328
f 16 328 322
f 16 322 181
f 16 181 175
f 16 175 65
f 16 65 17
f 16 34 36
f 16 36 37
f 16 37 38
f 16 38 39
f 16 39 40
f 16 40 41
f 16 41 42
f 16 42 43
f 16 43 44
f 16 44 45
f 16 45 46
f 16 46 47
f 16 47 48
f 16 48 49
f 16 49 50
f 16 50 51
f 16 51 52
f 16 52 53
f 16 53 54
f 16 54 55
f 16 55 56
f 16 56 57
f 16 57 58
f 16 58 59
f 16 59 60
f 16 60 61
f 16 61 62
f 16 62 63
f 16 63 64
f 16 64 35
f 17 65 66
f 17 66 67
f 17 67 68
f 17 68 69
f 17 69 70
f 17 70 71
f 17 71 72
f 17 72 73
f 17 73 74
f 17 74 75
f 17 75 76
f 17 76 77
f 17 77 78
f 17 78 79
f 17 79 80
f 17 80 81
f 17 81 82
f 17 82 83
f 17 83 84
f 17 84 85
f 17 85 86
f 17 86 87
f 17 87 18
f 18 87 20
f 20 87 86
f 20 86 85
f 20 85 84
f 20 84 88
f 20 88 89
f 20 89 90
f 20 90 21
f 21 90 22
f 22 90 93
f 22 93 27
f 23 91 92
f 23 29 96
f 23 96 91
f 24 92 25
f 25 92 26
f 26 92 30
f 27 93 94
f 27 94 28
f 28 94 29
f 29 94 95
f 29 95 96
f 30 97 98
f 30 98 99
f 30 99 100
f 30 92 97
f 31 100 101
f 31 101 102
f 31 102 32
f 32 102 38
f 32 38 37
f 32 37 36
f 32 36 33
f 33 36 34
f 35 64 174
f 35 174 103
f 38 102 39
f 39 102 104
f 39 104 40
f 40 104 105
f 40 105 41
f 41 105 106
f 41 106 42
f 42 106 43
f 43 106 107
f 43 107 44
f 44 107 108
f 44 108 45
f 45 108 109
f 45 109 46
f 46 109 47
f 47 109 48
f 48 109 49
f 49 109 110
f 49 110 50
f 50 110 111
f 50 111 51
f 51 111 112
f 51 112 113
f 51 113 52
f 52 113 114
f 52 114 53
f 53 114 115
f 53 115 54
f 54 115 116
f 54 116 55
f 55 116 56
f 56 116 117
f 56 117 57
f 57 117 58
f 58 117 59
f 59 117 118
f 59 118 60
f 60 118 61
f 61 118 119
f 61 119 62
f 62 119 120
f 62 120 63
f 63 120 121
f 63 121 122
f 63 122 123
f 63 123 124
f 63 124 125
f 63 125 126
f 63 126 127
f 63 127 128
f 63 128 129
f 63 129 64
f 64 129 130
f 64 130 131
f 64 131 132
f 64 132 133
f 64 133 134
f 64 134 135
f 64 135 136
f 64 136 137
f 64 137 138
f 64 138 139
f 64 139 140
f 64 140 141
f 64 141 142
f 64 142 143
f 64 143 144
f 64 144 145
f 64 145 146
f 64 146 147
f 64 147 148
f 64 148 149
f 64 149 150
f 64 150 151
f 64 151 152
f 64 152 153
f 64 153 154
f 64 154 155
f 64 155 156
f 64 156 157
f 64 157 158
f 64 158 159
f 64 159 160
f 64 160 161
f 64 161 162
f 64 162 163
f 64 163 164
f 64 164 165
f 64 165 166
f 64 166 167
f 64 167 168
f 64 168 169
f 64 169 170
f 64 170 171
f 64 171 172
f 64 172 173
f 64 173 314
f 64 314 174
f 65 175 66
f 66 176 177
f 66 177 178
f 66 178 179
f 66 179 180
f 66 180 68
f 66 68 67
f 66 175 181
f 66 181 182
f 66 182 176
f 68 180 183
f 68 183 69
f 69 183 184
f 69 184 70
f 70 185 186
f 70 186 187
f 70 187 71
f 70 184 185
f 71 187 72
f 72 187 188
f 72 188 189
f 72 189 190
f 72 190 73
f 73 191 192
f 73 192 193
f 73 193 194
f 73 194 75
f 73 75 74
f 73 190 195
f 73 195 196
f 73 196 197
f 73 197 191
f 75 194 76
f 76 194 77
f 77 194 78
f 78 194 198
f 78 198 79
f 79 198 80
f 80 198 199
f 80 199 81
f 81 199 200
f 81 200 82
f 82 200 83
f 83 200 84
f 84 200 89
f 84 89 88
f 89 200 90
f 90 200 201
f 90 201 93
f 91 202 203
f 91 203 204
f 91 204 92
f 91 96 205
f 91 205 202
f 92 204 97
f 93 206 94
f 93 201 207
f 93 207 208
f 93 208 209
f 93 209 210
f 93 210 206
f 94 206 95
f 95 211 96
f 95 206 212
f 95 212 211
f 96 211 205
f 97 203 213
f 97 213 98
f 97 204 203
f 98 213 214
f 98 214 215
f 98 215 99
f 99 215 216
f 99 216 100
f 100 216 217
f 100 217 218
f 100 218 101
f 101 218 219
f 101 219 220
f 101 220 102
f 102 220 105
f 102 105 104
f 103 221 222
f 103 222 223
f 103 223 224
f 103 224 225
f 103 225 226
f 103 226 227
f 103 227 228
f 103 228 229
f 103 229 230
f 103 230 231
f 103 174 232
f 103 232 233
f 103 233 234
f 103 234 235
f 103 235 236
f 103 236 237
f 103 237 238
f 103 238 239
f 103 239 240
f 103 240 241
f 103 241 242
f 103 242 243
f 103 243 244
f 103 244 245
f 103 245 246
f 103 246 247
f 103 247 248
f 103 248 249
f 103 249 250
f 103 250 251
f 103 251 252
f 103 252 253
f 103 253 221
f 105 220 254
f 105 254 106
f 106 254 255
f 106 255 256
f 106 256 257
f 106 257 258
f 106 258 259
f 106 259 260
f 106 260 108
f 106 108 107
f 108 260 259
f 108 259 261
f 108 261 262
f 108 262 263
f 108 263 109
f 109 263 264
f 109 264 265
f 109 265 266
f 109 266 110
f 110 266 267
f 110 267 268
f 110 268 269
f 110 269 111
f 111 269 268
f 111 268 112
f 112 268 113
f 113 268 114
f 114 268 115
f 115 268 270
f 115 270 116
f 116 270 271
f 116 271 272
f 116 272 273
f 116 273 274
f 116 274 117
f 117 274 275
f 117 275 405
f 117 405 276
f 117 276 118
f 118 277 278
f 118 278 119
f 118 276 405
f 118 405 277
f 119 279 280
f 119 280 120
f 119 278 281
f 119 281 282
f 119 282 279
f 120 280 121
f 121 280 279
f 121 279 282
f 121 282 122
f 122 282 123
f 123 282 283
f 123 283 124
f 124 283 284
f 124 284 125
f 125 284 285
f 125 285 126
f 126 285 286
f 126 286 127
f 127 286 128
f 128 286 287
f 128 287 129
f 129 287 130
f 130 287 131
f 131 287 132
f 132 287 288
f 132 288 133
f 133 288 134
f 134 288 135
f 135 288 289
f 135 289 136
f 136 289 290
f 136 290 137
f 137 290 291
f 137 291 138
f 138 291 139
f 139 291 140
f 140 291 292
f 140 292 293
f 140 293 141
f 141 293 142
f 142 293 143
f 143 293 294
f 143 294 144
f 144 294 145
f 145 294 146
f 146 295 147
f 146 294 295
f 147 295 148
f 148 296 149
f 148 295 296
f 149 296 150
f 150 296 151
f 151 297 152
f 151 296 297
f 152 297 298
f 152 298 153
f 153 298 299
f 153 299 300
f 153 300 154
f 154 300 155
f 155 301 156
f 155 300 301
f 156 301 302
f 156 302 157
f 157 302 158
f 158 302 303
f 158 303 159
f 159 303 160
f 160 304 305
f 160 305 161
f 160 303 304
f 161 305 162
f 162 305 304
f 162 304 163
f 163 304 306
f 163 306 164
f 164 306 165
f 165 307 166
f 165 306 307
f 166 307 167
f 167 307 168
f 168 307 308
f 168 308 309
f 168 309 310
f 168 310 311
f 168 311 312
f 168 312 169
f 169 312 170
f 170 312 171
f 171 313 173
f 171 173 172
f 171 312 313
f 173 313 315
f 173 315 316
f 173 316 459
f 173 459 314
f 174 314 232
f 176 317 318
f 176 318 319
f 176 319 177
f 176 182 317
f 177 319 178
f 178 319 320
f 178 320 321
f 178 321 179
f 179 321 180
f 180 321 183
f 181 322 182
f 182 323 324
f 182 324 325
f 182 325 326
f 182 326 327
f 182 327 317
f 182 322 328
f 182 328 323
f 183 321 329
f 183 329 330
f 183 330 331
f 183 331 184
f 184 331 332
f 184 332 333
f 184 333 334
f 184 334 185
f 185 334 186
f 186 335 188
f 186 188 187
f 186 334 336
f 186 336 335
f 188 335 337
f 188 337 189
f 189 337 190
f 190 337 338
f 190 338 196
f 190 196 195
f 191 339 192
f 191 197 339
f 192 339 340
f 192 340 341
f 192 341 342
f 192 342 193
f 193 342 194
f 194 343 344
f 194 344 345
f 194 345 198
f 194 342 341
f 194 341 343
f 196 346 197
f 196 338 346
f 197 346 339
f 198 345 347
f 198 347 200
f 198 200 199
f 200 347 348
f 200 348 349
f 200 349 201
f 201 349 207
f 202 350 203
f 202 205 351
f 202 351 492
f 202 492 630
f 202 630 737
f 202 737 736
f 202 736 735
f 202 735 733
f 202 733 816
f 202 816 827
f 202 827 826
f 202 826 867
f 202 867 866
f 202 866 872
f 202 872 871
f 202 871 873
f 202 873 874
f 202 874 869
f 202 869 829
f 202 829 809
f 202 809 724
f 202 724 811
f 202 811 863
f 202 863 876
f 202 876 875
f 202 875 847
f 202 847 846
f 202 846 845
f 202 845 818
f 202 818 741
f 202 741 627
f 202 627 626
f 202 626 489
f 202 489 350
f 203 350 213
f 205 211 351
f 206 210 352
f 206 352 353
f 206 353 212
f 207 349 354
f 207 354 208
f 208 354 488
f 208 488 355
f 208 355 209
f 209 355 356
f 209 356 352
f 209 352 210
f 211 212 351
f 212 353 351
f 213 350 214
f 214 350 357
f 214 357 358
f 214 358 359
f 214 359 215
f 215 359 360
f 215 360 216
f 216 360 219
f 216 219 217
f 217 219 218
f 219 360 255
f 219 255 254
f 219 254 220
f 221 361 362
f 221 362 222
f 221 253 361
f 222 362 363
f 222 363 223
f 223 363 364
f 223 364 224
f 224 364 365
f 224 365 226
f 224 226 225
f 226 366 367
f 226 367 227
f 226 365 364
f 226 364 363
f 226 363 368
f 226 368 369
f 226 369 366
f 227 367 228
f 228 367 370
f 228 370 229
f 229 371 510
f 229 510 372
f 229 372 373
f 229 373 230
f 229 370 371
f 230 373 513
f 230 513 374
f 230 374 375
f 230 375 376
f 230 376 377
f 230 377 231
f 232 314 233
f 233 314 234
f 234 314 235
f 235 314 378
f 235 378 379
f 235 379 236
f 236 379 380
f 236 380 237
f 237 380 238
f 238 380 381
f 238 381 239
f 239 381 240
f 240 381 241
f 241 381 242
f 242 381 382
f 242 382 243
f 243 382 244
f 244 382 245
f 245 382 246
f 246 382 383
f 246 383 247
f 247 383 248
f 248 383 384
f 248 384 249
f 249 384 250
f 250 384 251
f 251 384 252
f 252 384 253
f 253 385 386
f 253 386 387
f 253 387 388
f 253 388 389
f 253 389 390
f 253 390 391
f 253 391 361
f 253 384 385
f 255 360 392
f 255 392 256
f 256 392 257
f 257 392 258
f 258 392 259
f 259 393 394
f 259 394 261
f 259 392 393
f 261 394 262
f 262 394 263
f 263 394 395
f 263 395 264
f 264 395 396
f 264 396 265
f 265 396 266
f 266 396 397
f 266 397 267
f 267 397 268
f 268 398 270
f 268 397 399
f 268 399 400
f 268 400 398
f 270 398 401
f 270 401 271
f 271 401 402
f 271 402 272
f 272 402 273
f 273 402 274
f 274 402 275
f 275 402 403
f 275 403 404
f 275 404 405
f 277 405 406
f 277 406 407
f 277 407 278
f 278 408 281
f 278 407 408
f 281 408 412
f 281 412 409
f 281 409 410
f 281 410 282
f 282 411 412
f 282 412 413
f 282 413 414
f 282 414 415
f 282 415 283
f 282 410 411
f 283 415 285
f 283 285 284
f 285 415 416
f 285 416 286
f 286 417 421
f 286 421 287
f 286 416 418
f 286 418 557
f 286 557 417
f 287 419 420
f 287 420 288
f 287 421 561
f 287 561 419
f 288 420 422
f 288 422 290
f 288 290 289
f 290 422 291
f 291 422 423
f 291 423 424
f 291 424 425
f 291 425 426
f 291 426 427
f 291 427 428
f 291 428 293
f 291 293 292
f 293 428 429
f 293 429 294
f 294 429 430
f 294 430 431
f 294 431 295
f 295 431 432
f 295 432 296
f 296 433 434
f 296 434 435
f 296 435 436
f 296 436 437
f 296 437 438
f 296 438 297
f 296 432 433
f 297 438 298
f 298 438 299
f 299 438 300
f 300 438 301
f 301 439 302
f 301 438 439
f 302 439 438
f 302 438 440
f 302 440 441
f 302 441 303
f 303 442 443
f 303 443 444
f 303 444 304
f 303 441 442
f 304 445 446
f 304 446 306
f 304 444 445
f 306 447 307
f 306 446 448
f 306 448 449
f 306 449 450
f 306 450 451
f 306 451 447
f 307 447 308
f 308 452 309
f 308 447 453
f 308 453 454
f 308 454 452
f 309 452 310
f 310 452 454
f 310 454 311
f 311 455 312
f 311 454 455
f 312 455 456
f 312 456 313
f 313 456 315
f 314 457 458
f 314 458 378
f 314 459 457
f 315 456 460
f 315 460 461
f 315 461 462
f 315 462 316
f 316 462 463
f 316 463 459
f 317 327 464
f 317 464 319
f 317 319 318
f 319 329 320
f 319 464 329
f 320 329 321
f 323 465 324
f 323 328 466
f 323 466 467
f 323 467 468
f 323 468 469
f 323 469 470
f 323 470 471
f 323 471 472
f 323 472 465
f 324 465 606
f 324 606 473
f 324 473 325
f 325 473 326
f 326 473 464
f 326 464 327
f 329 474 330
f 329 464 475
f 329 475 476
f 329 476 474
f 330 474 331
f 331 474 477
f 331 477 332
f 332 478 333
f 332 477 479
f 332 479 478
f 333 480 481
f 333 481 482
f 333 482 334
f 333 478 480
f 334 483 336
f 334 482 481
f 334 481 483
f 335 336 337
f 336 338 337
f 336 483 484
f 336 484 485
f 336 485 339
f 336 339 338
f 338 339 346
f 339 486 340
f 339 485 486
f 340 487 356
f 340 356 344
f 340 344 343
f 340 343 341
f 340 486 487
f 344 356 355
f 344 355 488
f 344 488 345
f 345 488 347
f 347 488 354
f 347 354 348
f 348 354 349
f 350 489 490
f 350 490 357
f 351 353 491
f 351 491 492
f 352 356 493
f 352 493 353
f 353 493 494
f 353 494 491
f 356 487 493
f 357 490 358
f 358 490 495
f 358 495 496
f 358 496 359
f 359 496 497
f 359 497 360
f 360 497 392
f 361 498 362
f 361 391 499
f 361 499 498
f 362 500 501
f 362 501 502
f 362 502 503
f 362 503 504
f 362 504 363
f 362 498 499
f 362 499 500
f 363 504 368
f 366 369 505
f 366 505 506
f 366 506 507
f 366 507 367
f 367 507 646
f 367 646 508
f 367 508 370
f 368 504 509
f 368 509 369
f 369 509 505
f 370 508 371
f 371 508 646
f 371 646 510
f 372 511 512
f 372 512 373
f 372 510 511
f 373 512 513
f 374 513 650
f 374 650 514
f 374 514 375
f 375 515 516
f 375 516 376
f 375 514 515
f 378 458 379
f 379 517 380
f 379 458 599
f 379 599 518
f 379 518 517
f 380 517 519
f 380 519 520
f 380 520 381
f 381 520 521
f 381 521 382
f 382 522 523
f 382 523 383
f 382 521 524
f 382 524 525
f 382 525 522
f 383 526 384
f 383 523 527
f 383 527 528
f 383 528 529
f 383 529 526
f 384 526 530
f 384 530 531
f 384 531 385
f 385 531 532
f 385 532 386
f 386 533 534
f 386 534 387
f 386 532 533
f 387 534 388
f 388 534 535
f 388 535 536
f 388 536 537
f 388 537 538
f 388 538 499
f 388 499 389
f 389 499 390
f 390 499 391
f 392 497 539
f 392 539 393
f 393 539 540
f 393 540 541
f 393 541 395
f 393 395 394
f 395 541 396
f 396 541 397
f 397 541 542
f 397 542 399
f 398 400 543
f 398 543 544
f 398 544 401
f 399 542 400
f 400 542 545
f 400 545 546
f 400 546 547
f 400 547 548
f 400 548 543
f 401 544 402
f 402 544 403
f 403 549 550
f 403 550 405
f 403 405 404
f 403 544 551
f 403 551 549
f 405 550 406
f 406 550 407
f 407 550 552
f 407 552 408
f 408 553 412
f 408 552 554
f 408 554 553
f 409 412 411
f 409 411 410
f 412 553 555
f 412 555 413
f 413 555 554
f 413 554 414
f 414 556 557
f 414 557 415
f 414 554 556
f 415 557 418
f 415 418 416
f 417 557 558
f 417 558 559
f 417 559 560
f 417 560 562
f 417 562 421
f 419 422 420
f 419 561 422
f 421 562 563
f 421 563 564
f 421 564 561
f 422 561 423
f 423 561 565
f 423 565 566
f 423 566 424
f 424 566 567
f 424 567 425
f 425 567 568
f 425 568 428
f 425 428 569
f 425 569 426
f 426 569 427
f 427 569 428
f 428 568 429
f 429 568 570
f 429 570 430
f 430 570 571
f 430 571 572
f 430 572 573
f 430 573 431
f 431 573 574
f 431 574 575
f 431 575 432
f 432 575 576
f 432 576 433
f 433 576 434
f 434 576 577
f 434 577 435
f 435 577 578
f 435 578 579
f 435 579 436
f 436 579 437
f 437 579 438
f 438 580 581
f 438 581 440
f 438 579 580
f 440 581 441
f 441 582 583
f 441 583 442
f 441 581 582
f 442 584 585
f 442 585 443
f 442 583 584
f 443 585 444
f 444 585 586
f 444 586 445
f 445 587 588
f 445 588 446
f 445 586 587
f 446 588 448
f 447 451 453
f 448 589 449
f 448 588 590
f 448 590 589
f 449 589 450
f 450 589 451
f 451 591 453
f 451 589 591
f 453 591 592
f 453 592 593
f 453 593 454
f 454 593 594
f 454 594 455
f 455 594 592
f 455 592 595
f 455 595 460
f 455 460 456
f 457 596 597
f 457 597 598
f 457 598 599
f 457 599 458
f 457 459 596
f 459 463 597
f 459 597 596
f 460 600 461
f 460 595 601
f 460 601 600
f 461 600 602
f 461 602 603
f 461 603 462
f 462 603 463
f 463 603 597
f 464 473 604
f 464 604 605
f 464 605 475
f 465 472 606
f 469 607 470
f 470 607 608
f 470 608 609
f 470 609 471
f 471 610 606
f 471 606 472
f 471 609 611
f 471 611 610
f 473 606 604
f 474 476 612
f 474 612 477
f 475 605 613
f 475 613 476
f 476 613 614
f 476 614 612
f 477 612 479
f 478 479 615
f 478 615 616
f 478 616 617
f 478 617 618
f 478 618 619
f 478 619 620
f 478 620 480
f 479 612 615
f 480 620 621
f 480 621 481
f 481 621 483
f 483 621 484
f 484 621 622
f 484 622 623
f 484 623 624
f 484 624 485
f 485 624 486
f 486 624 623
f 486 623 625
f 486 625 487
f 487 625 493
f 489 626 490
f 490 626 627
f 490 627 628
f 490 628 495
f 491 494 492
f 492 494 623
f 492 623 629
f 492 629 630
f 493 625 494
f 494 625 623
f 495 628 631
f 495 631 632
f 495 632 633
f 495 633 634
f 495 634 539
f 495 539 496
f 496 539 497
f 499 635 500
f 499 538 636
f 499 636 637
f 499 637 638
f 499 638 639
f 499 639 635
f 500 635 639
f 500 639 501
f 501 640 502
f 501 639 641
f 501 641 640
f 502 640 503
f 503 642 504
f 503 640 642
f 504 642 509
f 505 509 643
f 505 643 506
f 506 643 644
f 506 644 507
f 507 645 646
f 507 644 645
f 509 642 647
f 509 647 644
f 509 644 643
f 510 648 511
f 510 646 645
f 510 645 648
f 511 648 649
f 511 649 512
f 512 649 513
f 513 649 651
f 513 651 650
f 514 650 652
f 514 652 515
f 515 652 653
f 515 653 654
f 515 654 655
f 515 655 516
f 517 656 519
f 517 518 656
f 518 599 598
f 518 598 657
f 518 657 658
f 518 658 659
f 518 659 660
f 518 660 656
f 519 661 520
f 519 656 663
f 519 663 661
f 520 661 521
f 521 662 524
f 521 661 663
f 521 663 662
f 522 525 527
f 522 527 523
f 524 664 525
f 524 662 664
f 525 664 527
f 526 529 530
f 527 665 528
f 527 664 665
f 528 666 529
f 528 665 666
f 529 666 530
f 530 666 531
f 531 667 532
f 531 666 668
f 531 668 667
f 532 667 669
f 532 669 670
f 532 670 533
f 533 671 672
f 533 672 673
f 533 673 674
f 533 674 534
f 533 670 675
f 533 675 676
f 533 676 671
f 534 674 677
f 534 677 535
f 535 677 536
f 536 678 537
f 536 677 678
f 537 678 538
f 538 678 636
f 539 634 540
f 540 634 633
f 540 633 541
f 541 633 679
f 541 679 542
f 542 680 545
f 542 679 680
f 543 548 681
f 543 681 544
f 544 682 551
f 544 681 682
f 545 680 546
f 546 680 683
f 546 683 684
f 546 684 547
f 547 684 685
f 547 685 686
f 547 686 548
f 548 686 681
f 549 551 687
f 549 687 688
f 549 688 689
f 549 689 690
f 549 690 550
f 550 690 552
f 551 682 687
f 552 690 691
f 552 691 554
f 553 554 555
f 554 692 556
f 554 691 692
f 556 693 558
f 556 558 557
f 556 692 694
f 556 694 695
f 556 695 693
f 558 693 559
f 559 693 560
f 560 693 696
f 560 696 562
f 561 564 565
f 562 696 563
f 563 696 564
f 564 696 565
f 565 696 697
f 565 697 698
f 565 698 699
f 565 699 566
f 566 699 700
f 566 700 701
f 566 701 568
f 566 568 567
f 568 701 570
f 570 701 702
f 570 702 571
f 571 702 572
f 572 574 573
f 572 702 574
f 574 702 703
f 574 703 704
f 574 704 705
f 574 705 576
f 574 576 575
f 576 705 577
f 577 705 578
f 578 705 579
f 579 705 706
f 579 706 580
f 580 706 707
f 580 707 708
f 580 708 709
f 580 709 710
f 580 710 711
f 580 711 581
f 581 711 712
f 581 712 582
f 582 712 583
f 583 712 584
f 584 712 585
f 585 712 590
f 585 590 586
f 586 590 587
f 587 590 588
f 589 713 591
f 589 590 714
f 589 714 713
f 590 712 715
f 590 715 714
f 591 716 592
f 591 713 717
f 591 717 716
f 592 594 593
f 592 716 595
f 595 716 601
f 597 718 719
f 597 719 657
f 597 657 598
f 597 603 723
f 597 723 718
f 600 601 720
f 600 720 721
f 600 721 602
f 601 716 722
f 601 722 720
f 602 723 603
f 602 721 724
f 602 724 723
f 604 606 610
f 604 610 725
f 604 725 726
f 604 726 605
f 605 726 727
f 605 727 614
f 605 614 613
f 608 655 654
f 608 654 609
f 609 654 728
f 609 728 611
f 610 611 725
f 611 728 729
f 611 729 730
f 611 730 731
f 611 731 725
f 612 614 732
f 612 732 615
f 614 733 732
f 614 727 734
f 614 734 733
f 615 732 735
f 615 735 616
f 616 735 617
f 617 735 736
f 617 736 737
f 617 737 630
f 617 630 618
f 618 630 619
f 619 630 620
f 620 630 629
f 620 629 621
f 621 629 623
f 621 623 622
f 627 738 739
f 627 739 740
f 627 740 628
f 627 741 742
f 627 742 738
f 628 740 631
f 631 740 683
f 631 683 680
f 631 680 679
f 631 679 633
f 631 633 632
f 636 678 637
f 637 641 638
f 637 678 641
f 638 641 639
f 640 743 744
f 640 744 647
f 640 647 642
f 640 641 743
f 641 678 745
f 641 745 746
f 641 746 743
f 644 747 645
f 644 647 748
f 644 748 747
f 645 747 749
f 645 749 750
f 645 750 648
f 647 744 748
f 648 750 751
f 648 751 752
f 648 752 649
f 649 752 753
f 649 753 651
f 650 651 652
f 651 753 754
f 651 754 755
f 651 755 731
f 651 731 652
f 652 731 756
f 652 756 653
f 653 756 729
f 653 729 728
f 653 728 654
f 656 757 762
f 656 762 663
f 656 660 757
f 657 719 758
f 657 758 759
f 657 759 760
f 657 760 658
f 658 760 659
f 659 757 660
f 659 760 761
f 659 761 762
f 659 762 757
f 662 663 762
f 662 762 761
f 662 761 664
f 664 761 763
f 664 763 764
f 664 764 665
f 665 764 765
f 665 765 669
f 665 669 666
f 666 669 668
f 667 668 669
f 669 765 766
f 669 766 767
f 669 767 670
f 670 767 768
f 670 768 675
f 671 676 769
f 671 769 770
f 671 770 771
f 671 771 672
f 672 771 772
f 672 772 673
f 673 772 745
f 673 745 674
f 674 745 677
f 675 768 676
f 676 768 773
f 676 773 769
f 677 745 678
f 681 686 774
f 681 774 682
f 682 775 687
f 682 774 775
f 683 740 739
f 683 739 684
f 684 742 776
f 684 776 777
f 684 777 685
f 684 739 738
f 684 738 742
f 685 777 774
f 685 774 686
f 687 775 688
f 688 775 774
f 688 774 778
f 688 778 779
f 688 779 780
f 688 780 689
f 689 780 781
f 689 781 690
f 690 781 691
f 691 781 782
f 691 782 783
f 691 783 694
f 691 694 692
f 693 695 784
f 693 784 787
f 693 787 696
f 694 783 785
f 694 785 695
f 695 785 786
f 695 786 784
f 696 787 697
f 697 787 788
f 697 788 789
f 697 789 698
f 698 789 790
f 698 790 700
f 698 700 699
f 700 790 791
f 700 791 792
f 700 792 793
f 700 793 701
f 701 793 702
f 702 793 703
f 703 794 795
f 703 795 704
f 703 793 794
f 704 796 797
f 704 797 705
f 704 795 796
f 705 797 798
f 705 798 706
f 706 798 707
f 707 798 799
f 707 799 800
f 707 800 708
f 708 800 801
f 708 801 709
f 709 802 803
f 709 803 710
f 709 801 802
f 710 803 804
f 710 804 711
f 711 804 712
f 712 804 805
f 712 805 715
f 713 714 806
f 713 806 717
f 714 715 805
f 714 805 807
f 714 807 806
f 716 717 722
f 717 806 808
f 717 808 722
f 718 809 810
f 718 810 719
f 718 723 724
f 718 724 809
f 719 810 758
f 720 722 811
f 720 811 721
f 721 811 724
f 722 808 812
f 722 812 811
f 725 731 813
f 725 813 726
f 726 813 814
f 726 814 727
f 727 814 734
f 729 756 730
f 730 756 731
f 731 755 813
f 732 733 735
f 733 734 815
f 733 815 816
f 734 814 817
f 734 817 815
f 741 818 779
f 741 779 778
f 741 778 777
f 741 777 776
f 741 776 742
f 743 819 744
f 743 746 820
f 743 820 821
f 743 821 819
f 744 822 748
f 744 819 822
f 745 772 823
f 745 823 746
f 746 823 820
f 747 748 749
f 748 822 824
f 748 824 749
f 749 824 825
f 749 825 750
f 750 825 826
f 750 826 751
f 751 826 827
f 751 827 752
f 752 827 753
f 753 827 828
f 753 828 754
f 754 828 817
f 754 817 813
f 754 813 755
f 758 810 829
f 758 829 759
f 759 829 830
f 759 830 831
f 759 831 832
f 759 832 760
f 760 832 763
f 760 763 761
f 763 832 833
f 763 833 764
f 764 834 835
f 764 835 766
f 764 766 765
f 764 833 834
f 766 835 834
f 766 834 836
f 766 836 767
f 767 836 768
f 768 836 773
f 769 837 838
f 769 838 839
f 769 839 770
f 769 773 840
f 769 840 841
f 769 841 842
f 769 842 837
f 770 839 843
f 770 843 771
f 771 843 772
f 772 843 823
f 773 836 840
f 774 777 778
f 779 844 780
f 779 818 844
f 780 844 782
f 780 782 781
f 782 818 785
f 782 785 783
f 782 844 818
f 784 786 845
f 784 845 846
f 784 846 787
f 785 818 786
f 786 818 845
f 787 846 788
f 788 846 847
f 788 847 789
f 789 847 791
f 789 791 790
f 791 847 848
f 791 848 849
f 791 849 792
f 792 849 794
f 792 794 793
f 794 849 795
f 795 849 850
f 795 850 851
f 795 851 852
f 795 852 796
f 796 852 797
f 797 852 798
f 798 852 799
f 799 852 800
f 800 852 853
f 800 853 801
f 801 853 854
f 801 854 855
f 801 855 856
f 801 856 857
f 801 857 858
f 801 858 802
f 802 858 859
f 802 859 803
f 803 859 804
f 804 859 805
f 805 859 860
f 805 860 807
f 806 807 808
f 807 860 859
f 807 859 861
f 807 861 862
f 807 862 808
f 808 862 812
f 809 829 810
f 811 812 862
f 811 862 863
f 813 817 814
f 815 817 816
f 816 817 828
f 816 828 827
f 819 821 864
f 819 864 822
f 820 823 821
f 821 823 843
f 821 843 865
f 821 865 866
f 821 866 864
f 822 864 824
f 824 867 825
f 824 864 868
f 824 868 867
f 825 867 826
f 829 869 830
f 830 869 831
f 831 833 832
f 831 869 834
f 831 834 833
f 834 869 870
f 834 870 836
f 836 870 840
f 837 871 872
f 837 872 838
f 837 842 874
f 837 874 873
f 837 873 871
f 838 872 839
f 839 872 865
f 839 865 843
f 840 870 874
f 840 874 841
f 841 874 842
f 847 875 850
f 847 850 848
f 848 850 849
f 850 875 851
f 851 875 852
f 852 875 853
f 853 875 854
f 854 875 855
f 855 875 876
f 855 876 856
f 856 876 857
f 857 876 858
f 858 876 861
f 858 861 859
f 861 876 862
f 862 876 863
f 864 866 868
f 865 872 866
f 866 867 868
f 869 874 870

