# https://github.com/mikedh/trimesh
v 0.24419935 0.13195742 0.85615194
v 0.24326757 0.13353823 0.85615194
v 0.23985114 0.13195742 0.90148152
v 0.23994668 0.13195742 0.51024120
v 0.22625700 0.15428817 0.11811205
v 0.23906273 0.14047386 0.85615194
v 0.23574185 0.14530174 0.86108082
v 0.23650635 0.13752586 0.90148152
v 0.23619576 0.13699893 0.90681444
v 0.23767702 0.13195742 0.90778405
v 0.21667657 0.13195742 0.51024120
v 0.20150560 0.15428817 0.11811205
v 0.20315410 0.18576200 0.08546830
v 0.22334225 0.15860336 0.11811205
v 0.22582694 0.16204982 0.85615194
v 0.22642423 0.15397486 0.90148152
v 0.22921952 0.14944604 0.90148152
v 0.23373495 0.14206892 0.90148152
v 0.21839675 0.16428574 0.90697604
v 0.22831164 0.14797916 0.90762245
v 0.23120249 0.14021752 0.90851126
v 0.23103524 0.13195742 0.91020808
v 0.21667657 0.13195742 0.52098779
v 0.00012588 0.23478141 0.08546830
v 0.14075003 0.18608955 0.08546830
v 0.14961371 0.18576200 0.08546830
v 0.19928370 0.19027657 0.08546830
v 0.21746499 0.17223252 0.85162706
v 0.22054697 0.16854396 0.85607114
v 0.21887458 0.16485540 0.11811205
v 0.21739332 0.17214708 0.85906080
v 0.21885069 0.16485540 0.90148152
v 0.22331836 0.15858912 0.90148152
v 0.21502808 0.16938421 0.90148152
v 0.21048874 0.17469631 0.90148152
v 0.20210288 0.18450874 0.90148152
v 0.19820861 0.18903756 0.90148152
v 0.20979588 0.17387030 0.90729925
v 0.21285397 0.16744736 0.90843046
v 0.22037972 0.15858912 0.90802645
v 0.21290175 0.15858912 0.91045048
v 0.22195656 0.14047386 0.91061208
v 0.00036478 0.26729489 0.90996568
v 0.00036478 0.25855056 0.90859206
v 0.22162207 0.13195742 0.90883446
v 0.21679603 0.13195742 0.82286178
v 0.00014976 0.25400750 0.51024120
v 0.00012588 0.25393632 0.11811205
v 0.00012588 0.27568315 0.08546830
v 0.21681992 0.13195742 0.87732190
v 0.21684382 0.13195742 0.89243176
v 0.21686772 0.13195742 0.90148152
v 0.00036478 0.25420689 0.90148152
v 0.19481605 0.19484811 0.08546830
v 0.19627341 0.19631499 0.85615194
v 0.20057385 0.19180041 0.85615194
v 0.21746499 0.17223252 0.85300070
v 0.19366925 0.19369454 0.90148152
v 0.19252248 0.19255522 0.90770325
v 0.20117113 0.18344062 0.90754165
v 0.20403808 0.17681830 0.90875366
v 0.20384696 0.16767522 0.91061208
v 0.19524609 0.18618924 0.90891526
v 0.04986756 0.25823724 0.91093529
v 0.00456966 0.26729489 0.90996568
v 0.00036478 0.27025714 0.90867286
v 0.00014976 0.27384600 0.51024120
v 0.22052307 0.13195742 0.90834966
v 0.00012588 0.27386024 0.11811205
v 0.00452187 0.27568315 0.08546830
v 0.00036478 0.27743487 0.85615194
v 0.19022892 0.19930571 0.08546830
v 0.19173407 0.20061593 0.85615194
v 0.18896268 0.19825184 0.90148152
v 0.18334823 0.20119983 0.90754165
v 0.17677811 0.20409087 0.90875366
v 0.18611960 0.19526111 0.90891526
v 0.16762775 0.20389149 0.91061208
v 0.08608676 0.24917962 0.91077369
v 0.05892235 0.25823724 0.91077369
v 0.04986756 0.26582799 0.90859206
v 0.00456966 0.27283483 0.90746085
v 0.00036478 0.27283483 0.90746085
v 0.00036478 0.27383175 0.90148152
v 0.01362446 0.27494260 0.08546830
v 0.00456966 0.27743487 0.85615194
v 0.00456966 0.27384600 0.90148152
v 0.18533120 0.20354969 0.08546830
v 0.17209542 0.21740672 0.85873759
v 0.17219098 0.21747793 0.85162706
v 0.17219098 0.21747793 0.85267750
v 0.17914336 0.20665436 0.90148152
v 0.16421129 0.21840363 0.90697604
v 0.17381559 0.20981598 0.90729925
v 0.16738883 0.21287791 0.90843046
v 0.15857295 0.21292063 0.91045048
v 0.11327505 0.24012200 0.91061208
v 0.09516545 0.24917962 0.91004648
v 0.06797715 0.25823724 0.90988488
v 0.05892235 0.26487383 0.90826886
v 0.02836538 0.27190913 0.90624883
v 0.01362446 0.27249305 0.90697604
v 0.02267926 0.27418779 0.08546830
v 0.03175795 0.27517044 0.85615194
v 0.17090085 0.21592561 0.08546830
v 0.16848784 0.22055411 0.85590953
v 0.16194161 0.22582348 0.85615194
v 0.16478469 0.21887360 0.90148152
v 0.16932403 0.21504263 0.90148152
v 0.17462791 0.21051382 0.90148152
v 0.16607482 0.22002717 0.08546830
v 0.13692744 0.23620558 0.90681444
v 0.14789353 0.22830151 0.90762245
v 0.15857295 0.22036897 0.90802645
v 0.15857295 0.22327424 0.90148152
v 0.15386636 0.22640738 0.90148152
v 0.13138466 0.23105015 0.91036968
v 0.12254488 0.24060621 0.90867286
v 0.11327505 0.24678705 0.90810725
v 0.08608676 0.25674188 0.90851126
v 0.06797715 0.26381993 0.90738005
v 0.07392608 0.26309362 0.90657204
v 0.04986756 0.26904658 0.90148152
v 0.04081275 0.27061316 0.90148152
v 0.04081275 0.27433022 0.85615194
v 0.03154293 0.27341875 0.08546830
v 0.14043946 0.23901115 0.85615194
v 0.14521772 0.23573560 0.86100002
v 0.15938526 0.22498323 0.08546830
v 0.15874019 0.22542472 0.08546830
v 0.15549097 0.22747551 0.08546830
v 0.15154891 0.22991080 0.08546830
v 0.11972570 0.24547682 0.90705684
v 0.13138466 0.23781488 0.90786485
v 0.14194460 0.23372754 0.90148152
v 0.13742915 0.23649041 0.90148152
v 0.13138466 0.24012200 0.90148152
v 0.12514902 0.24372512 0.90148152
v 0.14015276 0.23120678 0.90843046
v 0.11633314 0.24617467 0.90762245
v 0.09516545 0.25513259 0.90762245
v 0.10046932 0.25403599 0.90657204
v 0.08608676 0.25988928 0.90148152
v 0.07913439 0.26205401 0.90148152
v 0.08551337 0.26393387 0.85615194
v 0.07703195 0.26626948 0.85615194
v 0.06797715 0.26860509 0.85615194
v 0.05433522 0.27179522 0.85986881
v 0.05892235 0.26701006 0.90148152
v 0.05072764 0.27266394 0.85655594
v 0.04427699 0.27185218 0.08546830
v 0.04081275 0.27237911 0.08546830
v 0.03266582 0.27330481 0.08546830
v 0.13343930 0.24326937 0.85615194
v 0.13888652 0.23765822 0.08546830
v 0.12065746 0.24590407 0.90148152
v 0.12889996 0.24579014 0.85615194
v 0.12232985 0.24907994 0.85615194
v 0.11466075 0.25248368 0.85615194
v 0.09516545 0.26053013 0.85615194
v 0.09005271 0.26258094 0.85615194
v 0.09516545 0.25655676 0.90148152
v 0.08200135 0.26296545 0.08546830
v 0.07700806 0.26440385 0.08546830
v 0.06800105 0.26672523 0.08546830
v 0.05459803 0.27186641 0.85162706
v 0.05459803 0.27186641 0.85388951
v 0.05815783 0.27099769 0.85655594
v 0.05001090 0.27079831 0.08546830
v 0.13155189 0.24208734 0.08546830
v 0.13100239 0.24241489 0.08546830
v 0.11635703 0.25174311 0.85615194
v 0.12686920 0.24470778 0.08546830
v 0.12299880 0.24664462 0.08546830
v 0.12249709 0.24688673 0.08546830
v 0.11246274 0.25118768 0.08546830
v 0.09521323 0.25843665 0.08546830
v 0.08697073 0.26144160 0.08546830
v 0.08620621 0.26169796 0.08546830
v 0.05951964 0.26867631 0.08546830
f 1 2 3
f 1 3 10
f 1 10 22
f 1 22 45
f 1 45 68
f 1 68 52
f 1 52 51
f 1 51 50
f 1 50 46
f 1 46 23
f 1 23 11
f 1 11 4
f 1 4 5
f 1 5 2
f 2 6 7
f 2 7 3
f 2 5 6
f 3 8 9
f 3 9 10
f 3 7 8
f 4 11 12
f 4 12 5
f 5 12 26
f 5 26 13
f 5 13 14
f 5 14 15
f 5 15 6
f 6 15 7
f 7 15 16
f 7 16 17
f 7 17 18
f 7 18 8
f 8 18 9
f 9 18 17
f 9 17 16
f 9 16 19
f 9 19 20
f 9 20 10
f 10 20 21
f 10 21 22
f 11 23 24
f 11 24 12
f 12 24 25
f 12 25 26
f 13 26 25
f 13 25 24
f 13 24 49
f 13 49 70
f 13 70 85
f 13 85 103
f 13 103 126
f 13 126 153
f 13 153 152
f 13 152 151
f 13 151 169
f 13 169 180
f 13 180 165
f 13 165 164
f 13 164 163
f 13 163 179
f 13 179 178
f 13 178 177
f 13 177 176
f 13 176 175
f 13 175 174
f 13 174 173
f 13 173 171
f 13 171 170
f 13 170 155
f 13 155 132
f 13 132 131
f 13 131 130
f 13 130 129
f 13 129 111
f 13 111 105
f 13 105 88
f 13 88 72
f 13 72 54
f 13 54 27
f 13 27 28
f 13 28 29
f 13 29 15
f 13 15 30
f 13 30 14
f 14 30 15
f 15 29 31
f 15 31 32
f 15 32 33
f 15 33 16
f 16 33 19
f 19 33 32
f 19 32 34
f 19 34 35
f 19 35 36
f 19 36 37
f 19 37 38
f 19 38 39
f 19 39 40
f 19 40 20
f 20 40 21
f 21 41 22
f 21 40 41
f 22 41 42
f 22 42 43
f 22 43 44
f 22 44 45
f 23 46 24
f 24 47 48
f 24 48 69
f 24 69 49
f 24 46 50
f 24 50 51
f 24 51 52
f 24 52 53
f 24 53 47
f 27 54 55
f 27 55 56
f 27 56 28
f 28 56 57
f 28 57 29
f 29 57 31
f 31 57 56
f 31 56 37
f 31 37 36
f 31 36 35
f 31 35 34
f 31 34 32
f 37 58 59
f 37 59 60
f 37 60 38
f 37 56 55
f 37 55 58
f 38 60 39
f 39 61 41
f 39 41 40
f 39 60 61
f 41 62 42
f 41 61 63
f 41 63 62
f 42 62 64
f 42 64 43
f 43 64 65
f 43 65 66
f 43 66 67
f 43 67 47
f 43 47 44
f 44 68 45
f 44 47 53
f 44 53 68
f 47 67 69
f 47 69 48
f 49 69 67
f 49 67 71
f 49 71 86
f 49 86 70
f 52 68 53
f 54 72 55
f 55 73 74
f 55 74 58
f 55 72 73
f 58 74 59
f 59 75 76
f 59 76 77
f 59 77 63
f 59 63 60
f 59 74 75
f 60 63 61
f 62 78 64
f 62 63 78
f 63 77 78
f 64 79 80
f 64 80 65
f 64 78 79
f 65 80 81
f 65 81 82
f 65 82 66
f 66 82 83
f 66 83 67
f 67 83 84
f 67 84 71
f 70 86 85
f 71 84 87
f 71 87 86
f 72 88 73
f 73 89 74
f 73 88 90
f 73 90 91
f 73 91 89
f 74 92 93
f 74 93 94
f 74 94 75
f 74 89 92
f 75 94 95
f 75 95 76
f 76 95 96
f 76 96 77
f 77 96 78
f 78 97 79
f 78 96 97
f 79 97 98
f 79 98 80
f 80 98 99
f 80 99 100
f 80 100 81
f 81 100 101
f 81 101 82
f 82 101 102
f 82 102 87
f 82 87 83
f 83 87 84
f 85 86 104
f 85 104 103
f 86 87 101
f 86 101 104
f 87 102 101
f 88 105 90
f 89 91 106
f 89 106 107
f 89 107 108
f 89 108 109
f 89 109 110
f 89 110 92
f 90 105 111
f 90 111 106
f 90 106 91
f 92 110 93
f 93 112 113
f 93 113 114
f 93 114 95
f 93 95 94
f 93 110 109
f 93 109 108
f 93 108 115
f 93 115 116
f 93 116 112
f 95 114 96
f 96 117 97
f 96 114 117
f 97 117 118
f 97 118 119
f 97 119 98
f 98 119 120
f 98 120 99
f 99 120 100
f 100 120 121
f 100 121 101
f 101 121 122
f 101 122 123
f 101 123 124
f 101 124 125
f 101 125 104
f 103 104 126
f 104 125 126
f 106 111 107
f 107 127 128
f 107 128 116
f 107 116 115
f 107 115 108
f 107 111 129
f 107 129 130
f 107 130 131
f 107 131 132
f 107 132 127
f 112 133 134
f 112 134 113
f 112 116 135
f 112 135 136
f 112 136 137
f 112 137 138
f 112 138 133
f 113 134 139
f 113 139 114
f 114 139 117
f 116 128 135
f 117 139 134
f 117 134 118
f 118 134 119
f 119 134 140
f 119 140 141
f 119 141 120
f 120 141 122
f 120 122 121
f 122 141 142
f 122 142 143
f 122 143 144
f 122 144 145
f 122 145 146
f 122 146 147
f 122 147 148
f 122 148 149
f 122 149 123
f 123 149 148
f 123 148 124
f 124 148 150
f 124 150 125
f 125 150 151
f 125 151 152
f 125 152 153
f 125 153 126
f 127 154 128
f 127 132 155
f 127 155 154
f 128 137 136
f 128 136 135
f 128 154 137
f 133 138 156
f 133 156 142
f 133 142 141
f 133 141 140
f 133 140 134
f 137 154 138
f 138 154 157
f 138 157 158
f 138 158 156
f 142 156 159
f 142 159 160
f 142 160 161
f 142 161 162
f 142 162 143
f 143 162 161
f 143 161 144
f 144 161 145
f 145 161 163
f 145 163 164
f 145 164 146
f 146 164 147
f 147 164 165
f 147 165 166
f 147 166 167
f 147 167 168
f 147 168 148
f 148 168 167
f 148 167 150
f 150 167 166
f 150 166 169
f 150 169 151
f 154 155 170
f 154 170 171
f 154 171 157
f 156 158 172
f 156 172 159
f 157 171 173
f 157 173 158
f 158 173 174
f 158 174 175
f 158 175 172
f 159 172 175
f 159 175 176
f 159 176 177
f 159 177 160
f 160 177 161
f 161 177 178
f 161 178 179
f 161 179 163
f 165 180 166
f 166 180 169

