# https://github.com/mikedh/trimesh
v 0.21765844 -0.13035551 0.51016708
v 0.25418939 0.00005329 0.59356414
v 0.25416001 0.00005329 0.51110853
v 0.25416001 0.00005329 0.51016708
v 0.24089366 -0.13035551 0.51016708
v 0.21771721 -0.13035551 0.65103200
v 0.25429520 0.00005329 0.88808206
v 0.25428343 0.00005329 0.85630800
v 0.25425404 0.00005329 0.77475463
v 0.27405660 0.00005329 0.51016708
v 0.24386785 -0.12523569 0.51016708
v 0.27770088 -0.09149078 0.65699454
v 0.27770088 -0.09567857 0.71132423
v 0.24506107 -0.13035551 0.85630800
v 0.21778775 -0.13035551 0.82006207
v 0.21781127 -0.13035551 0.87443097
v 0.21781714 -0.13035551 0.88643450
v 0.21782302 -0.13035551 0.89549598
v 0.25430106 0.00005329 0.89255396
v 0.27405660 -0.00454306 0.51016708
v 0.27770088 0.00005329 0.59889903
v 0.24598388 -0.12070317 0.51016708
v 0.27770088 -0.08870743 0.64777614
v 0.27770088 -0.09538491 0.71265796
v 0.24597802 -0.12069039 0.90161544
v 0.24377968 -0.12522292 0.90161544
v 0.24584869 -0.12895108 0.85630800
v 0.24079374 -0.13035551 0.90161544
v 0.21785829 -0.13035551 0.90161544
v 0.25438337 0.00005329 0.89714355
v 0.27335124 -0.01359533 0.51016708
v 0.27770088 -0.00454306 0.59889903
v 0.27770088 -0.01171849 0.59933054
v 0.27770088 -0.01359533 0.59952667
v 0.27770088 -0.02174109 0.60050735
v 0.27770088 -0.02266036 0.60062504
v 0.27770088 -0.03213396 0.60250794
v 0.27770088 -0.06981131 0.62121932
v 0.27770088 -0.07440766 0.62412213
v 0.27770088 0.00005329 0.72607367
v 0.24662456 -0.11920935 0.51016708
v 0.27770088 -0.08311520 0.63318362
v 0.24917557 -0.11325963 0.51016708
v 0.24981626 -0.11171474 0.51016708
v 0.25388963 -0.10188364 0.51016708
v 0.25668161 -0.09514233 0.51016708
v 0.26015543 -0.08607729 0.51016708
v 0.27770088 -0.09304844 0.71877741
v 0.26316489 -0.07408847 0.90671495
v 0.26214216 -0.07938704 0.90161544
v 0.26002613 -0.08607729 0.90161544
v 0.25666986 -0.09514233 0.90161544
v 0.25408358 -0.10054304 0.90663653
v 0.24554304 -0.11973283 0.90722493
v 0.23884815 -0.13035551 0.90691112
v 0.21814630 -0.13035551 0.90314529
v 0.25447152 0.00005329 0.90161544
v 0.27278109 -0.02084736 0.51016708
v 0.27770088 -0.08227253 0.63181068
v 0.27764798 0.00005329 0.85630800
v 0.27770088 -0.00454306 0.72607367
v 0.27770088 -0.08278324 0.63239907
v 0.26057864 -0.08474946 0.51016708
v 0.27770088 -0.09179720 0.71936581
v 0.27764798 -0.00454306 0.85630800
v 0.27688974 -0.01359533 0.85630800
v 0.27536149 -0.03172540 0.85630800
v 0.27450330 -0.04077766 0.85630800
v 0.27081789 -0.04077766 0.90161544
v 0.26918972 -0.04984270 0.90161544
v 0.26715009 -0.05890773 0.90161544
v 0.27198759 -0.02903142 0.90636193
v 0.26390552 -0.06796000 0.90753873
v 0.25681680 -0.08607729 0.90855868
v 0.25520038 -0.09514233 0.90769569
v 0.24684207 -0.11325963 0.90820561
v 0.23818983 -0.13035551 0.90804871
v 0.22196691 -0.13035551 0.90871558
v 0.25870947 0.00005329 0.90863711
v 0.25662282 0.00005329 0.90518513
v 0.27199345 -0.03085720 0.51016708
v 0.27170543 -0.03448321 0.51016708
v 0.27404483 0.00005329 0.90161544
v 0.27770088 -0.08607729 0.72152330
v 0.26227146 -0.07941258 0.51016708
v 0.26369390 -0.07350116 0.51016708
v 0.26719711 -0.05890773 0.51016708
v 0.26937193 -0.04984270 0.51016708
v 0.26970110 -0.04802969 0.51016708
v 0.27101185 -0.04077766 0.51016708
v 0.27115292 -0.03952643 0.51016708
v 0.27404483 -0.00454306 0.90161544
v 0.27224033 -0.02266036 0.90675422
v 0.26590399 -0.04984270 0.90863711
v 0.26495177 -0.05890773 0.90836251
v 0.25825099 -0.06796000 0.91004929
v 0.24919321 -0.09514233 0.91020619
v 0.24013540 -0.11325963 0.91067690
v 0.24065266 -0.12258001 0.90879401
v 0.23218852 -0.13035551 0.91028467
v 0.22262523 -0.13035551 0.90895091
v 0.23107173 -0.12232467 0.91020619
v 0.26731466 0.00005329 0.91012771
v 0.27295155 0.00005329 0.90761721
v 0.27295155 -0.00454306 0.90761721
v 0.27259889 -0.01359533 0.90722493
v 0.26731466 -0.00454306 0.91012771
v 0.25825099 -0.05890773 0.91087307
v 0.24919321 -0.08607729 0.91083386
v 0.23107173 -0.13035551 0.91044157
v 0.25825099 -0.04984270 0.91091228
f 1 2 3
f 1 3 4
f 1 4 10
f 1 10 20
f 1 20 31
f 1 31 58
f 1 58 81
f 1 81 82
f 1 82 91
f 1 91 90
f 1 90 89
f 1 89 88
f 1 88 87
f 1 87 86
f 1 86 85
f 1 85 63
f 1 63 47
f 1 47 46
f 1 46 45
f 1 45 44
f 1 44 43
f 1 43 41
f 1 41 22
f 1 22 11
f 1 11 5
f 1 5 14
f 1 14 28
f 1 28 55
f 1 55 77
f 1 77 100
f 1 100 110
f 1 110 101
f 1 101 78
f 1 78 56
f 1 56 29
f 1 29 18
f 1 18 17
f 1 17 16
f 1 16 15
f 1 15 6
f 1 6 7
f 1 7 8
f 1 8 9
f 1 9 2
f 2 9 8
f 2 8 7
f 2 7 19
f 2 19 30
f 2 30 57
f 2 57 80
f 2 80 79
f 2 79 103
f 2 103 104
f 2 104 83
f 2 83 60
f 2 60 40
f 2 40 21
f 2 21 10
f 2 10 4
f 2 4 3
f 5 11 12
f 5 12 13
f 5 13 14
f 6 15 7
f 7 15 16
f 7 16 17
f 7 17 18
f 7 18 19
f 10 21 32
f 10 32 20
f 11 22 12
f 12 22 23
f 12 23 42
f 12 42 62
f 12 62 59
f 12 59 39
f 12 39 38
f 12 38 37
f 12 37 36
f 12 36 35
f 12 35 34
f 12 34 33
f 12 33 32
f 12 32 21
f 12 21 40
f 12 40 61
f 12 61 84
f 12 84 64
f 12 64 48
f 12 48 24
f 12 24 13
f 13 24 25
f 13 25 26
f 13 26 27
f 13 27 14
f 14 27 26
f 14 26 28
f 18 29 19
f 19 29 30
f 20 32 33
f 20 33 34
f 20 34 35
f 20 35 36
f 20 36 37
f 20 37 38
f 20 38 39
f 20 39 31
f 22 41 23
f 23 41 43
f 23 43 44
f 23 44 45
f 23 45 46
f 23 46 47
f 23 47 42
f 24 48 49
f 24 49 50
f 24 50 51
f 24 51 52
f 24 52 53
f 24 53 25
f 25 53 54
f 25 54 26
f 26 54 28
f 28 54 55
f 29 56 57
f 29 57 30
f 31 39 59
f 31 59 58
f 40 60 65
f 40 65 61
f 42 47 62
f 47 63 62
f 48 64 65
f 48 65 66
f 48 66 67
f 48 67 68
f 48 68 69
f 48 69 70
f 48 70 71
f 48 71 49
f 49 71 70
f 49 70 72
f 49 72 73
f 49 73 74
f 49 74 75
f 49 75 53
f 49 53 51
f 49 51 50
f 51 53 52
f 53 75 54
f 54 75 76
f 54 76 77
f 54 77 55
f 56 78 79
f 56 79 80
f 56 80 57
f 58 59 81
f 59 62 82
f 59 82 81
f 60 83 92
f 60 92 65
f 61 65 84
f 62 63 85
f 62 85 86
f 62 86 87
f 62 87 88
f 62 88 89
f 62 89 90
f 62 90 91
f 62 91 82
f 64 84 65
f 65 92 72
f 65 72 66
f 66 72 67
f 67 72 68
f 68 72 69
f 69 72 70
f 72 92 93
f 72 93 94
f 72 94 95
f 72 95 73
f 73 95 74
f 74 96 97
f 74 97 76
f 74 76 75
f 74 95 96
f 76 97 98
f 76 98 99
f 76 99 77
f 77 99 100
f 78 101 79
f 79 101 102
f 79 102 103
f 83 104 105
f 83 105 92
f 92 105 106
f 92 106 93
f 93 106 94
f 94 107 108
f 94 108 95
f 94 106 105
f 94 105 107
f 95 108 96
f 96 108 97
f 97 108 109
f 97 109 98
f 98 109 110
f 98 110 100
f 98 100 99
f 101 110 102
f 102 110 111
f 102 111 103
f 103 111 107
f 103 107 105
f 103 105 104
f 107 111 108
f 108 111 109
f 109 111 110

