# https://github.com/mikedh/trimesh
v -0.09115452 -0.24918391 0.91041208
v -0.09115452 -0.24054445 0.90860848
v -0.21305937 -0.14505259 0.90876528
v -0.10422131 -0.24012105 0.91064730
v -0.11328171 -0.24012105 0.91060809
v -0.09516091 -0.24918391 0.91005917
v -0.09115452 -0.25576363 0.90798108
v -0.09115452 -0.23682547 0.90159006
v -0.22236044 -0.14505259 0.90994159
v -0.20841592 -0.14505259 0.90159006
v -0.21294612 -0.15857821 0.91052966
v -0.20388572 -0.16764107 0.91064730
v -0.14046291 -0.22200678 0.91068651
v -0.15858372 -0.21294392 0.91052966
v -0.13140251 -0.23106964 0.91037287
v -0.12245537 -0.24057877 0.90872612
v -0.11328171 -0.24670077 0.90813793
v -0.09516091 -0.25505416 0.90754980
v -0.09115452 -0.25785770 0.90159006
v -0.09115452 -0.23680257 0.89998249
v -0.22275683 -0.15025914 0.90903976
v -0.22922653 -0.14505259 0.90794187
v -0.09115452 -0.23669960 0.89253279
v -0.20838760 -0.14505259 0.88347552
v -0.22015196 -0.15857821 0.90805951
v -0.21280454 -0.16732067 0.90841242
v -0.20399897 -0.17669248 0.90876528
v -0.19520755 -0.18606430 0.90900055
v -0.17669036 -0.19482965 0.91064730
v -0.18606220 -0.19521871 0.90900055
v -0.16762996 -0.20388106 0.91064730
v -0.17669036 -0.20400694 0.90876528
v -0.16731850 -0.21280660 0.90841242
v -0.15858372 -0.22018734 0.90805951
v -0.15027363 -0.22277346 0.90907897
v -0.14006652 -0.23117262 0.90845163
v -0.13140251 -0.23769513 0.90790271
v -0.11952489 -0.24544206 0.90711852
v -0.10031402 -0.25397853 0.90653039
v -0.09516091 -0.25637012 0.90159006
v -0.09115452 -0.26195430 0.85630371
v -0.22820723 -0.14771880 0.90766744
v -0.23150578 -0.14505259 0.90159006
v -0.09115452 -0.23668815 0.86379262
v -0.09115452 -0.23661950 0.68417640
v -0.09115452 -0.23658517 0.59356452
v -0.09115452 -0.23656227 0.53012443
v -0.20824604 -0.14505259 0.57572445
v -0.21828326 -0.16409374 0.90704010
v -0.20969003 -0.17367154 0.90735380
v -0.20106850 -0.18324933 0.90758902
v -0.19244697 -0.19246095 0.90778508
v -0.18324499 -0.20108897 0.90762823
v -0.17367495 -0.20969410 0.90735380
v -0.16409074 -0.21829924 0.90704010
v -0.14776787 -0.22823178 0.90770665
v -0.13679629 -0.23612745 0.90680483
v -0.12490450 -0.24361116 0.90159006
v -0.12037431 -0.24581965 0.90159006
v -0.11440011 -0.25237650 0.85630371
v -0.09516091 -0.26034085 0.85630371
v -0.09516091 -0.25638157 0.51016708
v -0.09115452 -0.25792635 0.51016708
v -0.22904248 -0.14908052 0.90159006
v -0.23562544 -0.14505259 0.86093037
v -0.09115452 -0.23656227 0.51016708
v -0.20821771 -0.14505259 0.51232356
v -0.22619695 -0.15361195 0.90159006
v -0.22288425 -0.15857821 0.90159006
v -0.21867965 -0.16457435 0.90159006
v -0.21484313 -0.16910578 0.90159006
v -0.19805309 -0.18877631 0.90159006
v -0.19352289 -0.19353658 0.90159006
v -0.18878033 -0.19806801 0.90159006
v -0.18425012 -0.20194720 0.90159006
v -0.16910227 -0.21486635 0.90159006
v -0.16457208 -0.21869975 0.90159006
v -0.15858372 -0.22294511 0.90159006
v -0.15367128 -0.22625213 0.90159006
v -0.13140251 -0.23985786 0.90159006
v -0.14914108 -0.22907854 0.90159006
v -0.14509221 -0.23565829 0.86096956
v -0.13321459 -0.24313057 0.85630371
v -0.12868439 -0.24568236 0.85630371
v -0.12234211 -0.24887494 0.85630371
v -0.12038846 -0.24583111 0.51016708
v -0.11328171 -0.24887494 0.51016708
v -0.23563959 -0.14505259 0.86065592
v -0.22564483 -0.16165637 0.85630371
v -0.20821771 -0.14505259 0.51016708
v -0.22111463 -0.16741221 0.85630371
v -0.21729228 -0.17194364 0.85630371
v -0.20865658 -0.18152144 0.86128326
v -0.20040312 -0.19154551 0.85630371
v -0.19607113 -0.19607694 0.85630371
v -0.19154093 -0.20042527 0.85630371
v -0.18151785 -0.20866424 0.86128326
v -0.16741760 -0.22114856 0.85630371
v -0.16172654 -0.22567999 0.85630371
v -0.14046291 -0.23873645 0.85630371
v -0.13140251 -0.23994941 0.51016708
v -0.12491867 -0.24369126 0.51016708
v -0.12401263 -0.24412610 0.51016708
v -0.23576700 -0.14505259 0.85630371
v -0.23569622 -0.14515557 0.85159865
v -0.22626773 -0.15362340 0.51016708
v -0.22295503 -0.15857821 0.51016708
v -0.22210562 -0.15977972 0.51016708
v -0.21869380 -0.16458579 0.51016708
v -0.23150578 -0.14505259 0.51016708
v -0.21485730 -0.16911722 0.51016708
v -0.19805309 -0.18878774 0.51016708
v -0.19352289 -0.19354803 0.51016708
v -0.17194780 -0.21730371 0.85630371
v -0.18878033 -0.19807946 0.51016708
v -0.16458623 -0.21871120 0.51016708
v -0.15858372 -0.22301376 0.51016708
v -0.15466225 -0.22564565 0.51016708
v -0.15367128 -0.22629790 0.51016708
v -0.15276524 -0.22685862 0.51016708
v -0.14323767 -0.23270597 0.51016708
v -0.13722099 -0.23639062 0.51016708
v -0.13256338 -0.23923994 0.51016708
v -0.23575285 -0.14505259 0.85167707
v -0.22904248 -0.14909196 0.51016708
v -0.17804942 -0.20724531 0.51016708
v -0.17017820 -0.21396235 0.51016708
v -0.16911643 -0.21486635 0.51016708
f 1 2 3
f 1 3 4
f 1 4 5
f 1 5 6
f 1 6 7
f 1 7 19
f 1 19 41
f 1 41 63
f 1 63 66
f 1 66 47
f 1 47 46
f 1 46 45
f 1 45 44
f 1 44 23
f 1 23 20
f 1 20 8
f 1 8 2
f 2 8 3
f 3 9 4
f 3 8 10
f 3 10 24
f 3 24 48
f 3 48 67
f 3 67 90
f 3 90 110
f 3 110 124
f 3 124 104
f 3 104 88
f 3 88 65
f 3 65 43
f 3 43 22
f 3 22 9
f 4 9 11
f 4 11 12
f 4 12 13
f 4 13 5
f 5 13 14
f 5 14 15
f 5 15 16
f 5 16 17
f 5 17 6
f 6 17 7
f 7 17 18
f 7 18 19
f 8 20 10
f 9 21 11
f 9 22 21
f 10 20 23
f 10 23 24
f 11 21 25
f 11 25 26
f 11 26 27
f 11 27 28
f 11 28 12
f 12 29 13
f 12 28 30
f 12 30 29
f 13 29 31
f 13 31 14
f 14 31 30
f 14 30 32
f 14 32 33
f 14 33 34
f 14 34 35
f 14 35 15
f 15 35 36
f 15 36 37
f 15 37 16
f 16 37 17
f 17 37 38
f 17 38 18
f 18 38 39
f 18 39 19
f 19 39 40
f 19 40 41
f 21 22 25
f 22 42 25
f 22 43 42
f 23 44 24
f 24 44 45
f 24 45 46
f 24 46 47
f 24 47 48
f 25 42 49
f 25 49 26
f 26 49 50
f 26 50 51
f 26 51 27
f 27 51 28
f 28 51 52
f 28 52 30
f 29 30 31
f 30 52 53
f 30 53 32
f 32 53 33
f 33 53 54
f 33 54 55
f 33 55 34
f 34 55 56
f 34 56 35
f 35 56 36
f 36 56 37
f 37 56 57
f 37 57 38
f 38 57 58
f 38 58 59
f 38 59 39
f 39 59 60
f 39 60 61
f 39 61 41
f 39 41 40
f 41 61 62
f 41 62 63
f 42 43 64
f 42 64 49
f 43 65 64
f 47 66 90
f 47 90 67
f 47 67 48
f 49 64 68
f 49 68 69
f 49 69 70
f 49 70 71
f 49 71 72
f 49 72 50
f 50 72 51
f 51 72 52
f 52 72 73
f 52 73 74
f 52 74 53
f 53 74 54
f 54 74 55
f 55 57 56
f 55 74 75
f 55 75 76
f 55 76 77
f 55 77 78
f 55 78 79
f 55 79 57
f 57 80 58
f 57 79 81
f 57 81 82
f 57 82 80
f 58 80 83
f 58 83 84
f 58 84 85
f 58 85 59
f 59 85 60
f 60 85 86
f 60 86 87
f 60 87 62
f 60 62 61
f 62 87 86
f 62 86 103
f 62 103 102
f 62 102 101
f 62 101 123
f 62 123 122
f 62 122 121
f 62 121 120
f 62 120 119
f 62 119 118
f 62 118 117
f 62 117 116
f 62 116 128
f 62 128 127
f 62 127 126
f 62 126 115
f 62 115 113
f 62 113 112
f 62 112 111
f 62 111 109
f 62 109 108
f 62 108 107
f 62 107 106
f 62 106 125
f 62 125 110
f 62 110 90
f 62 90 66
f 62 66 63
f 64 65 68
f 65 88 89
f 65 89 68
f 68 89 69
f 69 89 70
f 70 89 91
f 70 91 92
f 70 92 93
f 70 93 71
f 71 93 72
f 72 93 94
f 72 94 73
f 73 94 95
f 73 95 96
f 73 96 74
f 74 96 97
f 74 97 75
f 75 97 76
f 76 97 98
f 76 98 77
f 77 98 99
f 77 99 78
f 78 99 79
f 79 99 82
f 79 82 81
f 80 82 83
f 82 99 100
f 82 100 83
f 83 100 101
f 83 101 102
f 83 102 84
f 84 102 85
f 85 102 103
f 85 103 86
f 88 104 89
f 89 104 105
f 89 105 106
f 89 106 107
f 89 107 108
f 89 108 109
f 89 109 91
f 91 109 92
f 92 94 93
f 92 109 111
f 92 111 112
f 92 112 94
f 94 112 113
f 94 113 95
f 95 113 96
f 96 114 97
f 96 113 115
f 96 115 114
f 97 114 98
f 98 114 128
f 98 128 116
f 98 116 99
f 99 116 117
f 99 117 118
f 99 118 119
f 99 119 120
f 99 120 100
f 100 120 121
f 100 121 122
f 100 122 123
f 100 123 101
f 104 124 105
f 105 124 110
f 105 110 125
f 105 125 106
f 114 115 126
f 114 126 127
f 114 127 128

