# https://github.com/mikedh/trimesh
v 0.32167440 0.00009598 0.73536770
v 0.32637369 0.00452533 0.73413851
v 0.32167440 0.00452533 0.73535433
v 0.31505269 0.05887868 0.73514058
v 0.31505269 0.04983230 0.73515392
v 0.31505269 0.03170201 0.73518066
v 0.31505269 0.00452533 0.73520737
v 0.31505269 -0.00452105 0.73520737
v 0.31505269 -0.03171650 0.73518066
v 0.31505269 -0.05889318 0.73514058
v 0.32167440 -0.00452105 0.73535433
v 0.32637369 -0.00452105 0.73413851
v 0.32845509 0.00009598 0.72944892
v 0.32844516 0.00452533 0.72944892
v 0.32626939 0.02263686 0.73403162
v 0.32122235 0.05887868 0.73514058
v 0.32167440 0.01359048 0.73530089
v 0.31503282 0.06794383 0.73510048
v 0.27770674 0.00009598 0.72606867
v 0.27770674 -0.00452105 0.72606867
v 0.32121242 -0.05889318 0.73514058
v 0.31503282 -0.06793956 0.73508711
v 0.32623461 -0.02865724 0.73399154
v 0.32844019 -0.00452105 0.72944892
v 0.32828620 0.00452533 0.72104505
v 0.32828620 -0.00452105 0.72104505
v 0.32623461 0.02879290 0.73399154
v 0.32815206 0.03170201 0.72115194
v 0.32810737 0.04076716 0.72119202
v 0.32801795 0.05887868 0.72127220
v 0.32796329 0.06794383 0.72133898
v 0.32796329 0.06794383 0.72903473
v 0.32801795 0.05887868 0.72914162
v 0.32107334 0.06794383 0.73510048
v 0.31474966 0.07700898 0.73477984
v 0.27773655 0.00452533 0.72602860
v 0.27770674 0.00009598 0.59887505
v 0.27773655 0.00936758 0.72584153
v 0.27773655 0.08607413 0.72160620
v 0.27773655 0.09324367 0.71889400
v 0.27773655 0.09605893 0.71133184
v 0.27773159 0.09039087 0.66602579
v 0.27773159 0.09185481 0.65696725
v 0.27770674 -0.08606985 0.72152605
v 0.28844157 -0.08606985 0.72544071
v 0.29450197 -0.08606985 0.72753835
v 0.30356278 -0.08606985 0.73062467
v 0.31469503 -0.07700470 0.73473976
v 0.32103358 -0.06793956 0.73508711
v 0.32616010 -0.03470068 0.73393810
v 0.32795835 -0.06793956 0.72902137
v 0.32801298 -0.05889318 0.72914162
v 0.32795835 -0.06793956 0.72135235
v 0.32801298 -0.05889318 0.72127220
v 0.30947413 0.00452533 0.64015953
v 0.30946916 -0.00450228 0.64015953
v 0.30947413 0.00009598 0.64015953
v 0.32616010 0.03483633 0.73395147
v 0.32730263 0.07700898 0.72246128
v 0.30929530 0.01359048 0.64053363
v 0.30898236 0.02263686 0.64125511
v 0.30854522 0.02963748 0.64229723
v 0.32730263 0.07700898 0.72747154
v 0.32560373 0.06794383 0.73357736
v 0.32606074 0.04076716 0.73388466
v 0.31964268 0.07700898 0.73477984
v 0.31538551 0.08247059 0.73431221
v 0.30355781 0.08607413 0.73063803
v 0.27773159 0.00452533 0.59892849
v 0.30737784 0.00452533 0.63563026
v 0.30737784 -0.00450228 0.63563026
v 0.27770674 -0.00450228 0.59888841
v 0.27773159 0.09099145 0.65402792
v 0.27773159 0.08868294 0.64696011
v 0.27773159 0.08307118 0.63285124
v 0.27773159 0.08250813 0.63191600
v 0.27773159 0.07374328 0.62377935
v 0.27773159 0.06846935 0.62075983
v 0.27773159 0.03830849 0.60512784
v 0.27773159 0.03213368 0.60250914
v 0.27773159 0.02263686 0.60062530
v 0.27773159 0.01359048 0.59955644
v 0.29450694 0.08607413 0.72753835
v 0.28844654 0.08607413 0.72544071
v 0.28898801 0.09104776 0.72525367
v 0.29450694 0.09196741 0.72618890
v 0.30355781 0.09296214 0.72752498
v 0.29450694 0.09508297 0.72039038
v 0.30355781 0.09553342 0.72039038
v 0.31261859 0.09380672 0.72039038
v 0.28544616 0.08813866 0.64790873
v 0.27770674 -0.09179422 0.71936160
v 0.28915193 -0.09094964 0.72520023
v 0.31241491 -0.08563817 0.73225465
v 0.31531100 -0.08233494 0.73427213
v 0.29450197 -0.09183176 0.72609538
v 0.30356278 -0.09278894 0.72741809
v 0.31955824 -0.07700470 0.73473976
v 0.32556397 -0.06793956 0.73355065
v 0.32574281 -0.05889318 0.73367088
v 0.32590179 -0.04982802 0.73377777
v 0.32725294 -0.07700470 0.72737802
v 0.32725294 -0.07700470 0.72258154
v 0.30853031 -0.02959567 0.64232396
v 0.30897242 -0.02265135 0.64126847
v 0.30928536 -0.01358620 0.64056035
v 0.29976756 0.06572916 0.64168265
v 0.32651279 0.08207646 0.72401111
v 0.30273319 0.04981354 0.63886354
v 0.30718907 0.01359048 0.63601773
v 0.30684632 0.02263686 0.63672584
v 0.30648369 0.03228383 0.63911740
v 0.30472518 0.04074839 0.63886354
v 0.32651279 0.08207646 0.72561441
v 0.32417804 0.07700898 0.73201416
v 0.31791397 0.08247059 0.73431221
v 0.31246460 0.08571753 0.73240161
v 0.30718410 -0.01358620 0.63601773
v 0.27770674 -0.01170936 0.59931594
v 0.28544616 0.08545477 0.63886354
v 0.27799983 0.08292103 0.63220993
v 0.28544616 0.08265827 0.63265083
v 0.29006597 0.08166355 0.63420068
v 0.29097006 0.07699021 0.63319862
v 0.29261930 0.06794383 0.63166214
v 0.29916153 0.05486224 0.63414723
v 0.29979241 0.04981354 0.63338567
v 0.30077598 0.04074839 0.63227674
v 0.30163039 0.03170201 0.63156862
v 0.31261859 0.09260554 0.72768531
v 0.31827163 0.09151697 0.72649620
v 0.31810274 0.09138560 0.72039038
v 0.31729800 0.09072870 0.71574087
v 0.29127309 0.08327764 0.63886354
v 0.27770674 -0.09303293 0.71878711
v 0.31262356 -0.09241358 0.72747154
v 0.31782952 -0.08233494 0.73427213
v 0.29450197 -0.09472209 0.72039038
v 0.30356278 -0.09517253 0.72039038
v 0.32408863 -0.07700470 0.73190730
v 0.32645813 -0.08197833 0.72550752
v 0.32645813 -0.08197833 0.72414474
v 0.29975763 -0.06564981 0.64172273
v 0.30269344 -0.04982802 0.63886354
v 0.30469040 -0.04076288 0.63886354
v 0.30646381 -0.03226078 0.63911740
v 0.30683141 -0.02265135 0.63675255
v 0.30049283 0.05827809 0.63875665
v 0.29830712 0.06088690 0.63565698
v 0.29738315 0.06841304 0.63875665
v 0.29428341 0.07699021 0.63886354
v 0.32111306 0.08528585 0.72907481
v 0.30230599 -0.02265135 0.63111436
v 0.27770674 -0.02171293 0.60047832
v 0.27770674 -0.01358620 0.59952972
v 0.27770674 -0.09537899 0.71265455
v 0.31262356 -0.09344584 0.72039038
v 0.31810771 -0.09136255 0.72628245
v 0.32099883 -0.08516896 0.72891448
v 0.27770674 -0.09567928 0.71133184
v 0.27770674 -0.09147516 0.65695390
v 0.29422381 -0.07700470 0.63886354
v 0.31789412 -0.09119363 0.72039038
v 0.31717383 -0.09061181 0.71583439
v 0.29123831 -0.08321705 0.63886354
v 0.29734837 -0.06839000 0.63877002
v 0.29828725 -0.06084509 0.63568371
v 0.30046798 -0.05823628 0.63877002
v 0.29915159 -0.05482043 0.63417394
v 0.29977253 -0.04982802 0.63339903
v 0.30076108 -0.04076288 0.63230345
v 0.30161548 -0.03169773 0.63159533
v 0.27770674 -0.02265135 0.60061194
v 0.28544616 -0.08789039 0.64789536
v 0.27770674 -0.08867866 0.64774840
v 0.28544616 -0.08528158 0.63886354
v 0.29004609 -0.08162174 0.63424075
v 0.28544616 -0.08259769 0.63270428
v 0.29093528 -0.07700470 0.63323871
v 0.29259445 -0.06793956 0.63167550
v 0.27770674 -0.03211063 0.60250914
v 0.27770674 -0.08310444 0.63319862
v 0.27811407 -0.08286045 0.63226337
v 0.27770674 -0.06979763 0.62122745
v 0.27770674 -0.07439589 0.62412672
v 0.27770674 -0.08276661 0.63241034
v 0.27770674 -0.08225986 0.63182248
f 1 2 3
f 1 3 4
f 1 4 5
f 1 5 6
f 1 6 7
f 1 7 8
f 1 8 9
f 1 9 10
f 1 10 11
f 1 11 12
f 1 12 2
f 2 13 14
f 2 14 15
f 2 15 16
f 2 16 17
f 2 17 3
f 2 12 13
f 3 17 16
f 3 16 4
f 4 16 34
f 4 34 18
f 4 18 19
f 4 19 5
f 5 19 6
f 6 19 7
f 7 19 20
f 7 20 8
f 8 20 9
f 9 20 10
f 10 21 11
f 10 20 22
f 10 22 49
f 10 49 21
f 11 21 12
f 12 21 23
f 12 23 24
f 12 24 13
f 13 25 14
f 13 24 26
f 13 26 25
f 14 27 15
f 14 25 28
f 14 28 29
f 14 29 30
f 14 30 31
f 14 31 32
f 14 32 33
f 14 33 27
f 15 27 16
f 16 27 34
f 18 34 66
f 18 66 35
f 18 35 36
f 18 36 19
f 19 37 72
f 19 72 119
f 19 119 155
f 19 155 154
f 19 154 173
f 19 173 181
f 19 181 184
f 19 184 185
f 19 185 187
f 19 187 186
f 19 186 182
f 19 182 175
f 19 175 161
f 19 161 160
f 19 160 156
f 19 156 135
f 19 135 92
f 19 92 44
f 19 44 20
f 19 36 38
f 19 38 39
f 19 39 40
f 19 40 41
f 19 41 42
f 19 42 43
f 19 43 37
f 20 44 45
f 20 45 46
f 20 46 47
f 20 47 48
f 20 48 22
f 21 49 23
f 22 48 98
f 22 98 49
f 23 49 50
f 23 50 51
f 23 51 52
f 23 52 24
f 24 52 51
f 24 51 53
f 24 53 54
f 24 54 26
f 25 26 57
f 25 57 55
f 25 55 28
f 26 54 56
f 26 56 57
f 27 33 32
f 27 32 58
f 27 58 34
f 28 55 29
f 29 55 30
f 30 55 31
f 31 59 63
f 31 63 32
f 31 55 60
f 31 60 61
f 31 61 62
f 31 62 59
f 32 63 64
f 32 64 65
f 32 65 58
f 34 64 66
f 34 58 65
f 34 65 64
f 35 66 116
f 35 116 67
f 35 67 68
f 35 68 38
f 35 38 36
f 37 69 70
f 37 70 71
f 37 71 72
f 37 43 73
f 37 73 74
f 37 74 75
f 37 75 76
f 37 76 77
f 37 77 78
f 37 78 79
f 37 79 80
f 37 80 81
f 37 81 82
f 37 82 69
f 38 68 83
f 38 83 84
f 38 84 39
f 39 84 85
f 39 85 40
f 40 85 86
f 40 86 87
f 40 87 88
f 40 88 41
f 41 88 89
f 41 89 43
f 41 43 42
f 43 89 90
f 43 90 91
f 43 91 73
f 44 92 93
f 44 93 45
f 45 93 46
f 46 93 47
f 47 94 95
f 47 95 48
f 47 93 96
f 47 96 97
f 47 97 94
f 48 95 137
f 48 137 98
f 49 99 100
f 49 100 101
f 49 101 50
f 49 98 99
f 50 101 51
f 51 101 100
f 51 100 99
f 51 99 102
f 51 102 103
f 51 103 53
f 53 103 104
f 53 104 105
f 53 105 106
f 53 106 56
f 53 56 54
f 55 70 60
f 55 57 71
f 55 71 70
f 56 106 71
f 56 71 57
f 59 107 108
f 59 108 114
f 59 114 63
f 59 62 109
f 59 109 107
f 60 70 110
f 60 110 61
f 61 110 111
f 61 111 62
f 62 111 112
f 62 112 113
f 62 113 109
f 63 114 115
f 63 115 64
f 64 115 66
f 66 115 116
f 67 116 117
f 67 117 68
f 68 117 87
f 68 87 86
f 68 86 85
f 68 85 83
f 69 82 110
f 69 110 70
f 71 106 118
f 71 118 119
f 71 119 72
f 73 91 120
f 73 120 74
f 74 120 121
f 74 121 75
f 75 121 76
f 76 121 77
f 77 121 122
f 77 122 123
f 77 123 78
f 78 123 79
f 79 123 80
f 80 123 124
f 80 124 125
f 80 125 126
f 80 126 127
f 80 127 128
f 80 128 81
f 81 128 129
f 81 129 111
f 81 111 110
f 81 110 82
f 83 85 84
f 87 130 89
f 87 89 88
f 87 117 130
f 89 130 90
f 90 130 131
f 90 131 132
f 90 132 133
f 90 133 91
f 91 134 120
f 91 133 134
f 92 135 93
f 93 135 96
f 94 97 136
f 94 136 137
f 94 137 95
f 96 135 97
f 97 135 138
f 97 138 139
f 97 139 136
f 98 137 140
f 98 140 99
f 99 140 102
f 102 140 141
f 102 141 142
f 102 142 103
f 103 142 143
f 103 143 144
f 103 144 104
f 104 144 145
f 104 145 146
f 104 146 147
f 104 147 105
f 105 147 118
f 105 118 106
f 107 148 149
f 107 149 150
f 107 150 151
f 107 151 108
f 107 109 148
f 108 151 134
f 108 134 133
f 108 133 132
f 108 132 131
f 108 131 114
f 109 113 126
f 109 126 148
f 111 129 128
f 111 128 127
f 111 127 112
f 112 127 113
f 113 127 126
f 114 131 152
f 114 152 115
f 115 152 116
f 116 152 131
f 116 131 130
f 116 130 117
f 118 147 153
f 118 153 154
f 118 154 155
f 118 155 119
f 120 134 123
f 120 123 122
f 120 122 121
f 123 151 150
f 123 150 149
f 123 149 124
f 123 134 151
f 124 149 126
f 124 126 125
f 126 149 148
f 135 156 138
f 136 139 157
f 136 157 158
f 136 158 137
f 137 158 159
f 137 159 140
f 138 156 160
f 138 160 139
f 139 160 161
f 139 161 157
f 140 159 141
f 141 159 158
f 141 158 142
f 142 162 143
f 142 158 163
f 142 163 164
f 142 164 165
f 142 165 162
f 143 166 167
f 143 167 168
f 143 168 144
f 143 162 166
f 144 168 169
f 144 169 145
f 145 169 170
f 145 170 146
f 146 170 147
f 147 170 171
f 147 171 172
f 147 172 153
f 153 172 173
f 153 173 154
f 157 161 174
f 157 174 164
f 157 164 163
f 157 163 158
f 161 175 176
f 161 176 174
f 162 165 177
f 162 177 166
f 164 174 165
f 165 174 176
f 165 176 178
f 165 178 177
f 166 177 167
f 167 177 179
f 167 179 169
f 167 169 168
f 169 179 180
f 169 180 181
f 169 181 170
f 170 181 171
f 171 181 173
f 171 173 172
f 175 182 183
f 175 183 176
f 176 183 178
f 177 184 181
f 177 181 179
f 177 178 184
f 178 183 185
f 178 185 184
f 179 181 180
f 182 186 183
f 183 186 187
f 183 187 185

